<svg xmlns="http://www.w3.org/2000/svg" width="465.4722900390625" height="348.1388854980469" viewBox="-285.2023620605469 -118.9071273803711 465.4722900390625 348.1388854980469"><title>Neo4j Graph Visualization</title><desc>Created using Neo4j (http://www.neo4j.com/)</desc><g class="layer relationships"><g class="relationship" transform="translate(14.418400564845088 55.59111419556122) rotate(447.28082789017725)"><path class="outline" fill="#A5ABB6" stroke="none" d="M 25 0.5 L 46.12059312737237 0.5 L 46.12059312737237 -0.5 L 25 -0.5 Z M 91.68309312737237 0.5 L 112.80368625474475 0.5 L 112.80368625474475 3.5 L 119.80368625474475 0 L 112.80368625474475 -3.5 L 112.80368625474475 -0.5 L 91.68309312737237 -0.5 Z"/><text text-anchor="middle" pointer-events="none" font-size="8px" fill="#000000" x="68.90184312737237" y="3" font-family="sans-serif">ACTED_IN</text></g><g class="relationship" transform="translate(14.418400564845088 55.59111419556122) rotate(379.6782352293943)"><path class="outline" fill="#A5ABB6" stroke="none" d="M 25 0.5 L 46.38853404448932 0.5 L 46.38853404448932 -0.5 L 25 -0.5 Z M 91.95103404448932 0.5 L 113.33956808897864 0.5 L 113.33956808897864 3.5 L 120.33956808897864 0 L 113.33956808897864 -3.5 L 113.33956808897864 -0.5 L 91.95103404448932 -0.5 Z"/><text text-anchor="middle" pointer-events="none" font-size="8px" fill="#000000" x="69.16978404448932" y="3" font-family="sans-serif">ACTED_IN</text></g><g class="relationship" transform="translate(14.418400564845088 55.59111419556122) rotate(324.9593646092079)"><path class="outline" fill="#A5ABB6" stroke="none" d="M 25 0.5 L 46.985479579462265 0.5 L 46.985479579462265 -0.5 L 25 -0.5 Z M 92.54797957946226 0.5 L 114.53345915892453 0.5 L 114.53345915892453 3.5 L 121.53345915892453 0 L 114.53345915892453 -3.5 L 114.53345915892453 -0.5 L 92.54797957946226 -0.5 Z"/><text text-anchor="middle" pointer-events="none" font-size="8px" fill="#000000" x="69.76672957946226" y="3" font-family="sans-serif">ACTED_IN</text></g><g class="relationship" transform="translate(14.418400564845088 55.59111419556122) rotate(278.52148936027726)"><path class="outline" fill="#A5ABB6" stroke="none" d="M 25 0.5 L 47.27996172029428 0.5 L 47.27996172029428 -0.5 L 25 -0.5 Z M 92.84246172029428 0.5 L 115.12242344058856 0.5 L 115.12242344058856 3.5 L 122.12242344058856 0 L 115.12242344058856 -3.5 L 115.12242344058856 -0.5 L 92.84246172029428 -0.5 Z"/><text text-anchor="middle" pointer-events="none" font-size="8px" fill="#000000" x="70.06121172029428" y="3" font-family="sans-serif">ACTED_IN</text></g><g class="relationship" transform="translate(14.418400564845088 55.59111419556122) rotate(230.85617617153207)"><path class="outline" fill="#A5ABB6" stroke="none" d="M 25 0.5 L 46.24154674519524 0.5 L 46.24154674519524 -0.5 L 25 -0.5 Z M 91.80404674519524 0.5 L 113.04559349039047 0.5 L 113.04559349039047 3.5 L 120.04559349039047 0 L 113.04559349039047 -3.5 L 113.04559349039047 -0.5 L 91.80404674519524 -0.5 Z"/><text text-anchor="middle" pointer-events="none" font-size="8px" fill="#000000" x="69.02279674519524" y="3" transform="rotate(180 69.02279674519524 0)" font-family="sans-serif">ACTED_IN</text></g><g class="relationship" transform="translate(-256.2023704495413 -31.610854337656882) rotate(440.3703744108113)"><path class="outline" fill="#A5ABB6" stroke="none" d="M 25 0.5 L 45.81779234046732 0.5 L 45.81779234046732 -0.5 L 25 -0.5 Z M 91.38029234046732 0.5 L 112.19808468093464 0.5 L 112.19808468093464 3.5 L 119.19808468093464 0 L 112.19808468093464 -3.5 L 112.19808468093464 -0.5 L 91.38029234046732 -0.5 Z"/><text text-anchor="middle" pointer-events="none" font-size="8px" fill="#000000" x="68.59904234046732" y="3" font-family="sans-serif">ACTED_IN</text></g></g><g class="layer nodes"><g class="node" aria-label="graph-node4" transform="translate(14.418400564845088,55.59111419556122)"><circle class="outline" cx="0" cy="0" r="25" fill="#C990C0" stroke="#b261a5" stroke-width="2px"/><text class="caption" text-anchor="middle" pointer-events="none" x="0" y="0" font-size="10px" fill="#FFFFFF" font-family="sans-serif"> Hugo</text><text class="caption" text-anchor="middle" pointer-events="none" x="0" y="10" font-size="10px" fill="#FFFFFF" font-family="sans-serif"> Weavi…</text></g><g class="node" aria-label="graph-node105" transform="translate(21.28798779567116,200.23175967338193)"><circle class="outline" cx="0" cy="0" r="25" fill="#F79767" stroke="#f36924" stroke-width="2px"/><text class="caption" text-anchor="middle" pointer-events="none" x="0" y="0" font-size="10px" fill="#FFFFFF" font-family="sans-serif"> Cloud</text><text class="caption" text-anchor="middle" pointer-events="none" x="0" y="10" font-size="10px" fill="#FFFFFF" font-family="sans-serif"> Atlas</text></g><g class="node" aria-label="graph-node116" transform="translate(151.26992396896406,104.53241162689966)"><circle class="outline" cx="0" cy="0" r="25" fill="#F79767" stroke="#f36924" stroke-width="2px"/><text class="caption" text-anchor="middle" pointer-events="none" x="0" y="0" font-size="10px" fill="#FFFFFF" font-family="sans-serif"> V for</text><text class="caption" text-anchor="middle" pointer-events="none" x="0" y="10" font-size="10px" fill="#FFFFFF" font-family="sans-serif"> Vende…</text></g><g class="node" aria-label="graph-node10" transform="translate(134.3919442727237,-28.54213406726258)"><circle class="outline" cx="0" cy="0" r="25" fill="#F79767" stroke="#f36924" stroke-width="2px"/><text class="caption" text-anchor="middle" pointer-events="none" x="0" y="-5" font-size="10px" fill="#FFFFFF" font-family="sans-serif"> The</text><text class="caption" text-anchor="middle" pointer-events="none" x="0" y="5" font-size="10px" fill="#FFFFFF" font-family="sans-serif"> Matrix</text><text class="caption" text-anchor="middle" pointer-events="none" x="0" y="15" font-size="10px" fill="#FFFFFF" font-family="sans-serif"> Rev…</text></g><g class="node" aria-label="graph-node9" transform="translate(36.21905145438223,-89.90713012313962)"><circle class="outline" cx="0" cy="0" r="25" fill="#F79767" stroke="#f36924" stroke-width="2px"/><text class="caption" text-anchor="middle" pointer-events="none" x="0" y="-5" font-size="10px" fill="#FFFFFF" font-family="sans-serif"> The</text><text class="caption" text-anchor="middle" pointer-events="none" x="0" y="5" font-size="10px" fill="#FFFFFF" font-family="sans-serif"> Matrix</text><text class="caption" text-anchor="middle" pointer-events="none" x="0" y="15" font-size="10px" fill="#FFFFFF" font-family="sans-serif"> Rel…</text></g><g class="node" aria-label="graph-node0" transform="translate(-77.14441485086692,-56.90099674617484)"><circle class="outline" cx="0" cy="0" r="25" fill="#F79767" stroke="#f36924" stroke-width="2px"/><text class="caption" text-anchor="middle" pointer-events="none" x="0" y="0" font-size="10px" fill="#FFFFFF" font-family="sans-serif"> The</text><text class="caption" text-anchor="middle" pointer-events="none" x="0" y="10" font-size="10px" fill="#FFFFFF" font-family="sans-serif"> Matrix</text></g><g class="node" aria-label="graph-node173" transform="translate(-256.2023704495413,-31.610854337656882)"><circle class="outline" cx="0" cy="0" r="25" fill="#C990C0" stroke="#b261a5" stroke-width="2px"/><text class="caption" text-anchor="middle" pointer-events="none" x="0" y="0" font-size="10px" fill="#FFFFFF" font-family="sans-serif"> Hugo</text><text class="caption" text-anchor="middle" pointer-events="none" x="0" y="10" font-size="10px" fill="#FFFFFF" font-family="sans-serif"> Weavi…</text></g><g class="node" aria-label="graph-node171" transform="translate(-232.08112428776707,110.55543248609432)"><circle class="outline" cx="0" cy="0" r="25" fill="#F79767" stroke="#f36924" stroke-width="2px"/><text class="caption" text-anchor="middle" pointer-events="none" x="0" y="0" font-size="10px" fill="#FFFFFF" font-family="sans-serif"> Captain</text><text class="caption" text-anchor="middle" pointer-events="none" x="0" y="10" font-size="10px" fill="#FFFFFF" font-family="sans-serif"> America</text></g></g></svg>