<svg xmlns="http://www.w3.org/2000/svg" width="617.3738403320312" height="505.89129638671875" viewBox="-335.7109375 -160.6129913330078 617.3738403320312 505.89129638671875"><title>Neo4j Graph Visualization</title><desc>Created using Neo4j (http://www.neo4j.com/)</desc><g class="layer relationships"><g class="relationship" transform="translate(-71.48622871717694 316.27829121284105) rotate(281.162903719752)"><path class="outline" fill="#A5ABB6" stroke="none" d="M 25 0.5 L 46.761306181043594 0.5 L 46.761306181043594 -0.5 L 25 -0.5 Z M 92.3238061810436 0.5 L 114.08511236208719 0.5 L 114.08511236208719 3.5 L 121.08511236208719 0 L 114.08511236208719 -3.5 L 114.08511236208719 -0.5 L 92.3238061810436 -0.5 Z"/><text text-anchor="middle" pointer-events="none" font-size="8px" fill="#000000" x="69.5425561810436" y="3" font-family="sans-serif">ACTED_IN</text></g><g class="relationship" transform="translate(-165.94819152158829 12.411348420833633) rotate(197.44959958604403)"><path class="outline" fill="#A5ABB6" stroke="none" d="M 25 0.5 L 47.495231659783656 0.5 L 47.495231659783656 -0.5 L 25 -0.5 Z M 93.05773165978366 0.5 L 115.55296331956731 0.5 L 115.55296331956731 3.5 L 122.55296331956731 0 L 115.55296331956731 -3.5 L 115.55296331956731 -0.5 L 93.05773165978366 -0.5 Z"/><text text-anchor="middle" pointer-events="none" font-size="8px" fill="#000000" x="70.27648165978366" y="3" transform="rotate(180 70.27648165978366 0)" font-family="sans-serif">ACTED_IN</text></g><g class="relationship" transform="translate(-165.94819152158829 12.411348420833633) rotate(254.3743842519732)"><path class="outline" fill="#A5ABB6" stroke="none" d="M 25 0.5 L 48.494465370921745 0.5 L 48.494465370921745 -0.5 L 25 -0.5 Z M 94.05696537092174 0.5 L 117.55143074184349 0.5 L 117.55143074184349 3.5 L 124.55143074184349 0 L 117.55143074184349 -3.5 L 117.55143074184349 -0.5 L 94.05696537092174 -0.5 Z"/><text text-anchor="middle" pointer-events="none" font-size="8px" fill="#000000" x="71.27571537092174" y="3" transform="rotate(180 71.27571537092174 0)" font-family="sans-serif">ACTED_IN</text></g><g class="relationship" transform="translate(-165.94819152158829 12.411348420833633) rotate(385.6257379741226)"><path class="outline" fill="#A5ABB6" stroke="none" d="M 25 0.5 L 44.36795899275579 0.5 L 44.36795899275579 -0.5 L 25 -0.5 Z M 89.93045899275579 0.5 L 109.29841798551158 0.5 L 109.29841798551158 3.5 L 116.29841798551158 0 L 109.29841798551158 -3.5 L 109.29841798551158 -0.5 L 89.93045899275579 -0.5 Z"/><text text-anchor="middle" pointer-events="none" font-size="8px" fill="#000000" x="67.14920899275579" y="3" font-family="sans-serif">ACTED_IN</text></g><g class="relationship" transform="translate(-165.94819152158829 12.411348420833633) rotate(343.8420867670868)"><path class="outline" fill="#A5ABB6" stroke="none" d="M 25 0.5 L 42.39648727041933 0.5 L 42.39648727041933 -0.5 L 25 -0.5 Z M 87.95898727041933 0.5 L 105.35547454083866 0.5 L 105.35547454083866 3.5 L 112.35547454083866 0 L 105.35547454083866 -3.5 L 105.35547454083866 -0.5 L 87.95898727041933 -0.5 Z"/><text text-anchor="middle" pointer-events="none" font-size="8px" fill="#000000" x="65.17773727041933" y="3" font-family="sans-serif">ACTED_IN</text></g><g class="relationship" transform="translate(-165.94819152158829 12.411348420833633) rotate(412.6005634064023)"><path class="outline" fill="#A5ABB6" stroke="none" d="M 25 0.5 L 74.76450514433712 0.5 L 74.76450514433712 -0.5 L 25 -0.5 Z M 120.32700514433712 0.5 L 170.09151028867424 0.5 L 170.09151028867424 3.5 L 177.09151028867424 0 L 170.09151028867424 -3.5 L 170.09151028867424 -0.5 L 120.32700514433712 -0.5 Z"/><text text-anchor="middle" pointer-events="none" font-size="8px" fill="#000000" x="97.54575514433712" y="3" font-family="sans-serif">ACTED_IN</text></g><g class="relationship" transform="translate(83.24143953608133 124.05892709869944) rotate(202.53629988527524)"><path class="outline" fill="#A5ABB6" stroke="none" d="M 25 0.5 L 39.648099948782075 0.5 L 39.648099948782075 -0.5 L 25 -0.5 Z M 85.21059994878208 0.5 L 99.85869989756415 0.5 L 99.85869989756415 3.5 L 106.85869989756415 0 L 99.85869989756415 -3.5 L 99.85869989756415 -0.5 L 85.21059994878208 -0.5 Z"/><text text-anchor="middle" pointer-events="none" font-size="8px" fill="#000000" x="62.429349948782075" y="3" transform="rotate(180 62.429349948782075 0)" font-family="sans-serif">ACTED_IN</text></g><g class="relationship" transform="translate(83.24143953608133 124.05892709869944) rotate(231.96028947484035)"><path class="outline" fill="#A5ABB6" stroke="none" d="M 25 0.5 L 68.86521163988786 0.5 L 68.86521163988786 -0.5 L 25 -0.5 Z M 114.42771163988786 0.5 L 158.29292327977572 0.5 L 158.29292327977572 3.5 L 165.29292327977572 0 L 158.29292327977572 -3.5 L 158.29292327977572 -0.5 L 114.42771163988786 -0.5 Z"/><text text-anchor="middle" pointer-events="none" font-size="8px" fill="#000000" x="91.64646163988786" y="3" transform="rotate(180 91.64646163988786 0)" font-family="sans-serif">ACTED_IN</text></g><g class="relationship" transform="translate(83.24143953608133 124.05892709869944) rotate(518.8579133805756)"><path class="outline" fill="#A5ABB6" stroke="none" d="M 25 0.5 L 41.50433000620595 0.5 L 41.50433000620595 -0.5 L 25 -0.5 Z M 87.06683000620595 0.5 L 103.5711600124119 0.5 L 103.5711600124119 3.5 L 110.5711600124119 0 L 103.5711600124119 -3.5 L 103.5711600124119 -0.5 L 87.06683000620595 -0.5 Z"/><text text-anchor="middle" pointer-events="none" font-size="8px" fill="#000000" x="64.28558000620595" y="3" transform="rotate(180 64.28558000620595 0)" font-family="sans-serif">ACTED_IN</text></g><g class="relationship" transform="translate(-171.63130671567947 111.67351597996064) rotate(344.0036164130223)"><path class="outline" fill="#A5ABB6" stroke="none" d="M 25 0.5 L 42.94067886799756 0.5 L 42.94067886799756 -0.5 L 25 -0.5 Z M 88.50317886799756 0.5 L 106.44385773599512 0.5 L 106.44385773599512 3.5 L 113.44385773599512 0 L 106.44385773599512 -3.5 L 106.44385773599512 -0.5 L 88.50317886799756 -0.5 Z"/><text text-anchor="middle" pointer-events="none" font-size="8px" fill="#000000" x="65.72192886799756" y="3" font-family="sans-serif">ACTED_IN</text></g><g class="relationship" transform="translate(-171.63130671567947 111.67351597996064) rotate(315.0263671731392)"><path class="outline" fill="#A5ABB6" stroke="none" d="M 25 0.5 L 70.98096132217422 0.5 L 70.98096132217422 -0.5 L 25 -0.5 Z M 116.54346132217422 0.5 L 162.52442264434845 0.5 L 162.52442264434845 3.5 L 169.52442264434845 0 L 162.52442264434845 -3.5 L 162.52442264434845 -0.5 L 116.54346132217422 -0.5 Z"/><text text-anchor="middle" pointer-events="none" font-size="8px" fill="#000000" x="93.76221132217422" y="3" font-family="sans-serif">ACTED_IN</text></g><g class="relationship" transform="translate(-171.63130671567947 111.67351597996064) rotate(385.5097888174898)"><path class="outline" fill="#A5ABB6" stroke="none" d="M 25 0.5 L 44.868539237834 0.5 L 44.868539237834 -0.5 L 25 -0.5 Z M 90.431039237834 0.5 L 110.299578475668 0.5 L 110.299578475668 3.5 L 117.299578475668 0 L 110.299578475668 -3.5 L 110.299578475668 -0.5 L 90.431039237834 -0.5 Z"/><text text-anchor="middle" pointer-events="none" font-size="8px" fill="#000000" x="67.649789237834" y="3" font-family="sans-serif">ACTED_IN</text></g><g class="relationship" transform="translate(107.965153778026 27.555468291125347) rotate(395.2533015125947)"><path class="outline" fill="#A5ABB6" stroke="none" d="M 25 0.5 L 48.475355877975076 0.5 L 48.475355877975076 -0.5 L 25 -0.5 Z M 94.03785587797508 0.5 L 117.51321175595015 0.5 L 117.51321175595015 3.5 L 124.51321175595015 0 L 117.51321175595015 -3.5 L 117.51321175595015 -0.5 L 94.03785587797508 -0.5 Z"/><text text-anchor="middle" pointer-events="none" font-size="8px" fill="#000000" x="71.25660587797508" y="3" font-family="sans-serif">ACTED_IN</text></g><g class="relationship" transform="translate(107.965153778026 27.555468291125347) rotate(344.567634586469)"><path class="outline" fill="#A5ABB6" stroke="none" d="M 25 0.5 L 48.77369398688555 0.5 L 48.77369398688555 -0.5 L 25 -0.5 Z M 94.33619398688555 0.5 L 118.1098879737711 0.5 L 118.1098879737711 3.5 L 125.1098879737711 0 L 118.1098879737711 -3.5 L 118.1098879737711 -0.5 L 94.33619398688555 -0.5 Z"/><text text-anchor="middle" pointer-events="none" font-size="8px" fill="#000000" x="71.55494398688555" y="3" font-family="sans-serif">ACTED_IN</text></g><g class="relationship" transform="translate(107.965153778026 27.555468291125347) rotate(265.2781008176862)"><path class="outline" fill="#A5ABB6" stroke="none" d="M 25 0.5 L 49.39705013623106 0.5 L 49.39705013623106 -0.5 L 25 -0.5 Z M 94.95955013623106 0.5 L 119.35660027246212 0.5 L 119.35660027246212 3.5 L 126.35660027246212 0 L 119.35660027246212 -3.5 L 119.35660027246212 -0.5 L 94.95955013623106 -0.5 Z"/><text text-anchor="middle" pointer-events="none" font-size="8px" fill="#000000" x="72.17830013623106" y="3" transform="rotate(180 72.17830013623106 0)" font-family="sans-serif">ACTED_IN</text></g><g class="relationship" transform="translate(107.965153778026 27.555468291125347) rotate(304.14294398271693)"><path class="outline" fill="#A5ABB6" stroke="none" d="M 25 0.5 L 49.20855770480608 0.5 L 49.20855770480608 -0.5 L 25 -0.5 Z M 94.77105770480608 0.5 L 118.97961540961217 0.5 L 118.97961540961217 3.5 L 125.97961540961217 0 L 118.97961540961217 -3.5 L 118.97961540961217 -0.5 L 94.77105770480608 -0.5 Z"/><text text-anchor="middle" pointer-events="none" font-size="8px" fill="#000000" x="71.98980770480608" y="3" font-family="sans-serif">ACTED_IN</text></g><g class="relationship" transform="translate(107.965153778026 27.555468291125347) rotate(522.5816020514221)"><path class="outline" fill="#A5ABB6" stroke="none" d="M 25 0.5 L 50.496068398249236 0.5 L 50.496068398249236 -0.5 L 25 -0.5 Z M 96.05856839824924 0.5 L 121.55463679649847 0.5 L 121.55463679649847 3.5 L 128.55463679649847 0 L 121.55463679649847 -3.5 L 121.55463679649847 -0.5 L 96.05856839824924 -0.5 Z"/><text text-anchor="middle" pointer-events="none" font-size="8px" fill="#000000" x="73.27731839824924" y="3" transform="rotate(180 73.27731839824924 0)" font-family="sans-serif">ACTED_IN</text></g><g class="relationship" transform="translate(107.965153778026 27.555468291125347) rotate(200.60001272026352)"><path class="outline" fill="#A5ABB6" stroke="none" d="M 25 0.5 L 49.55989239520619 0.5 L 49.55989239520619 -0.5 L 25 -0.5 Z M 95.12239239520619 0.5 L 119.68228479041238 0.5 L 119.68228479041238 3.5 L 126.68228479041238 0 L 119.68228479041238 -3.5 L 119.68228479041238 -0.5 L 95.12239239520619 -0.5 Z"/><text text-anchor="middle" pointer-events="none" font-size="8px" fill="#000000" x="72.34114239520619" y="3" transform="rotate(180 72.34114239520619 0)" font-family="sans-serif">ACTED_IN</text></g><g class="relationship" transform="translate(107.965153778026 27.555468291125347) rotate(496.114181394718)"><path class="outline" fill="#A5ABB6" stroke="none" d="M 25 0.5 L 78.59224718460344 0.5 L 78.59224718460344 -0.5 L 25 -0.5 Z M 124.15474718460344 0.5 L 177.74699436920687 0.5 L 177.74699436920687 3.5 L 184.74699436920687 0 L 177.74699436920687 -3.5 L 177.74699436920687 -0.5 L 124.15474718460344 -0.5 Z"/><text text-anchor="middle" pointer-events="none" font-size="8px" fill="#000000" x="101.37349718460344" y="3" transform="rotate(180 101.37349718460344 0)" font-family="sans-serif">ACTED_IN</text></g></g><g class="layer nodes"><g class="node" aria-label="graph-node0" transform="translate(-43.204269446214255,172.9570058654118)"><circle class="outline" cx="0" cy="0" r="25" fill="#F79767" stroke="#f36924" stroke-width="2px"/><text class="caption" text-anchor="middle" pointer-events="none" x="0" y="0" font-size="10px" fill="#FFFFFF" font-family="sans-serif"> The</text><text class="caption" text-anchor="middle" pointer-events="none" x="0" y="10" font-size="10px" fill="#FFFFFF" font-family="sans-serif"> Matrix</text></g><g class="node" aria-label="graph-node8" transform="translate(-71.48622871717694,316.27829121284105)"><circle class="outline" cx="0" cy="0" r="25" fill="#C990C0" stroke="#b261a5" stroke-width="2px"/><text class="caption" text-anchor="middle" pointer-events="none" x="0" y="0" font-size="10px" fill="#FFFFFF" font-family="sans-serif"> Emil</text><text class="caption" text-anchor="middle" pointer-events="none" x="0" y="10" font-size="10px" fill="#FFFFFF" font-family="sans-serif"> Eifrem</text></g><g class="node" aria-label="graph-node4" transform="translate(-165.94819152158829,12.411348420833633)"><circle class="outline" cx="0" cy="0" r="25" fill="#C990C0" stroke="#b261a5" stroke-width="2px"/><text class="caption" text-anchor="middle" pointer-events="none" x="0" y="0" font-size="10px" fill="#FFFFFF" font-family="sans-serif"> Hugo</text><text class="caption" text-anchor="middle" pointer-events="none" x="0" y="10" font-size="10px" fill="#FFFFFF" font-family="sans-serif"> Weavi…</text></g><g class="node" aria-label="graph-node3" transform="translate(83.24143953608133,124.05892709869944)"><circle class="outline" cx="0" cy="0" r="25" fill="#C990C0" stroke="#b261a5" stroke-width="2px"/><text class="caption" text-anchor="middle" pointer-events="none" x="0" y="0" font-size="10px" fill="#FFFFFF" font-family="sans-serif"> Laurence</text><text class="caption" text-anchor="middle" pointer-events="none" x="0" y="10" font-size="10px" fill="#FFFFFF" font-family="sans-serif"> Fishb…</text></g><g class="node" aria-label="graph-node2" transform="translate(-171.63130671567947,111.67351597996064)"><circle class="outline" cx="0" cy="0" r="25" fill="#C990C0" stroke="#b261a5" stroke-width="2px"/><text class="caption" text-anchor="middle" pointer-events="none" x="0" y="5" font-size="10px" fill="#FFFFFF" font-family="sans-serif"> Carrie-A…</text></g><g class="node" aria-label="graph-node1" transform="translate(107.965153778026,27.555468291125347)"><circle class="outline" cx="0" cy="0" r="25" fill="#C990C0" stroke="#b261a5" stroke-width="2px"/><text class="caption" text-anchor="middle" pointer-events="none" x="0" y="0" font-size="10px" fill="#FFFFFF" font-family="sans-serif"> Keanu</text><text class="caption" text-anchor="middle" pointer-events="none" x="0" y="10" font-size="10px" fill="#FFFFFF" font-family="sans-serif"> Reeves</text></g><g class="node" aria-label="graph-node9" transform="translate(-34.01848345442312,-25.812708345181573)"><circle class="outline" cx="0" cy="0" r="25" fill="#F79767" stroke="#f36924" stroke-width="2px"/><text class="caption" text-anchor="middle" pointer-events="none" x="0" y="-5" font-size="10px" fill="#FFFFFF" font-family="sans-serif"> The</text><text class="caption" text-anchor="middle" pointer-events="none" x="0" y="5" font-size="10px" fill="#FFFFFF" font-family="sans-serif"> Matrix</text><text class="caption" text-anchor="middle" pointer-events="none" x="0" y="15" font-size="10px" fill="#FFFFFF" font-family="sans-serif"> Rel…</text></g><g class="node" aria-label="graph-node10" transform="translate(-38.54812088748656,73.5216170148615)"><circle class="outline" cx="0" cy="0" r="25" fill="#F79767" stroke="#f36924" stroke-width="2px"/><text class="caption" text-anchor="middle" pointer-events="none" x="0" y="-5" font-size="10px" fill="#FFFFFF" font-family="sans-serif"> The</text><text class="caption" text-anchor="middle" pointer-events="none" x="0" y="5" font-size="10px" fill="#FFFFFF" font-family="sans-serif"> Matrix</text><text class="caption" text-anchor="middle" pointer-events="none" x="0" y="15" font-size="10px" fill="#FFFFFF" font-family="sans-serif"> Rev…</text></g><g class="node" aria-label="graph-node11" transform="translate(192.70389417632035,-97.40128480747626)"><circle class="outline" cx="0" cy="0" r="25" fill="#F79767" stroke="#f36924" stroke-width="2px"/><text class="caption" text-anchor="middle" pointer-events="none" x="0" y="-5" font-size="10px" fill="#FFFFFF" font-family="sans-serif"> The</text><text class="caption" text-anchor="middle" pointer-events="none" x="0" y="5" font-size="10px" fill="#FFFFFF" font-family="sans-serif"> Devil's</text><text class="caption" text-anchor="middle" pointer-events="none" x="0" y="15" font-size="10px" fill="#FFFFFF" font-family="sans-serif"> Adv…</text></g><g class="node" aria-label="graph-node87" transform="translate(252.66286610950726,-12.3888744063582)"><circle class="outline" cx="0" cy="0" r="25" fill="#F79767" stroke="#f36924" stroke-width="2px"/><text class="caption" text-anchor="middle" pointer-events="none" x="0" y="0" font-size="10px" fill="#FFFFFF" font-family="sans-serif"> The</text><text class="caption" text-anchor="middle" pointer-events="none" x="0" y="10" font-size="10px" fill="#FFFFFF" font-family="sans-serif"> Repla…</text></g><g class="node" aria-label="graph-node100" transform="translate(95.50556468103932,-123.28742708539589)"><circle class="outline" cx="0" cy="0" r="25" fill="#F79767" stroke="#f36924" stroke-width="2px"/><text class="caption" text-anchor="middle" pointer-events="none" x="0" y="0" font-size="10px" fill="#FFFFFF" font-family="sans-serif"> Johnny</text><text class="caption" text-anchor="middle" pointer-events="none" x="0" y="10" font-size="10px" fill="#FFFFFF" font-family="sans-serif"> Mnem…</text></g><g class="node" aria-label="graph-node105" transform="translate(-306.71092956129877,-31.834878129567464)"><circle class="outline" cx="0" cy="0" r="25" fill="#F79767" stroke="#f36924" stroke-width="2px"/><text class="caption" text-anchor="middle" pointer-events="none" x="0" y="0" font-size="10px" fill="#FFFFFF" font-family="sans-serif"> Cloud</text><text class="caption" text-anchor="middle" pointer-events="none" x="0" y="10" font-size="10px" fill="#FFFFFF" font-family="sans-serif"> Atlas</text></g><g class="node" aria-label="graph-node116" transform="translate(-206.22992975392012,-131.61299675009332)"><circle class="outline" cx="0" cy="0" r="25" fill="#F79767" stroke="#f36924" stroke-width="2px"/><text class="caption" text-anchor="middle" pointer-events="none" x="0" y="0" font-size="10px" fill="#FFFFFF" font-family="sans-serif"> V for</text><text class="caption" text-anchor="middle" pointer-events="none" x="0" y="10" font-size="10px" fill="#FFFFFF" font-family="sans-serif"> Vende…</text></g><g class="node" aria-label="graph-node154" transform="translate(230.05888306778354,113.85333476358798)"><circle class="outline" cx="0" cy="0" r="25" fill="#F79767" stroke="#f36924" stroke-width="2px"/><text class="caption" text-anchor="middle" pointer-events="none" x="0" y="5" font-size="10px" fill="#FFFFFF" font-family="sans-serif"> Somethi…</text></g></g></svg>