<svg xmlns="http://www.w3.org/2000/svg" width="911.8252563476562" height="936.5491333007812" viewBox="-429.58050537109375 -453.96978759765625 911.8252563476562 936.5491333007812"><title>Neo4j Graph Visualization</title><desc>Created using Neo4j (http://www.neo4j.com/)</desc><g class="layer relationships"><g class="relationship" transform="translate(-17.90684548136987 453.5793762773463) rotate(349.12941635549)"><path class="outline" fill="#A5ABB6" stroke="none" d="M 25 0.5 L 45.447384390905356 0.5 L 45.447384390905356 -0.5 L 25 -0.5 Z M 91.00988439090536 0.5 L 111.45726878181071 0.5 L 111.45726878181071 3.5 L 118.45726878181071 0 L 111.45726878181071 -3.5 L 111.45726878181071 -0.5 L 91.00988439090536 -0.5 Z"/><text text-anchor="middle" pointer-events="none" font-size="8px" fill="#000000" x="68.22863439090536" y="3" font-family="sans-serif">ACTED_IN</text></g><g class="relationship" transform="translate(103.45219569889426 284.0188292602029) rotate(442.19876793809897)"><path class="outline" fill="#A5ABB6" stroke="none" d="M 25 0.5 L 45.637240613622396 0.5 L 45.637240613622396 -0.5 L 25 -0.5 Z M 91.1997406136224 0.5 L 111.83698122724479 0.5 L 111.83698122724479 3.5 L 118.83698122724479 0 L 111.83698122724479 -3.5 L 111.83698122724479 -0.5 L 91.1997406136224 -0.5 Z"/><text text-anchor="middle" pointer-events="none" font-size="8px" fill="#000000" x="68.4184906136224" y="3" font-family="sans-serif">ACTED_IN</text></g><g class="relationship" transform="translate(246.46816521344178 354.08528285618246) rotate(509.60449180899957)"><path class="outline" fill="#A5ABB6" stroke="none" d="M 25 0.5 L 45.30388070751633 0.5 L 45.30388070751633 -0.5 L 25 -0.5 Z M 90.86638070751633 0.5 L 111.17026141503266 0.5 L 111.17026141503266 3.5 L 118.17026141503266 0 L 111.17026141503266 -3.5 L 111.17026141503266 -0.5 L 90.86638070751633 -0.5 Z"/><text text-anchor="middle" pointer-events="none" font-size="8px" fill="#000000" x="68.08513070751633" y="3" transform="rotate(180 68.08513070751633 0)" font-family="sans-serif">ACTED_IN</text></g><g class="relationship" transform="translate(453.2448126838471 112.35749595251708) rotate(258.5146041232515)"><path class="outline" fill="#A5ABB6" stroke="none" d="M 25 0.5 L 45.815552017016685 0.5 L 45.815552017016685 -0.5 L 25 -0.5 Z M 91.37805201701669 0.5 L 112.19360403403337 0.5 L 112.19360403403337 3.5 L 119.19360403403337 0 L 112.19360403403337 -3.5 L 112.19360403403337 -0.5 L 91.37805201701669 -0.5 Z"/><text text-anchor="middle" pointer-events="none" font-size="8px" fill="#000000" x="68.59680201701669" y="3" transform="rotate(180 68.59680201701669 0)" font-family="sans-serif">ACTED_IN</text></g><g class="relationship" transform="translate(425.7396684085103 -172.96888408579085) rotate(450.47994081603076)"><path class="outline" fill="#A5ABB6" stroke="none" d="M 25 0.5 L 45.73136758120182 0.5 L 45.73136758120182 -0.5 L 25 -0.5 Z M 91.29386758120182 0.5 L 112.02523516240365 0.5 L 112.02523516240365 3.5 L 119.02523516240365 0 L 112.02523516240365 -3.5 L 112.02523516240365 -0.5 L 91.29386758120182 -0.5 Z"/><text text-anchor="middle" pointer-events="none" font-size="8px" fill="#000000" x="68.51261758120182" y="3" transform="rotate(180 68.51261758120182 0)" font-family="sans-serif">ACTED_IN</text></g><g class="relationship" transform="translate(310.30141781569273 60.935117045419965) rotate(321.8024062202718)"><path class="outline" fill="#A5ABB6" stroke="none" d="M 25 0.5 L 46.396139848479294 0.5 L 46.396139848479294 -0.5 L 25 -0.5 Z M 91.9586398484793 0.5 L 113.35477969695859 0.5 L 113.35477969695859 3.5 L 120.35477969695859 0 L 113.35477969695859 -3.5 L 113.35477969695859 -0.5 L 91.9586398484793 -0.5 Z"/><text text-anchor="middle" pointer-events="none" font-size="8px" fill="#000000" x="69.1773898484793" y="3" font-family="sans-serif">ACTED_IN</text></g><g class="relationship" transform="translate(290.7603043676111 -85.13665589359681) rotate(382.7836136245692)"><path class="outline" fill="#A5ABB6" stroke="none" d="M 25 0.5 L 46.265780809122646 0.5 L 46.265780809122646 -0.5 L 25 -0.5 Z M 91.82828080912265 0.5 L 113.09406161824529 0.5 L 113.09406161824529 3.5 L 120.09406161824529 0 L 113.09406161824529 -3.5 L 113.09406161824529 -0.5 L 91.82828080912265 -0.5 Z"/><text text-anchor="middle" pointer-events="none" font-size="8px" fill="#000000" x="69.04703080912265" y="3" font-family="sans-serif">ACTED_IN</text></g><g class="relationship" transform="translate(39.73340267636746 -219.92355516632176) rotate(224.8813027703889)"><path class="outline" fill="#A5ABB6" stroke="none" d="M 25 0.5 L 27.617261502588548 0.5 L 27.617261502588548 -0.5 L 25 -0.5 Z M 57.61726150258855 0.5 L 60.234523005177095 0.5 L 60.234523005177095 3.5 L 67.2345230051771 0 L 60.234523005177095 -3.5 L 60.234523005177095 -0.5 L 57.61726150258855 -0.5 Z"/><text text-anchor="middle" pointer-events="none" font-size="8px" fill="#000000" x="42.61726150258855" y="3" transform="rotate(180 42.61726150258855 0)" font-family="sans-serif">ACT…</text></g><g class="relationship" transform="translate(39.73340267636746 -219.92355516632176) rotate(193.91446230301932)"><path class="outline" fill="#A5ABB6" stroke="none" d="M 25 0.5 L 127.37658175995091 0.5 L 127.37658175995091 -0.5 L 25 -0.5 Z M 172.9390817599509 0.5 L 275.3156635199018 0.5 L 275.3156635199018 3.5 L 282.3156635199018 0 L 275.3156635199018 -3.5 L 275.3156635199018 -0.5 L 172.9390817599509 -0.5 Z"/><text text-anchor="middle" pointer-events="none" font-size="8px" fill="#000000" x="150.1578317599509" y="3" transform="rotate(180 150.1578317599509 0)" font-family="sans-serif">ACTED_IN</text></g><g class="relationship" transform="translate(39.73340267636746 -219.92355516632176) rotate(276.18887936283915)"><path class="outline" fill="#A5ABB6" stroke="none" d="M 25 0.5 L 53.61575639723851 0.5 L 53.61575639723851 -0.5 L 25 -0.5 Z M 99.17825639723851 0.5 L 127.79401279447703 0.5 L 127.79401279447703 3.5 L 134.79401279447703 0 L 127.79401279447703 -3.5 L 127.79401279447703 -0.5 L 99.17825639723851 -0.5 Z"/><text text-anchor="middle" pointer-events="none" font-size="8px" fill="#000000" x="76.39700639723851" y="3" font-family="sans-serif">ACTED_IN</text></g><g class="relationship" transform="translate(-177.9418654264112 -421.7445175530357) rotate(401.9139726552655)"><path class="outline" fill="#A5ABB6" stroke="none" d="M 25 0.5 L 76.06432069228806 0.5 L 76.06432069228806 -0.5 L 25 -0.5 Z M 121.62682069228806 0.5 L 172.69114138457613 0.5 L 172.69114138457613 3.5 L 179.69114138457613 0 L 172.69114138457613 -3.5 L 172.69114138457613 -0.5 L 121.62682069228806 -0.5 Z"/><text text-anchor="middle" pointer-events="none" font-size="8px" fill="#000000" x="98.84557069228806" y="3" font-family="sans-serif">ACTED_IN</text></g><g class="relationship" transform="translate(-177.9418654264112 -421.7445175530357) rotate(482.2215004541958)"><path class="outline" fill="#A5ABB6" stroke="none" d="M 25 0.5 L 49.32209625326014 0.5 L 49.32209625326014 -0.5 L 25 -0.5 Z M 94.88459625326014 0.5 L 119.20669250652028 0.5 L 119.20669250652028 3.5 L 126.20669250652028 0 L 119.20669250652028 -3.5 L 119.20669250652028 -0.5 L 94.88459625326014 -0.5 Z"/><text text-anchor="middle" pointer-events="none" font-size="8px" fill="#000000" x="72.10334625326014" y="3" transform="rotate(180 72.10334625326014 0)" font-family="sans-serif">ACTED_IN</text></g><g class="relationship" transform="translate(-177.9418654264112 -421.7445175530357) rotate(370.36357308282743)"><path class="outline" fill="#A5ABB6" stroke="none" d="M 25 0.5 L 93.11766144908272 0.5 L 93.11766144908272 -0.5 L 25 -0.5 Z M 138.68016144908273 0.5 L 206.79782289816544 0.5 L 206.79782289816544 3.5 L 213.79782289816544 0 L 206.79782289816544 -3.5 L 206.79782289816544 -0.5 L 138.68016144908273 -0.5 Z"/><text text-anchor="middle" pointer-events="none" font-size="8px" fill="#000000" x="115.89891144908272" y="3" font-family="sans-serif">ACTED_IN</text></g><g class="relationship" transform="translate(-143.38100612619718 -328.1377820670649) rotate(380.11538687606753)"><path class="outline" fill="#A5ABB6" stroke="none" d="M 25 0.5 L 36.4235091140481 0.5 L 36.4235091140481 -0.5 L 25 -0.5 Z M 81.9860091140481 0.5 L 93.4095182280962 0.5 L 93.4095182280962 3.5 L 100.4095182280962 0 L 93.4095182280962 -3.5 L 93.4095182280962 -0.5 L 81.9860091140481 -0.5 Z"/><text text-anchor="middle" pointer-events="none" font-size="8px" fill="#000000" x="59.2047591140481" y="3" font-family="sans-serif">ACTED_IN</text></g><g class="relationship" transform="translate(-143.38100612619718 -328.1377820670649) rotate(523.4112165579353)"><path class="outline" fill="#A5ABB6" stroke="none" d="M 25 0.5 L 33.811567447488756 0.5 L 33.811567447488756 -0.5 L 25 -0.5 Z M 79.37406744748876 0.5 L 88.18563489497751 0.5 L 88.18563489497751 3.5 L 95.18563489497751 0 L 88.18563489497751 -3.5 L 88.18563489497751 -0.5 L 79.37406744748876 -0.5 Z"/><text text-anchor="middle" pointer-events="none" font-size="8px" fill="#000000" x="56.592817447488756" y="3" transform="rotate(180 56.592817447488756 0)" font-family="sans-serif">ACTED_IN</text></g><g class="relationship" transform="translate(-143.38100612619718 -328.1377820670649) rotate(345.81226569441935)"><path class="outline" fill="#A5ABB6" stroke="none" d="M 25 0.5 L 77.04091167769872 0.5 L 77.04091167769872 -0.5 L 25 -0.5 Z M 122.60341167769872 0.5 L 174.64432335539743 0.5 L 174.64432335539743 3.5 L 181.64432335539743 0 L 174.64432335539743 -3.5 L 174.64432335539743 -0.5 L 122.60341167769872 -0.5 Z"/><text text-anchor="middle" pointer-events="none" font-size="8px" fill="#000000" x="99.82216167769872" y="3" font-family="sans-serif">ACTED_IN</text></g><g class="relationship" transform="translate(164.39860834689972 -424.9697844848519) rotate(516.7390449480857)"><path class="outline" fill="#A5ABB6" stroke="none" d="M 25 0.5 L 32.1908033212342 0.5 L 32.1908033212342 -0.5 L 25 -0.5 Z M 77.7533033212342 0.5 L 84.9441066424684 0.5 L 84.9441066424684 3.5 L 91.9441066424684 0 L 84.9441066424684 -3.5 L 84.9441066424684 -0.5 L 77.7533033212342 -0.5 Z"/><text text-anchor="middle" pointer-events="none" font-size="8px" fill="#000000" x="54.9720533212342" y="3" transform="rotate(180 54.9720533212342 0)" font-family="sans-serif">ACTED_IN</text></g><g class="relationship" transform="translate(-314.75922665765415 -5.94557004806131) rotate(428.42275191649395)"><path class="outline" fill="#A5ABB6" stroke="none" d="M 25 0.5 L 46.89923492470493 0.5 L 46.89923492470493 -0.5 L 25 -0.5 Z M 92.46173492470493 0.5 L 114.36096984940986 0.5 L 114.36096984940986 3.5 L 121.36096984940986 0 L 114.36096984940986 -3.5 L 114.36096984940986 -0.5 L 92.46173492470493 -0.5 Z"/><text text-anchor="middle" pointer-events="none" font-size="8px" fill="#000000" x="69.68048492470493" y="3" font-family="sans-serif">ACTED_IN</text></g><g class="relationship" transform="translate(-163.8992553443676 21.669367651509607) rotate(491.81003511991713)"><path class="outline" fill="#A5ABB6" stroke="none" d="M 25 0.5 L 46.49535756082692 0.5 L 46.49535756082692 -0.5 L 25 -0.5 Z M 92.05785756082692 0.5 L 113.55321512165384 0.5 L 113.55321512165384 3.5 L 120.55321512165384 0 L 113.55321512165384 -3.5 L 113.55321512165384 -0.5 L 92.05785756082692 -0.5 Z"/><text text-anchor="middle" pointer-events="none" font-size="8px" fill="#000000" x="69.27660756082692" y="3" transform="rotate(180 69.27660756082692 0)" font-family="sans-serif">ACTED_IN</text></g><g class="relationship" transform="translate(-400.5804973206477 87.15878234823322) rotate(377.1146956068566)"><path class="outline" fill="#A5ABB6" stroke="none" d="M 25 0.5 L 46.77709901540992 0.5 L 46.77709901540992 -0.5 L 25 -0.5 Z M 92.33959901540992 0.5 L 114.11669803081983 0.5 L 114.11669803081983 3.5 L 121.11669803081983 0 L 114.11669803081983 -3.5 L 114.11669803081983 -0.5 L 92.33959901540992 -0.5 Z"/><text text-anchor="middle" pointer-events="none" font-size="8px" fill="#000000" x="69.55834901540992" y="3" font-family="sans-serif">ACTED_IN</text></g><g class="relationship" transform="translate(-220.05787032660305 270.14764272607454) rotate(253.7223499687035)"><path class="outline" fill="#A5ABB6" stroke="none" d="M 25 0.5 L 46.636083125023234 0.5 L 46.636083125023234 -0.5 L 25 -0.5 Z M 92.19858312502323 0.5 L 113.83466625004647 0.5 L 113.83466625004647 3.5 L 120.83466625004647 0 L 113.83466625004647 -3.5 L 113.83466625004647 -0.5 L 92.19858312502323 -0.5 Z"/><text text-anchor="middle" pointer-events="none" font-size="8px" fill="#000000" x="69.41733312502323" y="3" transform="rotate(180 69.41733312502323 0)" font-family="sans-serif">ACTED_IN</text></g><g class="relationship" transform="translate(-116.71366755099288 152.25750388204753) rotate(188.7115903099292)"><path class="outline" fill="#A5ABB6" stroke="none" d="M 25 0.5 L 46.67064382901148 0.5 L 46.67064382901148 -0.5 L 25 -0.5 Z M 92.23314382901148 0.5 L 113.90378765802296 0.5 L 113.90378765802296 3.5 L 120.90378765802296 0 L 113.90378765802296 -3.5 L 113.90378765802296 -0.5 L 92.23314382901148 -0.5 Z"/><text text-anchor="middle" pointer-events="none" font-size="8px" fill="#000000" x="69.45189382901148" y="3" transform="rotate(180 69.45189382901148 0)" font-family="sans-serif">ACTED_IN</text></g><g class="relationship" transform="translate(-363.51055424287097 232.8021292059553) rotate(314.9813011697484)"><path class="outline" fill="#A5ABB6" stroke="none" d="M 25 0.5 L 46.27486701990438 0.5 L 46.27486701990438 -0.5 L 25 -0.5 Z M 91.83736701990438 0.5 L 113.11223403980875 0.5 L 113.11223403980875 3.5 L 120.11223403980875 0 L 113.11223403980875 -3.5 L 113.11223403980875 -0.5 L 91.83736701990438 -0.5 Z"/><text text-anchor="middle" pointer-events="none" font-size="8px" fill="#000000" x="69.05611701990438" y="3" font-family="sans-serif">ACTED_IN</text></g></g><g class="layer nodes"><g class="node" aria-label="graph-node71" transform="translate(-17.90684548136987,453.5793762773463)"><circle class="outline" cx="0" cy="0" r="25" fill="#C990C0" stroke="#b261a5" stroke-width="2px"/><text class="caption" text-anchor="middle" pointer-events="none" x="0" y="0" font-size="10px" fill="#FFFFFF" font-family="sans-serif"> Tom</text><text class="caption" text-anchor="middle" pointer-events="none" x="0" y="10" font-size="10px" fill="#FFFFFF" font-family="sans-serif"> Hanks</text></g><g class="node" aria-label="graph-node105" transform="translate(122.97617832570734,426.5245879892966)"><circle class="outline" cx="0" cy="0" r="25" fill="#F79767" stroke="#f36924" stroke-width="2px"/><text class="caption" text-anchor="middle" pointer-events="none" x="0" y="0" font-size="10px" fill="#FFFFFF" font-family="sans-serif"> Cloud</text><text class="caption" text-anchor="middle" pointer-events="none" x="0" y="10" font-size="10px" fill="#FFFFFF" font-family="sans-serif"> Atlas</text></g><g class="node" aria-label="graph-node107" transform="translate(103.45219569889426,284.0188292602029)"><circle class="outline" cx="0" cy="0" r="25" fill="#C990C0" stroke="#b261a5" stroke-width="2px"/><text class="caption" text-anchor="middle" pointer-events="none" x="0" y="0" font-size="10px" fill="#FFFFFF" font-family="sans-serif"> Jim</text><text class="caption" text-anchor="middle" pointer-events="none" x="0" y="10" font-size="10px" fill="#FFFFFF" font-family="sans-serif"> Broad…</text></g><g class="node" aria-label="graph-node106" transform="translate(246.46816521344178,354.08528285618246)"><circle class="outline" cx="0" cy="0" r="25" fill="#C990C0" stroke="#b261a5" stroke-width="2px"/><text class="caption" text-anchor="middle" pointer-events="none" x="0" y="0" font-size="10px" fill="#FFFFFF" font-family="sans-serif"> Halle</text><text class="caption" text-anchor="middle" pointer-events="none" x="0" y="10" font-size="10px" fill="#FFFFFF" font-family="sans-serif"> Berry</text></g><g class="node" aria-label="graph-node119" transform="translate(453.2448126838471,112.35749595251708)"><circle class="outline" cx="0" cy="0" r="25" fill="#C990C0" stroke="#b261a5" stroke-width="2px"/><text class="caption" text-anchor="middle" pointer-events="none" x="0" y="5" font-size="10px" fill="#FFFFFF" font-family="sans-serif"> John Hurt</text></g><g class="node" aria-label="graph-node116" transform="translate(424.5332483000392,-28.948701770576616)"><circle class="outline" cx="0" cy="0" r="25" fill="#F79767" stroke="#f36924" stroke-width="2px"/><text class="caption" text-anchor="middle" pointer-events="none" x="0" y="0" font-size="10px" fill="#FFFFFF" font-family="sans-serif"> V for</text><text class="caption" text-anchor="middle" pointer-events="none" x="0" y="10" font-size="10px" fill="#FFFFFF" font-family="sans-serif"> Vende…</text></g><g class="node" aria-label="graph-node118" transform="translate(425.7396684085103,-172.96888408579085)"><circle class="outline" cx="0" cy="0" r="25" fill="#C990C0" stroke="#b261a5" stroke-width="2px"/><text class="caption" text-anchor="middle" pointer-events="none" x="0" y="0" font-size="10px" fill="#FFFFFF" font-family="sans-serif"> Stephen</text><text class="caption" text-anchor="middle" pointer-events="none" x="0" y="10" font-size="10px" fill="#FFFFFF" font-family="sans-serif"> Rea</text></g><g class="node" aria-label="graph-node117" transform="translate(310.30141781569273,60.935117045419965)"><circle class="outline" cx="0" cy="0" r="25" fill="#C990C0" stroke="#b261a5" stroke-width="2px"/><text class="caption" text-anchor="middle" pointer-events="none" x="0" y="0" font-size="10px" fill="#FFFFFF" font-family="sans-serif"> Natalie</text><text class="caption" text-anchor="middle" pointer-events="none" x="0" y="10" font-size="10px" fill="#FFFFFF" font-family="sans-serif"> Portm…</text></g><g class="node" aria-label="graph-node120" transform="translate(290.7603043676111,-85.13665589359681)"><circle class="outline" cx="0" cy="0" r="25" fill="#C990C0" stroke="#b261a5" stroke-width="2px"/><text class="caption" text-anchor="middle" pointer-events="none" x="0" y="5" font-size="10px" fill="#FFFFFF" font-family="sans-serif"> Ben Miles</text></g><g class="node" aria-label="graph-node3" transform="translate(39.73340267636746,-219.92355516632176)"><circle class="outline" cx="0" cy="0" r="25" fill="#C990C0" stroke="#b261a5" stroke-width="2px"/><text class="caption" text-anchor="middle" pointer-events="none" x="0" y="0" font-size="10px" fill="#FFFFFF" font-family="sans-serif"> Laurence</text><text class="caption" text-anchor="middle" pointer-events="none" x="0" y="10" font-size="10px" fill="#FFFFFF" font-family="sans-serif"> Fishb…</text></g><g class="node" aria-label="graph-node10" transform="translate(-25.621226738721035,-285.00795919684964)"><circle class="outline" cx="0" cy="0" r="25" fill="#F79767" stroke="#f36924" stroke-width="2px"/><text class="caption" text-anchor="middle" pointer-events="none" x="0" y="-5" font-size="10px" fill="#FFFFFF" font-family="sans-serif"> The</text><text class="caption" text-anchor="middle" pointer-events="none" x="0" y="5" font-size="10px" fill="#FFFFFF" font-family="sans-serif"> Matrix</text><text class="caption" text-anchor="middle" pointer-events="none" x="0" y="15" font-size="10px" fill="#FFFFFF" font-family="sans-serif"> Rev…</text></g><g class="node" aria-label="graph-node2" transform="translate(-177.9418654264112,-421.7445175530357)"><circle class="outline" cx="0" cy="0" r="25" fill="#C990C0" stroke="#b261a5" stroke-width="2px"/><text class="caption" text-anchor="middle" pointer-events="none" x="0" y="5" font-size="10px" fill="#FFFFFF" font-family="sans-serif"> Carrie-A…</text></g><g class="node" aria-label="graph-node1" transform="translate(-143.38100612619718,-328.1377820670649)"><circle class="outline" cx="0" cy="0" r="25" fill="#C990C0" stroke="#b261a5" stroke-width="2px"/><text class="caption" text-anchor="middle" pointer-events="none" x="0" y="0" font-size="10px" fill="#FFFFFF" font-family="sans-serif"> Keanu</text><text class="caption" text-anchor="middle" pointer-events="none" x="0" y="10" font-size="10px" fill="#FFFFFF" font-family="sans-serif"> Reeves</text></g><g class="node" aria-label="graph-node9" transform="translate(-258.56433271130237,-293.82469255449206)"><circle class="outline" cx="0" cy="0" r="25" fill="#F79767" stroke="#f36924" stroke-width="2px"/><text class="caption" text-anchor="middle" pointer-events="none" x="0" y="-5" font-size="10px" fill="#FFFFFF" font-family="sans-serif"> The</text><text class="caption" text-anchor="middle" pointer-events="none" x="0" y="5" font-size="10px" fill="#FFFFFF" font-family="sans-serif"> Matrix</text><text class="caption" text-anchor="middle" pointer-events="none" x="0" y="15" font-size="10px" fill="#FFFFFF" font-family="sans-serif"> Rel…</text></g><g class="node" aria-label="graph-node8" transform="translate(164.39860834689972,-424.9697844848519)"><circle class="outline" cx="0" cy="0" r="25" fill="#C990C0" stroke="#b261a5" stroke-width="2px"/><text class="caption" text-anchor="middle" pointer-events="none" x="0" y="0" font-size="10px" fill="#FFFFFF" font-family="sans-serif"> Emil</text><text class="caption" text-anchor="middle" pointer-events="none" x="0" y="10" font-size="10px" fill="#FFFFFF" font-family="sans-serif"> Eifrem</text></g><g class="node" aria-label="graph-node0" transform="translate(56.96021948813615,-378.7862735979766)"><circle class="outline" cx="0" cy="0" r="25" fill="#F79767" stroke="#f36924" stroke-width="2px"/><text class="caption" text-anchor="middle" pointer-events="none" x="0" y="0" font-size="10px" fill="#FFFFFF" font-family="sans-serif"> The</text><text class="caption" text-anchor="middle" pointer-events="none" x="0" y="10" font-size="10px" fill="#FFFFFF" font-family="sans-serif"> Matrix</text></g><g class="node" aria-label="graph-node175" transform="translate(-314.75922665765415,-5.94557004806131)"><circle class="outline" cx="0" cy="0" r="25" fill="#C990C0" stroke="#b261a5" stroke-width="2px"/><text class="caption" text-anchor="middle" pointer-events="none" x="0" y="0" font-size="10px" fill="#FFFFFF" font-family="sans-serif"> Sebastian</text><text class="caption" text-anchor="middle" pointer-events="none" x="0" y="10" font-size="10px" fill="#FFFFFF" font-family="sans-serif"> Stan</text></g><g class="node" aria-label="graph-node171" transform="translate(-260.9342023383033,130.15880259397082)"><circle class="outline" cx="0" cy="0" r="25" fill="#F79767" stroke="#f36924" stroke-width="2px"/><text class="caption" text-anchor="middle" pointer-events="none" x="0" y="0" font-size="10px" fill="#FFFFFF" font-family="sans-serif"> Captain</text><text class="caption" text-anchor="middle" pointer-events="none" x="0" y="10" font-size="10px" fill="#FFFFFF" font-family="sans-serif"> America</text></g><g class="node" aria-label="graph-node172" transform="translate(-163.8992553443676,21.669367651509607)"><circle class="outline" cx="0" cy="0" r="25" fill="#C990C0" stroke="#b261a5" stroke-width="2px"/><text class="caption" text-anchor="middle" pointer-events="none" x="0" y="0" font-size="10px" fill="#FFFFFF" font-family="sans-serif"> Chris</text><text class="caption" text-anchor="middle" pointer-events="none" x="0" y="10" font-size="10px" fill="#FFFFFF" font-family="sans-serif"> Evans</text></g><g class="node" aria-label="graph-node176" transform="translate(-400.5804973206477,87.15878234823322)"><circle class="outline" cx="0" cy="0" r="25" fill="#C990C0" stroke="#b261a5" stroke-width="2px"/><text class="caption" text-anchor="middle" pointer-events="none" x="0" y="0" font-size="10px" fill="#FFFFFF" font-family="sans-serif"> Tommy</text><text class="caption" text-anchor="middle" pointer-events="none" x="0" y="10" font-size="10px" fill="#FFFFFF" font-family="sans-serif"> J…</text></g><g class="node" aria-label="graph-node178" transform="translate(-220.05787032660305,270.14764272607454)"><circle class="outline" cx="0" cy="0" r="25" fill="#C990C0" stroke="#b261a5" stroke-width="2px"/><text class="caption" text-anchor="middle" pointer-events="none" x="0" y="0" font-size="10px" fill="#FFFFFF" font-family="sans-serif"> Samuel L.</text><text class="caption" text-anchor="middle" pointer-events="none" x="0" y="10" font-size="10px" fill="#FFFFFF" font-family="sans-serif"> Jackson</text></g><g class="node" aria-label="graph-node174" transform="translate(-116.71366755099288,152.25750388204753)"><circle class="outline" cx="0" cy="0" r="25" fill="#C990C0" stroke="#b261a5" stroke-width="2px"/><text class="caption" text-anchor="middle" pointer-events="none" x="0" y="0" font-size="10px" fill="#FFFFFF" font-family="sans-serif"> Hayley</text><text class="caption" text-anchor="middle" pointer-events="none" x="0" y="10" font-size="10px" fill="#FFFFFF" font-family="sans-serif"> Atwell</text></g><g class="node" aria-label="graph-node177" transform="translate(-363.51055424287097,232.8021292059553)"><circle class="outline" cx="0" cy="0" r="25" fill="#C990C0" stroke="#b261a5" stroke-width="2px"/><text class="caption" text-anchor="middle" pointer-events="none" x="0" y="0" font-size="10px" fill="#FFFFFF" font-family="sans-serif"> Stanley</text><text class="caption" text-anchor="middle" pointer-events="none" x="0" y="10" font-size="10px" fill="#FFFFFF" font-family="sans-serif"> Tucci</text></g></g></svg>