<svg xmlns="http://www.w3.org/2000/svg" width="410.3778991699219" height="244.69451904296875" viewBox="-229.44932556152344 -148.22286987304688 410.3778991699219 244.69451904296875"><title>Neo4j Graph Visualization</title><desc>Created using Neo4j (http://www.neo4j.com/)</desc><g class="layer relationships"><g class="relationship" transform="translate(151.92857776842487 -25.15470303401375) rotate(208.3915952228674)"><path class="outline" fill="#A5ABB6" stroke="none" d="M 25 0.5 L 72.63476203881238 0.5 L 72.63476203881238 -0.5 L 25 -0.5 Z M 118.19726203881238 0.5 L 165.83202407762477 0.5 L 165.83202407762477 3.5 L 172.83202407762477 0 L 165.83202407762477 -3.5 L 165.83202407762477 -0.5 L 118.19726203881238 -0.5 Z"/><text text-anchor="middle" pointer-events="none" font-size="8px" fill="#000000" x="95.41601203881238" y="3" transform="rotate(180 95.41601203881238 0)" font-family="sans-serif">ACTED_IN</text></g><g class="relationship" transform="translate(151.92857776842487 -25.15470303401375) rotate(538.4887758470213)"><path class="outline" fill="#A5ABB6" stroke="none" d="M 25 0.5 L 61.83991763237678 0.5 L 61.83991763237678 -0.5 L 25 -0.5 Z M 107.40241763237678 0.5 L 144.24233526475356 0.5 L 144.24233526475356 3.5 L 151.24233526475356 0 L 144.24233526475356 -3.5 L 144.24233526475356 -0.5 L 107.40241763237678 -0.5 Z"/><text text-anchor="middle" pointer-events="none" font-size="8px" fill="#000000" x="84.62116763237678" y="3" transform="rotate(180 84.62116763237678 0)" font-family="sans-serif">ACTED_IN</text></g><g class="relationship" transform="translate(151.92857776842487 -25.15470303401375) rotate(511.8702950667567)"><path class="outline" fill="#A5ABB6" stroke="none" d="M 25 0.5 L 71.9503730339321 0.5 L 71.9503730339321 -0.5 L 25 -0.5 Z M 117.5128730339321 0.5 L 164.4632460678642 0.5 L 164.4632460678642 3.5 L 171.4632460678642 0 L 164.4632460678642 -3.5 L 164.4632460678642 -0.5 L 117.5128730339321 -0.5 Z"/><text text-anchor="middle" pointer-events="none" font-size="8px" fill="#000000" x="94.7316230339321" y="3" transform="rotate(180 94.7316230339321 0)" font-family="sans-serif">ACTED_IN</text></g><g class="relationship" transform="translate(-200.44932649911158 -28.771217835118705) rotate(333.106674961943)"><path class="outline" fill="#A5ABB6" stroke="none" d="M 25 0.5 L 73.70271555078308 0.5 L 73.70271555078308 -0.5 L 25 -0.5 Z M 119.26521555078308 0.5 L 167.96793110156617 0.5 L 167.96793110156617 3.5 L 174.96793110156617 0 L 167.96793110156617 -3.5 L 167.96793110156617 -0.5 L 119.26521555078308 -0.5 Z"/><text text-anchor="middle" pointer-events="none" font-size="8px" fill="#000000" x="96.48396555078308" y="3" font-family="sans-serif">ACTED_IN</text></g><g class="relationship" transform="translate(-200.44932649911158 -28.771217835118705) rotate(362.6854905180899)"><path class="outline" fill="#A5ABB6" stroke="none" d="M 25 0.5 L 61.914043535490634 0.5 L 61.914043535490634 -0.5 L 25 -0.5 Z M 107.47654353549063 0.5 L 144.39058707098127 0.5 L 144.39058707098127 3.5 L 151.39058707098127 0 L 144.39058707098127 -3.5 L 144.39058707098127 -0.5 L 107.47654353549063 -0.5 Z"/><text text-anchor="middle" pointer-events="none" font-size="8px" fill="#000000" x="84.69529353549063" y="3" font-family="sans-serif">ACTED_IN</text></g><g class="relationship" transform="translate(-200.44932649911158 -28.771217835118705) rotate(388.24950737395096)"><path class="outline" fill="#A5ABB6" stroke="none" d="M 25 0.5 L 75.38832160886349 0.5 L 75.38832160886349 -0.5 L 25 -0.5 Z M 120.95082160886349 0.5 L 171.33914321772698 0.5 L 171.33914321772698 3.5 L 178.33914321772698 0 L 171.33914321772698 -3.5 L 171.33914321772698 -0.5 L 120.95082160886349 -0.5 Z"/><text text-anchor="middle" pointer-events="none" font-size="8px" fill="#000000" x="98.16957160886349" y="3" font-family="sans-serif">ACTED_IN</text></g></g><g class="layer nodes"><g class="node" aria-label="graph-node4" transform="translate(151.92857776842487,-25.15470303401375)"><circle class="outline" cx="0" cy="0" r="25" fill="#C990C0" stroke="#b261a5" stroke-width="2px"/><text class="caption" text-anchor="middle" pointer-events="none" x="0" y="0" font-size="10px" fill="#FFFFFF" font-family="sans-serif"> Hugo</text><text class="caption" text-anchor="middle" pointer-events="none" x="0" y="10" font-size="10px" fill="#FFFFFF" font-family="sans-serif"> Weavi…</text></g><g class="node" aria-label="graph-node1" transform="translate(-200.44932649911158,-28.771217835118705)"><circle class="outline" cx="0" cy="0" r="25" fill="#C990C0" stroke="#b261a5" stroke-width="2px"/><text class="caption" text-anchor="middle" pointer-events="none" x="0" y="0" font-size="10px" fill="#FFFFFF" font-family="sans-serif"> Keanu</text><text class="caption" text-anchor="middle" pointer-events="none" x="0" y="10" font-size="10px" fill="#FFFFFF" font-family="sans-serif"> Reeves</text></g><g class="node" aria-label="graph-node10" transform="translate(-22.107880708519858,-119.22287443886565)"><circle class="outline" cx="0" cy="0" r="25" fill="#F79767" stroke="#f36924" stroke-width="2px"/><text class="caption" text-anchor="middle" pointer-events="none" x="0" y="-5" font-size="10px" fill="#FFFFFF" font-family="sans-serif"> The</text><text class="caption" text-anchor="middle" pointer-events="none" x="0" y="5" font-size="10px" fill="#FFFFFF" font-family="sans-serif"> Matrix</text><text class="caption" text-anchor="middle" pointer-events="none" x="0" y="15" font-size="10px" fill="#FFFFFF" font-family="sans-serif"> Rev…</text></g><g class="node" aria-label="graph-node9" transform="translate(-24.252456494453547,-20.506702857997325)"><circle class="outline" cx="0" cy="0" r="25" fill="#F79767" stroke="#f36924" stroke-width="2px"/><text class="caption" text-anchor="middle" pointer-events="none" x="0" y="-5" font-size="10px" fill="#FFFFFF" font-family="sans-serif"> The</text><text class="caption" text-anchor="middle" pointer-events="none" x="0" y="5" font-size="10px" fill="#FFFFFF" font-family="sans-serif"> Matrix</text><text class="caption" text-anchor="middle" pointer-events="none" x="0" y="15" font-size="10px" fill="#FFFFFF" font-family="sans-serif"> Rel…</text></g><g class="node" aria-label="graph-node0" transform="translate(-21.328931026278354,67.47165769432043)"><circle class="outline" cx="0" cy="0" r="25" fill="#F79767" stroke="#f36924" stroke-width="2px"/><text class="caption" text-anchor="middle" pointer-events="none" x="0" y="0" font-size="10px" fill="#FFFFFF" font-family="sans-serif"> The</text><text class="caption" text-anchor="middle" pointer-events="none" x="0" y="10" font-size="10px" fill="#FFFFFF" font-family="sans-serif"> Matrix</text></g></g></svg>