<svg xmlns="http://www.w3.org/2000/svg" width="376.1217041015625" height="369.53350830078125" viewBox="-185.42039489746094 -182.97071838378906 376.1217041015625 369.53350830078125"><title>Neo4j Graph Visualization</title><desc>Created using Neo4j (http://www.neo4j.com/)</desc><g class="layer relationships"><g class="relationship" transform="translate(-59.23694777914651 149.02762251812078) rotate(293.0183391214259)"><path class="outline" fill="#A5ABB6" stroke="none" d="M 25 0.5 L 53.495799344090074 0.5 L 53.495799344090074 -0.5 L 25 -0.5 Z M 99.05829934409007 0.5 L 127.55409868818015 0.5 L 127.55409868818015 3.5 L 134.55409868818015 0 L 127.55409868818015 -3.5 L 127.55409868818015 -0.5 L 99.05829934409007 -0.5 Z"/><text text-anchor="middle" pointer-events="none" font-size="8px" fill="#000000" x="76.27704934409007" y="3" font-family="sans-serif">ACTED_IN</text></g><g class="relationship" transform="translate(123.04806286901838 106.32808589253837) rotate(220.98025233059747)"><path class="outline" fill="#A5ABB6" stroke="none" d="M 25 0.5 L 53.12634601126861 0.5 L 53.12634601126861 -0.5 L 25 -0.5 Z M 98.68884601126861 0.5 L 126.81519202253722 0.5 L 126.81519202253722 3.5 L 133.81519202253722 0 L 126.81519202253722 -3.5 L 126.81519202253722 -0.5 L 98.68884601126861 -0.5 Z"/><text text-anchor="middle" pointer-events="none" font-size="8px" fill="#000000" x="75.90759601126861" y="3" transform="rotate(180 75.90759601126861 0)" font-family="sans-serif">ACTED_IN</text></g><g class="relationship" transform="translate(161.7012747916297 16.05076968908656) rotate(185.00082995248408)"><path class="outline" fill="#A5ABB6" stroke="none" d="M 25 0.5 L 53.295896923953265 0.5 L 53.295896923953265 -0.5 L 25 -0.5 Z M 98.85839692395326 0.5 L 127.15429384790653 0.5 L 127.15429384790653 3.5 L 134.15429384790653 0 L 127.15429384790653 -3.5 L 127.15429384790653 -0.5 L 98.85839692395326 -0.5 Z"/><text text-anchor="middle" pointer-events="none" font-size="8px" fill="#000000" x="76.07714692395326" y="3" transform="rotate(180 76.07714692395326 0)" font-family="sans-serif">ACTED_IN</text></g><g class="relationship" transform="translate(139.54400472418374 -80.25143309891897) rotate(508.8531242149063)"><path class="outline" fill="#A5ABB6" stroke="none" d="M 25 0.5 L 53.4010053639949 0.5 L 53.4010053639949 -0.5 L 25 -0.5 Z M 98.9635053639949 0.5 L 127.3645107279898 0.5 L 127.3645107279898 3.5 L 134.3645107279898 0 L 127.3645107279898 -3.5 L 127.3645107279898 -0.5 L 98.9635053639949 -0.5 Z"/><text text-anchor="middle" pointer-events="none" font-size="8px" fill="#000000" x="76.1822553639949" y="3" transform="rotate(180 76.1822553639949 0)" font-family="sans-serif">ACTED_IN</text></g><g class="relationship" transform="translate(64.29074732086555 -144.25618080749908) rotate(472.6611936200835)"><path class="outline" fill="#A5ABB6" stroke="none" d="M 25 0.5 L 53.06073196562302 0.5 L 53.06073196562302 -0.5 L 25 -0.5 Z M 98.62323196562302 0.5 L 126.68396393124604 0.5 L 126.68396393124604 3.5 L 133.68396393124604 0 L 126.68396393124604 -3.5 L 126.68396393124604 -0.5 L 98.62323196562302 -0.5 Z"/><text text-anchor="middle" pointer-events="none" font-size="8px" fill="#000000" x="75.84198196562302" y="3" transform="rotate(180 75.84198196562302 0)" font-family="sans-serif">ACTED_IN</text></g><g class="relationship" transform="translate(-33.91372956978391 -153.97072582201085) rotate(436.6462442025554)"><path class="outline" fill="#A5ABB6" stroke="none" d="M 25 0.5 L 53.962320955141806 0.5 L 53.962320955141806 -0.5 L 25 -0.5 Z M 99.5248209551418 0.5 L 128.4871419102836 0.5 L 128.4871419102836 3.5 L 135.4871419102836 0 L 128.4871419102836 -3.5 L 128.4871419102836 -0.5 L 99.5248209551418 -0.5 Z"/><text text-anchor="middle" pointer-events="none" font-size="8px" fill="#000000" x="76.7435709551418" y="3" font-family="sans-serif">ACTED_IN</text></g><g class="relationship" transform="translate(-118.22330882983375 -102.59432059062766) rotate(400.80068325087393)"><path class="outline" fill="#A5ABB6" stroke="none" d="M 25 0.5 L 53.88926719312926 0.5 L 53.88926719312926 -0.5 L 25 -0.5 Z M 99.45176719312926 0.5 L 128.3410343862585 0.5 L 128.3410343862585 3.5 L 135.3410343862585 0 L 128.3410343862585 -3.5 L 128.3410343862585 -0.5 L 99.45176719312926 -0.5 Z"/><text text-anchor="middle" pointer-events="none" font-size="8px" fill="#000000" x="76.67051719312926" y="3" font-family="sans-serif">ACTED_IN</text></g><g class="relationship" transform="translate(-156.42039893860806 -11.541989365240461) rotate(364.91390137047085)"><path class="outline" fill="#A5ABB6" stroke="none" d="M 25 0.5 L 58.69422081459071 0.5 L 58.69422081459071 -0.5 L 25 -0.5 Z M 94.46765831459071 0.5 L 128.16187912918141 0.5 L 128.16187912918141 3.5 L 135.16187912918141 0 L 128.16187912918141 -3.5 L 128.16187912918141 -0.5 L 94.46765831459071 -0.5 Z"/><text text-anchor="middle" pointer-events="none" font-size="8px" fill="#000000" x="76.58093956459071" y="3" font-family="sans-serif">WROTE</text></g><g class="relationship" transform="translate(-133.80211774743833 85.26836034218016) rotate(328.75464587613317)"><path class="outline" fill="#A5ABB6" stroke="none" d="M 25 0.5 L 58.708198932488955 0.5 L 58.708198932488955 -0.5 L 25 -0.5 Z M 94.48163643248895 0.5 L 128.1898353649779 0.5 L 128.1898353649779 3.5 L 135.1898353649779 0 L 128.1898353649779 -3.5 L 128.1898353649779 -0.5 L 94.48163643248895 -0.5 Z"/><text text-anchor="middle" pointer-events="none" font-size="8px" fill="#000000" x="76.59491768248895" y="3" font-family="sans-serif">WROTE</text></g><g class="relationship" transform="translate(38.54327482699076 157.56278107012318) rotate(257.16923942081286)"><path class="outline" fill="#A5ABB6" stroke="none" d="M 25 0.5 L 52.73709503566107 0.5 L 52.73709503566107 -0.5 L 25 -0.5 Z M 99.62772003566107 0.5 L 127.36481507132214 0.5 L 127.36481507132214 3.5 L 134.36481507132214 0 L 127.36481507132214 -3.5 L 127.36481507132214 -0.5 L 99.62772003566107 -0.5 Z"/><text text-anchor="middle" pointer-events="none" font-size="8px" fill="#000000" x="76.18240753566107" y="3" transform="rotate(180 76.18240753566107 0)" font-family="sans-serif">DIRECTED</text></g></g><g class="layer nodes"><g class="node" aria-label="graph-node175" transform="translate(-59.23694777914651,149.02762251812078)"><circle class="outline" cx="0" cy="0" r="25" fill="#C990C0" stroke="#b261a5" stroke-width="2px"/><text class="caption" text-anchor="middle" pointer-events="none" x="0" y="0" font-size="10px" fill="#FFFFFF" font-family="sans-serif"> Sebastian</text><text class="caption" text-anchor="middle" pointer-events="none" x="0" y="10" font-size="10px" fill="#FFFFFF" font-family="sans-serif"> Stan</text></g><g class="node" aria-label="graph-node171" transform="translate(3.152812028527033,2.1772623573832215)"><circle class="outline" cx="0" cy="0" r="25" fill="#F79767" stroke="#f36924" stroke-width="2px"/><text class="caption" text-anchor="middle" pointer-events="none" x="0" y="0" font-size="10px" fill="#FFFFFF" font-family="sans-serif"> Captain</text><text class="caption" text-anchor="middle" pointer-events="none" x="0" y="10" font-size="10px" fill="#FFFFFF" font-family="sans-serif"> America</text></g><g class="node" aria-label="graph-node172" transform="translate(123.04806286901838,106.32808589253837)"><circle class="outline" cx="0" cy="0" r="25" fill="#C990C0" stroke="#b261a5" stroke-width="2px"/><text class="caption" text-anchor="middle" pointer-events="none" x="0" y="0" font-size="10px" fill="#FFFFFF" font-family="sans-serif"> Chris</text><text class="caption" text-anchor="middle" pointer-events="none" x="0" y="10" font-size="10px" fill="#FFFFFF" font-family="sans-serif"> Evans</text></g><g class="node" aria-label="graph-node176" transform="translate(161.7012747916297,16.05076968908656)"><circle class="outline" cx="0" cy="0" r="25" fill="#C990C0" stroke="#b261a5" stroke-width="2px"/><text class="caption" text-anchor="middle" pointer-events="none" x="0" y="0" font-size="10px" fill="#FFFFFF" font-family="sans-serif"> Tommy</text><text class="caption" text-anchor="middle" pointer-events="none" x="0" y="10" font-size="10px" fill="#FFFFFF" font-family="sans-serif"> J…</text></g><g class="node" aria-label="graph-node178" transform="translate(139.54400472418374,-80.25143309891897)"><circle class="outline" cx="0" cy="0" r="25" fill="#C990C0" stroke="#b261a5" stroke-width="2px"/><text class="caption" text-anchor="middle" pointer-events="none" x="0" y="0" font-size="10px" fill="#FFFFFF" font-family="sans-serif"> Samuel L.</text><text class="caption" text-anchor="middle" pointer-events="none" x="0" y="10" font-size="10px" fill="#FFFFFF" font-family="sans-serif"> Jackson</text></g><g class="node" aria-label="graph-node174" transform="translate(64.29074732086555,-144.25618080749908)"><circle class="outline" cx="0" cy="0" r="25" fill="#C990C0" stroke="#b261a5" stroke-width="2px"/><text class="caption" text-anchor="middle" pointer-events="none" x="0" y="0" font-size="10px" fill="#FFFFFF" font-family="sans-serif"> Hayley</text><text class="caption" text-anchor="middle" pointer-events="none" x="0" y="10" font-size="10px" fill="#FFFFFF" font-family="sans-serif"> Atwell</text></g><g class="node" aria-label="graph-node177" transform="translate(-33.91372956978391,-153.97072582201085)"><circle class="outline" cx="0" cy="0" r="25" fill="#C990C0" stroke="#b261a5" stroke-width="2px"/><text class="caption" text-anchor="middle" pointer-events="none" x="0" y="0" font-size="10px" fill="#FFFFFF" font-family="sans-serif"> Stanley</text><text class="caption" text-anchor="middle" pointer-events="none" x="0" y="10" font-size="10px" fill="#FFFFFF" font-family="sans-serif"> Tucci</text></g><g class="node" aria-label="graph-node173" transform="translate(-118.22330882983375,-102.59432059062766)"><circle class="outline" cx="0" cy="0" r="25" fill="#C990C0" stroke="#b261a5" stroke-width="2px"/><text class="caption" text-anchor="middle" pointer-events="none" x="0" y="0" font-size="10px" fill="#FFFFFF" font-family="sans-serif"> Hugo</text><text class="caption" text-anchor="middle" pointer-events="none" x="0" y="10" font-size="10px" fill="#FFFFFF" font-family="sans-serif"> Weavi…</text></g><g class="node" aria-label="graph-node181" transform="translate(-156.42039893860806,-11.541989365240461)"><circle class="outline" cx="0" cy="0" r="25" fill="#C990C0" stroke="#b261a5" stroke-width="2px"/><text class="caption" text-anchor="middle" pointer-events="none" x="0" y="0" font-size="10px" fill="#FFFFFF" font-family="sans-serif"> Stephen</text><text class="caption" text-anchor="middle" pointer-events="none" x="0" y="10" font-size="10px" fill="#FFFFFF" font-family="sans-serif"> McFe…</text></g><g class="node" aria-label="graph-node180" transform="translate(-133.80211774743833,85.26836034218016)"><circle class="outline" cx="0" cy="0" r="25" fill="#C990C0" stroke="#b261a5" stroke-width="2px"/><text class="caption" text-anchor="middle" pointer-events="none" x="0" y="5" font-size="10px" fill="#FFFFFF" font-family="sans-serif"> Christop…</text></g><g class="node" aria-label="graph-node179" transform="translate(38.54327482699076,157.56278107012318)"><circle class="outline" cx="0" cy="0" r="25" fill="#C990C0" stroke="#b261a5" stroke-width="2px"/><text class="caption" text-anchor="middle" pointer-events="none" x="0" y="0" font-size="10px" fill="#FFFFFF" font-family="sans-serif"> Joe</text><text class="caption" text-anchor="middle" pointer-events="none" x="0" y="10" font-size="10px" fill="#FFFFFF" font-family="sans-serif"> Johnst…</text></g></g></svg>