<svg xmlns="http://www.w3.org/2000/svg" width="614.9063110351562" height="387.650634765625" viewBox="-310.3324279785156 -296.6495666503906 614.9063110351562 387.650634765625"><title>Neo4j Graph Visualization</title><desc>Created using Neo4j (http://www.neo4j.com/)</desc><g class="layer relationships"><g class="relationship" transform="translate(227.64049483141832 -2.0092741366268285) rotate(528.4851484102262)"><path class="outline" fill="#A5ABB6" stroke="none" d="M 25 0.5 L 35.70180147280283 0.5 L 35.70180147280283 -0.5 L 25 -0.5 Z M 82.59242647280283 0.5 L 93.29422794560566 0.5 L 93.29422794560566 3.5 L 100.29422794560566 0 L 93.29422794560566 -3.5 L 93.29422794560566 -0.5 L 82.59242647280283 -0.5 Z"/><text text-anchor="middle" pointer-events="none" font-size="8px" fill="#000000" x="59.14711397280283" y="3" transform="rotate(180 59.14711397280283 0)" font-family="sans-serif">DIRECTED</text></g><g class="relationship" transform="translate(182.2059110357814 -138.41432796045652) rotate(249.38631526221343)"><path class="outline" fill="#A5ABB6" stroke="none" d="M 24.018736134675446,6.953439040707552 L 24.277555179777966,5.987513214418485 A 167.35751179800093 167.35751179800093 0 0 0 39.815180942766055,9.368738915012585 L 39.64920282004616,10.354868350116504 A 168.35751179800093 168.35751179800093 0 0 1 24.018736134675446,6.953439040707552 Z M 91.3749642027418,11.001894490981812 L 91.23370470457812,10.011921888240408 A 167.35751179800093 167.35751179800093 0 0 0 106.85104567662658,7.020406795214131 L 106.14731546432621,4.10411397927543 L 113.77301728253362,5.86441843583639 L 107.78935262636041,10.908797216465732 L 107.08562241406004,7.992504400527031 A 168.35751179800093 168.35751179800093 0 0 1 91.3749642027418,11.001894490981812"/><text text-anchor="middle" pointer-events="none" font-size="8px" fill="#000000" x="65.49333823018051" y="15.176951388375414" transform="rotate(180 65.49333823018051 12.176951388375414)" font-family="sans-serif">PRODUCED</text></g><g class="relationship" transform="translate(182.2059110357814 -138.41432796045652) rotate(249.38631526221343)"><path class="outline" fill="#A5ABB6" stroke="none" d="M 24.018736134675446,-6.953439040707552 L 24.277555179777966,-5.987513214418485 A 167.35751179800093 167.35751179800093 0 0 1 47.71314842529593,-10.505172062693049 L 47.59436249250332,-11.49809194977891 A 168.35751179800093 168.35751179800093 0 0 0 24.018736134675446,-6.953439040707552 Z M 83.40369430333466,-11.946022983545731 L 83.3097820830814,-10.950442502174639 A 167.35751179800093 167.35751179800093 0 0 1 106.85104567662658,-7.020406795214131 L 106.14731546432621,-4.10411397927543 L 113.77301728253362,-5.86441843583639 L 107.78935262636041,-10.908797216465732 L 107.08562241406004,-7.992504400527031 A 168.35751179800093 168.35751179800093 0 0 0 83.40369430333466,-11.946022983545731"/><text text-anchor="middle" pointer-events="none" font-size="8px" fill="#000000" x="65.4933382301805" y="-9.176951388375414" transform="rotate(180 65.4933382301805 -12.176951388375414)" font-family="sans-serif">WROTE</text></g><g class="relationship" transform="translate(182.2059110357814 -138.41432796045652) rotate(475.60000105058384)"><path class="outline" fill="#A5ABB6" stroke="none" d="M 25 0.5 L 62.5483165894824 0.5 L 62.5483165894824 -0.5 L 25 -0.5 Z M 109.4389415894824 0.5 L 146.9872581789648 0.5 L 146.9872581789648 3.5 L 153.9872581789648 0 L 146.9872581789648 -3.5 L 146.9872581789648 -0.5 L 109.4389415894824 -0.5 Z"/><text text-anchor="middle" pointer-events="none" font-size="8px" fill="#000000" x="85.9936290894824" y="3" transform="rotate(180 85.9936290894824 0)" font-family="sans-serif">DIRECTED</text></g><g class="relationship" transform="translate(182.2059110357814 -138.41432796045652) rotate(202.8708243972594)"><path class="outline" fill="#A5ABB6" stroke="none" d="M 25 0.5 L 88.58680508273393 0.5 L 88.58680508273393 -0.5 L 25 -0.5 Z M 135.47743008273392 0.5 L 199.06423516546786 0.5 L 199.06423516546786 3.5 L 206.06423516546786 0 L 199.06423516546786 -3.5 L 199.06423516546786 -0.5 L 135.47743008273392 -0.5 Z"/><text text-anchor="middle" pointer-events="none" font-size="8px" fill="#000000" x="112.03211758273393" y="3" transform="rotate(180 112.03211758273393 0)" font-family="sans-serif">DIRECTED</text></g><g class="relationship" transform="translate(182.2059110357814 -138.41432796045652) rotate(502.828228457741)"><path class="outline" fill="#A5ABB6" stroke="none" d="M 25 0.5 L 80.3170774496409 0.5 L 80.3170774496409 -0.5 L 25 -0.5 Z M 127.2077024496409 0.5 L 182.5247798992818 0.5 L 182.5247798992818 3.5 L 189.5247798992818 0 L 182.5247798992818 -3.5 L 182.5247798992818 -0.5 L 127.2077024496409 -0.5 Z"/><text text-anchor="middle" pointer-events="none" font-size="8px" fill="#000000" x="103.7623899496409" y="3" transform="rotate(180 103.7623899496409 0)" font-family="sans-serif">DIRECTED</text></g><g class="relationship" transform="translate(182.2059110357814 -138.41432796045652) rotate(506.64683102250495)"><path class="outline" fill="#A5ABB6" stroke="none" d="M 25 0.5 L 31.312421950412883 0.5 L 31.312421950412883 -0.5 L 25 -0.5 Z M 78.20304695041288 0.5 L 84.51546890082577 0.5 L 84.51546890082577 3.5 L 91.51546890082577 0 L 84.51546890082577 -3.5 L 84.51546890082577 -0.5 L 78.20304695041288 -0.5 Z"/><text text-anchor="middle" pointer-events="none" font-size="8px" fill="#000000" x="54.75773445041288" y="3" transform="rotate(180 54.75773445041288 0)" font-family="sans-serif">DIRECTED</text></g><g class="relationship" transform="translate(-36.49349120794031 -132.22126773580513) rotate(321.47229649076473)"><path class="outline" fill="#A5ABB6" stroke="none" d="M 24.018736134675446,6.953439040707552 L 24.277555179777966,5.987513214418485 A 322.673262883024 322.673262883024 0 0 0 79.37018882752436,15.728211664793491 L 79.28210792525867,16.724324988997182 A 323.673262883024 323.673262883024 0 0 1 24.018736134675446,6.953439040707552 Z M 131.08632155731732,17.142986469036032 L 131.0143515082915,16.145579675373995 A 322.673262883024 322.673262883024 0 0 0 186.25721993931532,7.296569783949362 L 185.52769858128,4.38662157338439 L 193.16868599030613,6.079344650294417 L 187.2299150833624,11.176500731369327 L 186.5003937253271,8.266552520804353 A 323.673262883024 323.673262883024 0 0 1 131.08632155731732,17.142986469036032"/><text text-anchor="middle" pointer-events="none" font-size="8px" fill="#000000" x="105.17986579067578" y="20.471784927263684" font-family="sans-serif">PRODUCED</text></g><g class="relationship" transform="translate(-36.49349120794031 -132.22126773580513) rotate(321.47229649076473)"><path class="outline" fill="#A5ABB6" stroke="none" d="M 24.018736134675446,-6.953439040707552 L 24.277555179777966,-5.987513214418485 A 322.673262883024 322.673262883024 0 0 1 87.3385537036194,-16.333468460854135 L 87.27516764221191,-17.33145754256759 A 323.673262883024 323.673262883024 0 0 0 24.018736134675446,-6.953439040707552 Z M 123.08449328763967,-17.6208545669175 L 123.037245170226,-16.62197138285603 A 322.673262883024 322.673262883024 0 0 1 186.25721993931532,-7.296569783949362 L 185.52769858128,-4.38662157338439 L 193.16868599030613,-6.079344650294417 L 187.2299150833624,-11.176500731369327 L 186.5003937253271,-8.266552520804353 A 323.673262883024 323.673262883024 0 0 0 123.08449328763967,-17.6208545669175"/><text text-anchor="middle" pointer-events="none" font-size="8px" fill="#000000" x="105.17986579067579" y="-14.471784927263684" font-family="sans-serif">WROTE</text></g><g class="relationship" transform="translate(-36.49349120794031 -132.22126773580513) rotate(407.6759664821403)"><path class="outline" fill="#A5ABB6" stroke="none" d="M 25 0.5 L 78.02779712041882 0.5 L 78.02779712041882 -0.5 L 25 -0.5 Z M 124.91842212041882 0.5 L 177.94621924083765 0.5 L 177.94621924083765 3.5 L 184.94621924083765 0 L 177.94621924083765 -3.5 L 177.94621924083765 -0.5 L 124.91842212041882 -0.5 Z"/><text text-anchor="middle" pointer-events="none" font-size="8px" fill="#000000" x="101.47310962041882" y="3" font-family="sans-serif">DIRECTED</text></g><g class="relationship" transform="translate(-36.49349120794031 -132.22126773580513) rotate(273.45789785958345)"><path class="outline" fill="#A5ABB6" stroke="none" d="M 25 0.5 L 25.140878538028986 0.5 L 25.140878538028986 -0.5 L 25 -0.5 Z M 64.03150353802899 0.5 L 64.17238207605797 0.5 L 64.17238207605797 3.5 L 71.17238207605797 0 L 64.17238207605797 -3.5 L 64.17238207605797 -0.5 L 64.03150353802899 -0.5 Z"/><text text-anchor="middle" pointer-events="none" font-size="8px" fill="#000000" x="44.586191038028986" y="3" font-family="sans-serif">DIREC…</text></g><g class="relationship" transform="translate(-36.49349120794031 -132.22126773580513) rotate(428.84560566264065)"><path class="outline" fill="#A5ABB6" stroke="none" d="M 25 0.5 L 39.225997531871144 0.5 L 39.225997531871144 -0.5 L 25 -0.5 Z M 86.11662253187114 0.5 L 100.34262006374229 0.5 L 100.34262006374229 3.5 L 107.34262006374229 0 L 100.34262006374229 -3.5 L 100.34262006374229 -0.5 L 86.11662253187114 -0.5 Z"/><text text-anchor="middle" pointer-events="none" font-size="8px" fill="#000000" x="62.671310031871144" y="3" font-family="sans-serif">DIRECTED</text></g><g class="relationship" transform="translate(-36.49349120794031 -132.22126773580513) rotate(385.4901360951754)"><path class="outline" fill="#A5ABB6" stroke="none" d="M 25 0.5 L 40.28620443946798 0.5 L 40.28620443946798 -0.5 L 25 -0.5 Z M 87.17682943946798 0.5 L 102.46303387893596 0.5 L 102.46303387893596 3.5 L 109.46303387893596 0 L 102.46303387893596 -3.5 L 102.46303387893596 -0.5 L 87.17682943946798 -0.5 Z"/><text text-anchor="middle" pointer-events="none" font-size="8px" fill="#000000" x="63.73151693946798" y="3" font-family="sans-serif">DIRECTED</text></g><g class="relationship" transform="translate(275.5738835834174 -251.6160155392804) rotate(186.44303710733448)"><path class="outline" fill="#A5ABB6" stroke="none" d="M 25 0.5 L 44.49568400528737 0.5 L 44.49568400528737 -0.5 L 25 -0.5 Z M 91.38630900528737 0.5 L 110.88199301057475 0.5 L 110.88199301057475 3.5 L 117.88199301057475 0 L 110.88199301057475 -3.5 L 110.88199301057475 -0.5 L 91.38630900528737 -0.5 Z"/><text text-anchor="middle" pointer-events="none" font-size="8px" fill="#000000" x="67.94099650528737" y="3" transform="rotate(180 67.94099650528737 0)" font-family="sans-serif">DIRECTED</text></g><g class="relationship" transform="translate(-265.0706161399429 62.001073491451564) rotate(263.73357960463)"><path class="outline" fill="#A5ABB6" stroke="none" d="M 25 0.5 L 47.546442641873085 0.5 L 47.546442641873085 -0.5 L 25 -0.5 Z M 94.43706764187309 0.5 L 116.98351028374617 0.5 L 116.98351028374617 3.5 L 123.98351028374617 0 L 116.98351028374617 -3.5 L 116.98351028374617 -0.5 L 94.43706764187309 -0.5 Z"/><text text-anchor="middle" pointer-events="none" font-size="8px" fill="#000000" x="70.99175514187309" y="3" transform="rotate(180 70.99175514187309 0)" font-family="sans-serif">DIRECTED</text></g></g><g class="layer nodes"><g class="node" aria-label="graph-node105" transform="translate(104.86806459975236,23.00220185932555)"><circle class="outline" cx="0" cy="0" r="25" fill="#F79767" stroke="#f36924" stroke-width="2px"/><text class="caption" text-anchor="middle" pointer-events="none" x="0" y="0" font-size="10px" fill="#FFFFFF" font-family="sans-serif"> Cloud</text><text class="caption" text-anchor="middle" pointer-events="none" x="0" y="10" font-size="10px" fill="#FFFFFF" font-family="sans-serif"> Atlas</text></g><g class="node" aria-label="graph-node108" transform="translate(227.64049483141832,-2.0092741366268285)"><circle class="outline" cx="0" cy="0" r="25" fill="#C990C0" stroke="#b261a5" stroke-width="2px"/><text class="caption" text-anchor="middle" pointer-events="none" x="0" y="0" font-size="10px" fill="#FFFFFF" font-family="sans-serif"> Tom</text><text class="caption" text-anchor="middle" pointer-events="none" x="0" y="10" font-size="10px" fill="#FFFFFF" font-family="sans-serif"> Tykwer</text></g><g class="node" aria-label="graph-node6" transform="translate(182.2059110357814,-138.41432796045652)"><circle class="outline" cx="0" cy="0" r="25" fill="#C990C0" stroke="#b261a5" stroke-width="2px"/><text class="caption" text-anchor="middle" pointer-events="none" x="0" y="0" font-size="10px" fill="#FFFFFF" font-family="sans-serif"> Lana</text><text class="caption" text-anchor="middle" pointer-events="none" x="0" y="10" font-size="10px" fill="#FFFFFF" font-family="sans-serif"> Wach…</text></g><g class="node" aria-label="graph-node5" transform="translate(-36.49349120794031,-132.22126773580513)"><circle class="outline" cx="0" cy="0" r="25" fill="#C990C0" stroke="#b261a5" stroke-width="2px"/><text class="caption" text-anchor="middle" pointer-events="none" x="0" y="0" font-size="10px" fill="#FFFFFF" font-family="sans-serif"> Lilly</text><text class="caption" text-anchor="middle" pointer-events="none" x="0" y="10" font-size="10px" fill="#FFFFFF" font-family="sans-serif"> Wach…</text></g><g class="node" aria-label="graph-node116" transform="translate(133.59434608088293,-267.6495696443544)"><circle class="outline" cx="0" cy="0" r="25" fill="#F79767" stroke="#f36924" stroke-width="2px"/><text class="caption" text-anchor="middle" pointer-events="none" x="0" y="0" font-size="10px" fill="#FFFFFF" font-family="sans-serif"> V for</text><text class="caption" text-anchor="middle" pointer-events="none" x="0" y="10" font-size="10px" fill="#FFFFFF" font-family="sans-serif"> Vende…</text></g><g class="node" aria-label="graph-node25" transform="translate(275.5738835834174,-251.6160155392804)"><circle class="outline" cx="0" cy="0" r="25" fill="#C990C0" stroke="#b261a5" stroke-width="2px"/><text class="caption" text-anchor="middle" pointer-events="none" x="0" y="0" font-size="10px" fill="#FFFFFF" font-family="sans-serif"> James</text><text class="caption" text-anchor="middle" pointer-events="none" x="0" y="10" font-size="10px" fill="#FFFFFF" font-family="sans-serif"> Marsh…</text></g><g class="node" aria-label="graph-node10" transform="translate(-30.692846987852146,-228.21855728512122)"><circle class="outline" cx="0" cy="0" r="25" fill="#F79767" stroke="#f36924" stroke-width="2px"/><text class="caption" text-anchor="middle" pointer-events="none" x="0" y="-5" font-size="10px" fill="#FFFFFF" font-family="sans-serif"> The</text><text class="caption" text-anchor="middle" pointer-events="none" x="0" y="5" font-size="10px" fill="#FFFFFF" font-family="sans-serif"> Matrix</text><text class="caption" text-anchor="middle" pointer-events="none" x="0" y="15" font-size="10px" fill="#FFFFFF" font-family="sans-serif"> Rev…</text></g><g class="node" aria-label="graph-node9" transform="translate(11.266625159408365,-8.797038469775847)"><circle class="outline" cx="0" cy="0" r="25" fill="#F79767" stroke="#f36924" stroke-width="2px"/><text class="caption" text-anchor="middle" pointer-events="none" x="0" y="-5" font-size="10px" fill="#FFFFFF" font-family="sans-serif"> The</text><text class="caption" text-anchor="middle" pointer-events="none" x="0" y="5" font-size="10px" fill="#FFFFFF" font-family="sans-serif"> Matrix</text><text class="caption" text-anchor="middle" pointer-events="none" x="0" y="15" font-size="10px" fill="#FFFFFF" font-family="sans-serif"> Rel…</text></g><g class="node" aria-label="graph-node0" transform="translate(84.88082849217605,-74.35433419633179)"><circle class="outline" cx="0" cy="0" r="25" fill="#F79767" stroke="#f36924" stroke-width="2px"/><text class="caption" text-anchor="middle" pointer-events="none" x="0" y="0" font-size="10px" fill="#FFFFFF" font-family="sans-serif"> The</text><text class="caption" text-anchor="middle" pointer-events="none" x="0" y="10" font-size="10px" fill="#FFFFFF" font-family="sans-serif"> Matrix</text></g><g class="node" aria-label="graph-node171" transform="translate(-281.3324280435619,-86.09227480643256)"><circle class="outline" cx="0" cy="0" r="25" fill="#F79767" stroke="#f36924" stroke-width="2px"/><text class="caption" text-anchor="middle" pointer-events="none" x="0" y="0" font-size="10px" fill="#FFFFFF" font-family="sans-serif"> Captain</text><text class="caption" text-anchor="middle" pointer-events="none" x="0" y="10" font-size="10px" fill="#FFFFFF" font-family="sans-serif"> America</text></g><g class="node" aria-label="graph-node179" transform="translate(-265.0706161399429,62.001073491451564)"><circle class="outline" cx="0" cy="0" r="25" fill="#C990C0" stroke="#b261a5" stroke-width="2px"/><text class="caption" text-anchor="middle" pointer-events="none" x="0" y="0" font-size="10px" fill="#FFFFFF" font-family="sans-serif"> Joe</text><text class="caption" text-anchor="middle" pointer-events="none" x="0" y="10" font-size="10px" fill="#FFFFFF" font-family="sans-serif"> Johnst…</text></g></g></svg>