<svg xmlns="http://www.w3.org/2000/svg" width="412.055419921875" height="429.744384765625" viewBox="-201.82347106933594 -196.39566040039062 412.055419921875 429.744384765625"><title>Neo4j Graph Visualization</title><desc>Created using Neo4j (http://www.neo4j.com/)</desc><g class="layer relationships"><g class="relationship" transform="translate(171.1536651115308 -87.34529771502436) rotate(445.95962733593007)"><path class="outline" fill="#A5ABB6" stroke="none" d="M 25 0.5 L 38.42447060525464 0.5 L 38.42447060525464 -0.5 L 25 -0.5 Z M 97.61197060525464 0.5 L 111.03644121050928 0.5 L 111.03644121050928 3.5 L 118.03644121050928 0 L 111.03644121050928 -3.5 L 111.03644121050928 -0.5 L 97.61197060525464 -0.5 Z"/><text text-anchor="middle" pointer-events="none" font-size="8px" fill="#000000" x="68.01822060525464" y="3" font-family="sans-serif">DESTINATION</text></g><g class="relationship" transform="translate(171.1536651115308 -87.34529771502436) rotate(213.21399396036463)"><path class="outline" fill="#A5ABB6" stroke="none" d="M 25 0.5 L 52.34698047106687 0.5 L 52.34698047106687 -0.5 L 25 -0.5 Z M 86.79229297106687 0.5 L 114.13927344213374 0.5 L 114.13927344213374 3.5 L 121.13927344213374 0 L 114.13927344213374 -3.5 L 114.13927344213374 -0.5 L 86.79229297106687 -0.5 Z"/><text text-anchor="middle" pointer-events="none" font-size="8px" fill="#000000" x="69.56963672106687" y="3" transform="rotate(180 69.56963672106687 0)" font-family="sans-serif">ORIGIN</text></g><g class="relationship" transform="translate(-96.44492577724154 -148.7691917409632) rotate(352.69660774124816)"><path class="outline" fill="#A5ABB6" stroke="none" d="M 25 0.5 L 40.16763059104764 0.5 L 40.16763059104764 -0.5 L 25 -0.5 Z M 99.35513059104764 0.5 L 114.52276118209528 0.5 L 114.52276118209528 3.5 L 121.52276118209528 0 L 114.52276118209528 -3.5 L 114.52276118209528 -0.5 L 99.35513059104764 -0.5 Z"/><text text-anchor="middle" pointer-events="none" font-size="8px" fill="#000000" x="69.76138059104764" y="3" font-family="sans-serif">DESTINATION</text></g><g class="relationship" transform="translate(-96.44492577724154 -148.7691917409632) rotate(481.44128401359063)"><path class="outline" fill="#A5ABB6" stroke="none" d="M 25 0.5 L 52.48953547309556 0.5 L 52.48953547309556 -0.5 L 25 -0.5 Z M 86.93484797309556 0.5 L 114.42438344619111 0.5 L 114.42438344619111 3.5 L 121.42438344619111 0 L 114.42438344619111 -3.5 L 114.42438344619111 -0.5 L 86.93484797309556 -0.5 Z"/><text text-anchor="middle" pointer-events="none" font-size="8px" fill="#000000" x="69.71219172309556" y="3" transform="rotate(180 69.71219172309556 0)" font-family="sans-serif">ORIGIN</text></g><g class="relationship" transform="translate(-137.16207936612213 117.58476362859464) rotate(255.84778163318532)"><path class="outline" fill="#A5ABB6" stroke="none" d="M 25 0.5 L 52.204878440950296 0.5 L 52.204878440950296 -0.5 L 25 -0.5 Z M 86.6501909409503 0.5 L 113.85506938190059 0.5 L 113.85506938190059 3.5 L 120.85506938190059 0 L 113.85506938190059 -3.5 L 113.85506938190059 -0.5 L 86.6501909409503 -0.5 Z"/><text text-anchor="middle" pointer-events="none" font-size="8px" fill="#000000" x="69.4275346909503" y="3" transform="rotate(180 69.4275346909503 0)" font-family="sans-serif">ORIGIN</text></g><g class="relationship" transform="translate(-137.16207936612213 117.58476362859464) rotate(397.36529010101583)"><path class="outline" fill="#A5ABB6" stroke="none" d="M 25 0.5 L 38.3881691657927 0.5 L 38.3881691657927 -0.5 L 25 -0.5 Z M 97.5756691657927 0.5 L 110.9638383315854 0.5 L 110.9638383315854 3.5 L 117.9638383315854 0 L 110.9638383315854 -3.5 L 110.9638383315854 -0.5 L 97.5756691657927 -0.5 Z"/><text text-anchor="middle" pointer-events="none" font-size="8px" fill="#000000" x="67.9819191657927" y="3" font-family="sans-serif">DESTINATION</text></g></g><g class="layer nodes"><g class="node" aria-label="graph-node197" transform="translate(181.23192347968848,55.33564783283825)"><circle class="outline" cx="0" cy="0" r="25" fill="#8DCC93" stroke="#5db665" stroke-width="2px"/><text class="caption" text-anchor="middle" pointer-events="none" x="0" y="5" font-size="10px" fill="#2A2C34" font-family="sans-serif"> LAX</text></g><g class="node" aria-label="graph-node262" transform="translate(-23.5369333568341,204.3487265675226)"><circle class="outline" cx="0" cy="0" r="25" fill="#8DCC93" stroke="#5db665" stroke-width="2px"/><text class="caption" text-anchor="middle" pointer-events="none" x="0" y="5" font-size="10px" fill="#2A2C34" font-family="sans-serif"> DAY</text></g><g class="node" aria-label="graph-node855" transform="translate(171.1536651115308,-87.34529771502436)"><circle class="outline" cx="0" cy="0" r="25" fill="#ECB5C9" stroke="#da7298" stroke-width="2px"/><text class="caption" text-anchor="middle" pointer-events="none" x="0" y="5" font-size="10px" fill="#2A2C34" font-family="sans-serif"> 11/29/20…</text></g><g class="node" aria-label="graph-node199" transform="translate(48.88908420707073,-167.39565373204323)"><circle class="outline" cx="0" cy="0" r="25" fill="#8DCC93" stroke="#5db665" stroke-width="2px"/><text class="caption" text-anchor="middle" pointer-events="none" x="0" y="5" font-size="10px" fill="#2A2C34" font-family="sans-serif"> ORD</text></g><g class="node" aria-label="graph-node311" transform="translate(-96.44492577724154,-148.7691917409632)"><circle class="outline" cx="0" cy="0" r="25" fill="#ECB5C9" stroke="#da7298" stroke-width="2px"/><text class="caption" text-anchor="middle" pointer-events="none" x="0" y="5" font-size="10px" fill="#2A2C34" font-family="sans-serif"> 11/30/20…</text></g><g class="node" aria-label="graph-node200" transform="translate(-172.8234738801287,-23.843544024843034)"><circle class="outline" cx="0" cy="0" r="25" fill="#8DCC93" stroke="#5db665" stroke-width="2px"/><text class="caption" text-anchor="middle" pointer-events="none" x="0" y="5" font-size="10px" fill="#2A2C34" font-family="sans-serif"> MSP</text></g><g class="node" aria-label="graph-node1283" transform="translate(-137.16207936612213,117.58476362859464)"><circle class="outline" cx="0" cy="0" r="25" fill="#ECB5C9" stroke="#da7298" stroke-width="2px"/><text class="caption" text-anchor="middle" pointer-events="none" x="0" y="5" font-size="10px" fill="#2A2C34" font-family="sans-serif"> 11/23/20…</text></g></g></svg>