<svg xmlns="http://www.w3.org/2000/svg" width="530.0009765625" height="392.0140380859375" viewBox="-247.96946716308594 -205.67515563964844 530.0009765625 392.0140380859375"><title>Neo4j Graph Visualization</title><desc>Created using Neo4j (http://www.neo4j.com/)</desc><g class="layer relationships"><g class="relationship" transform="translate(-46.564326779131704 -51.84240857439277) rotate(368.2466694854814)"><path class="outline" fill="#A5ABB6" stroke="none" d="M 24.018736134675446,-6.953439040707552 L 24.277555179777966,-5.987513214418485 A 182.2421150528863 182.2421150528863 0 0 1 58.31441672162829,-11.72359591967853 L 58.24236494232474,-12.720996812549174 A 183.2421150528863 183.2421150528863 0 0 0 24.018736134675446,-6.953439040707552 Z M 80.29941037588083,-12.983225273452973 L 80.25109110714669,-11.984393331498268 A 182.2421150528863 182.2421150528863 0 0 1 114.41470173922758,-7.059122069908446 L 113.70735564057972,-4.143704175896054 L 121.33523450836447,-5.894550822065504 L 115.35782987075805,-10.946345928591636 L 114.65048377211019,-8.030928034579244 A 183.2421150528863 183.2421150528863 0 0 0 80.29941037588083,-12.983225273452973"/><text text-anchor="middle" pointer-events="none" font-size="8px" fill="#000000" x="69.27288211490195" y="-9.684349687022888" font-family="sans-serif">road</text></g><g class="relationship" transform="translate(97.56019879851871 -30.95390068557952) rotate(361.6224019041245)"><path class="outline" fill="#A5ABB6" stroke="none" d="M 21.40063509461097,-12.933012701892217 L 21.90063509461097,-12.06698729810778 A 109.16700506748819 109.16700506748819 0 0 1 51.224567035105,-23.730055963844322 L 50.99318237288371,-24.70291830667024 A 110.16700506748819 110.16700506748819 0 0 0 21.40063509461097,-12.933012701892217 Z M 97.31066219363787,-25.706107527964008 L 97.12161716556867,-24.724139108226225 A 109.16700506748819 109.16700506748819 0 0 1 126.9230330062048,-14.341664978911341 L 125.53693025437056,-11.681078734987361 L 133.36208470066646,-11.550856265285415 L 128.77117000865047,-17.889113304143315 L 127.38506725681623,-15.228527060219333 A 110.16700506748819 110.16700506748819 0 0 0 97.31066219363787,-25.706107527964008"/><text text-anchor="middle" pointer-events="none" font-size="8px" fill="#000000" x="74.10941944710437" y="-24.16687875440317" font-family="sans-serif">twowheeler</text></g><g class="relationship" transform="translate(253.03148546230295 -26.550359086576105) rotate(220.09990236938415)"><path class="outline" fill="#A5ABB6" stroke="none" d="M 21.40063509461097,12.933012701892217 L 21.90063509461097,12.06698729810778 A 97.18210282918679 97.18210282918679 0 0 0 45.395940766416416,21.7907304339236 L 45.137706533855116,22.756812770545835 A 98.18210282918679 98.18210282918679 0 0 1 21.40063509461097,12.933012701892217 Z M 91.38871117338381,23.837292019743032 L 91.17587172442094,22.86020483378408 A 97.18210282918679 97.18210282918679 0 0 0 115.09961537606412,14.244227879696977 L 113.72257389718405,11.57894050955398 L 121.54812615287778,11.47534565733396 L 116.93567068123755,17.79794437322097 L 115.55862920235748,15.132657003077975 A 98.18210282918679 98.18210282918679 0 0 1 91.38871117338381,23.837292019743032"/><text text-anchor="middle" pointer-events="none" font-size="8px" fill="#000000" x="68.21033721170656" y="28.56027638323127" transform="rotate(180 68.21033721170656 25.56027638323127)" font-family="sans-serif">twowheeler</text></g><g class="relationship" transform="translate(143.06710349920886 -119.14864671180999) rotate(472.03357634072734)"><path class="outline" fill="#A5ABB6" stroke="none" d="M 25 0.5 L 88.77467853955321 0.5 L 88.77467853955321 -0.5 L 25 -0.5 Z M 108.11061603955321 0.5 L 171.88529457910641 0.5 L 171.88529457910641 3.5 L 178.88529457910641 0 L 171.88529457910641 -3.5 L 171.88529457910641 -0.5 L 108.11061603955321 -0.5 Z"/><text text-anchor="middle" pointer-events="none" font-size="8px" fill="#000000" x="98.44264728955321" y="3" transform="rotate(180 98.44264728955321 0)" font-family="sans-serif">trek</text></g><g class="relationship" transform="translate(253.03148546230295 -26.550359086576105) rotate(220.09990236938415)"><path class="outline" fill="#A5ABB6" stroke="none" d="M 25 0.5 L 57.37356774370136 0.5 L 57.37356774370136 -0.5 L 25 -0.5 Z M 79.38528649370136 0.5 L 111.75885423740272 0.5 L 111.75885423740272 3.5 L 118.75885423740272 0 L 111.75885423740272 -3.5 L 111.75885423740272 -0.5 L 79.38528649370136 -0.5 Z"/><text text-anchor="middle" pointer-events="none" font-size="8px" fill="#000000" x="68.37942711870136" y="3" transform="rotate(180 68.37942711870136 0)" font-family="sans-serif">road</text></g><g class="relationship" transform="translate(253.03148546230295 -26.550359086576105) rotate(220.09990236938415)"><path class="outline" fill="#A5ABB6" stroke="none" d="M 21.40063509461097,-12.933012701892217 L 21.90063509461097,-12.06698729810778 A 97.18210282918679 97.18210282918679 0 0 1 58.63295540021527,-24.360670604285602 L 58.510929525452795,-25.353197523763583 A 98.18210282918679 98.18210282918679 0 0 0 21.40063509461097,-12.933012701892217 Z M 77.9088337941153,-25.806355962235443 L 77.83328899449111,-24.809213553524557 A 97.18210282918679 97.18210282918679 0 0 1 115.09961537606412,-14.244227879696977 L 113.72257389718405,-11.57894050955398 L 121.54812615287778,-11.47534565733396 L 116.93567068123755,-17.79794437322097 L 115.55862920235748,-15.132657003077975 A 98.18210282918679 98.18210282918679 0 0 0 77.9088337941153,-25.806355962235443"/><text text-anchor="middle" pointer-events="none" font-size="8px" fill="#000000" x="68.21033721170654" y="-22.56027638323127" transform="rotate(180 68.21033721170654 -25.56027638323127)" font-family="sans-serif">trek</text></g><g class="relationship" transform="translate(97.56019879851871 -30.95390068557952) rotate(361.6224019041245)"><path class="outline" fill="#A5ABB6" stroke="none" d="M 25 0.5 L 64.59884961668313 0.5 L 64.59884961668313 -0.5 L 25 -0.5 Z M 83.93478711668313 0.5 L 123.53363673336625 0.5 L 123.53363673336625 3.5 L 130.53363673336625 0 L 123.53363673336625 -3.5 L 123.53363673336625 -0.5 L 83.93478711668313 -0.5 Z"/><text text-anchor="middle" pointer-events="none" font-size="8px" fill="#000000" x="74.26681836668313" y="3" font-family="sans-serif">trek</text></g><g class="relationship" transform="translate(97.56019879851871 -30.95390068557952) rotate(361.6224019041245)"><path class="outline" fill="#A5ABB6" stroke="none" d="M 21.40063509461097,12.933012701892217 L 21.90063509461097,12.06698729810778 A 109.16700506748819 109.16700506748819 0 0 0 63.19740492725481,25.88101082083645 L 63.07569477597891,26.873576505855027 A 110.16700506748819 110.16700506748819 0 0 1 21.40063509461097,12.933012701892217 Z M 85.14549617872227,27.35158582261853 L 85.06687591900783,26.354681185874156 A 109.16700506748819 109.16700506748819 0 0 0 126.9230330062048,14.341664978911341 L 125.53693025437056,11.681078734987361 L 133.36208470066646,11.550856265285415 L 128.77117000865047,17.889113304143315 L 127.38506725681623,15.228527060219333 A 110.16700506748819 110.16700506748819 0 0 1 85.14549617872227,27.35158582261853"/><text text-anchor="middle" pointer-events="none" font-size="8px" fill="#000000" x="74.10941944710439" y="30.16687875440317" font-family="sans-serif">road</text></g><g class="relationship" transform="translate(-46.564326779131704 -51.84240857439277) rotate(368.2466694854814)"><path class="outline" fill="#A5ABB6" stroke="none" d="M 24.018736134675446,6.953439040707552 L 24.277555179777966,5.987513214418485 A 182.2421150528863 182.2421150528863 0 0 0 59.64551895936635,11.814857345400895 L 59.58077121204988,12.812759008500763 A 183.2421150528863 183.2421150528863 0 0 1 24.018736134675446,6.953439040707552 Z M 78.95920084462361,13.043142347583483 L 78.91819544874491,12.043983422532591 A 182.2421150528863 182.2421150528863 0 0 0 114.41470173922758,7.059122069908446 L 113.70735564057972,4.143704175896054 L 121.33523450836447,5.894550822065504 L 115.35782987075805,10.946345928591636 L 114.65048377211019,8.030928034579244 A 183.2421150528863 183.2421150528863 0 0 1 78.95920084462361,13.043142347583483"/><text text-anchor="middle" pointer-events="none" font-size="8px" fill="#000000" x="69.27288211490202" y="15.684349687022888" font-family="sans-serif">trek</text></g><g class="relationship" transform="translate(-46.564326779131704 -51.84240857439277) rotate(289.58333062689064)"><path class="outline" fill="#A5ABB6" stroke="none" d="M 21.40063509461097,12.933012701892217 L 21.90063509461097,12.06698729810778 A 85.68437998621623 85.68437998621623 0 0 0 32.69337880954808,17.326884214910663 L 32.31933810010574,18.254296500617443 A 86.68437998621623 86.68437998621623 0 0 1 21.40063509461097,12.933012701892217 Z M 93.06614648985943,19.788758338630203 L 92.73940571595479,18.843644341977836 A 85.68437998621623 85.68437998621623 0 0 0 103.78394536611071,14.135356289209657 L 102.41702923911049,11.464861896452637 L 110.24291830371047,11.390967725001948 L 105.60650020211102,17.69601547955235 L 104.2395840751108,15.02552108679533 A 86.68437998621623 86.68437998621623 0 0 1 93.06614648985943,19.788758338630203"/><text text-anchor="middle" pointer-events="none" font-size="8px" fill="#000000" x="62.566505462099244" y="27.019035020611327" font-family="sans-serif">PublicTransport</text></g><g class="relationship" transform="translate(-2.1543037042329707 -176.675156656566) rotate(381.60998847741473)"><path class="outline" fill="#A5ABB6" stroke="none" d="M 25 0.5 L 64.9322176399376 0.5 L 64.9322176399376 -0.5 L 25 -0.5 Z M 84.2681551399376 0.5 L 124.20037277987521 0.5 L 124.20037277987521 3.5 L 131.2003727798752 0 L 124.20037277987521 -3.5 L 124.20037277987521 -0.5 L 84.2681551399376 -0.5 Z"/><text text-anchor="middle" pointer-events="none" font-size="8px" fill="#000000" x="74.6001863899376" y="3" font-family="sans-serif">trek</text></g><g class="relationship" transform="translate(-2.1543037042329707 -176.675156656566) rotate(510.7822823402236)"><path class="outline" fill="#A5ABB6" stroke="none" d="M 24.018736134675446,-6.953439040707552 L 24.277555179777966,-5.987513214418485 A 251.1533108227794 251.1533108227794 0 0 1 63.7126044359853,-13.240502267812957 L 63.61080123561529,-14.235306825700803 A 252.1533108227794 252.1533108227794 0 0 0 24.018736134675446,-6.953439040707552 Z M 110.09968973876691,-14.684436623713054 L 110.01712538769982,-13.687850888348095 A 251.1533108227794 251.1533108227794 0 0 1 149.5849433524374,-7.198109633294168 L 148.86461685671713,-4.2858717069627055 L 156.50021959649752,-6.002720797668811 L 150.5453786800644,-11.081093535069451 L 149.82505218434414,-8.168855608737989 A 252.1533108227794 252.1533108227794 0 0 0 110.09968973876691,-14.684436623713054"/><text text-anchor="middle" pointer-events="none" font-size="8px" fill="#000000" x="86.84970257902718" y="-12.033611522769831" transform="rotate(180 86.84970257902718 -15.033611522769831)" font-family="sans-serif">twowheeler</text></g><g class="relationship" transform="translate(-159.9241617020241 -88.43652622406944) rotate(422.5949712537827)"><path class="outline" fill="#A5ABB6" stroke="none" d="M 24.018736134675446,-6.953439040707552 L 24.277555179777966,-5.987513214418485 A 206.2706696378144 206.2706696378144 0 0 1 65.75630607285294,-12.672003171445681 L 65.69857597057447,-13.670335398357622 A 207.2706696378144 207.2706696378144 0 0 0 24.018736134675446,-6.953439040707552 Z M 85.07303542068469,-13.883564840803729 L 85.03729132575057,-12.884203865141103 A 206.2706696378144 206.2706696378144 0 0 1 126.65311230775617,-7.114227640837536 L 125.9406196475198,-4.2000632307348225 L 133.57157804136855,-5.937438835303116 L 127.60310252140467,-10.999780187641154 L 126.89060986116829,-8.08561577753844 A 207.2706696378144 207.2706696378144 0 0 0 85.07303542068469,-13.883564840803729"/><text text-anchor="middle" pointer-events="none" font-size="8px" fill="#000000" x="75.38881526667565" y="-10.503494392616176" font-family="sans-serif">trek</text></g><g class="relationship" transform="translate(-87.26643476008283 51.70433259896964) rotate(366.7252111104662)"><path class="outline" fill="#A5ABB6" stroke="none" d="M 24.018736134675446,6.953439040707552 L 24.277555179777966,5.987513214418485 A 200.48977279047526 200.48977279047526 0 0 0 50.81494129556846,11.209541781181798 L 50.688485042574655,12.201513966315417 A 201.48977279047526 201.48977279047526 0 0 1 24.018736134675446,6.953439040707552 Z M 97.16234283307584,12.722306136555915 L 97.05814788652302,11.727749243707223 A 200.48977279047526 200.48977279047526 0 0 0 123.70589263208461,7.101720256980281 L 122.99456808054948,4.187270500614019 L 130.62482948886174,5.927704596126036 L 124.65432536746478,10.987653265468628 L 123.94300081592965,8.073203509102367 A 201.48977279047526 201.48977279047526 0 0 1 97.16234283307584,12.722306136555915"/><text text-anchor="middle" pointer-events="none" font-size="8px" fill="#000000" x="73.9159502720819" y="16.306417862929834" font-family="sans-serif">twowheeler</text></g><g class="relationship" transform="translate(-87.26643476008283 51.70433259896964) rotate(366.7252111104662)"><path class="outline" fill="#A5ABB6" stroke="none" d="M 24.018736134675446,-6.953439040707552 L 24.277555179777966,-5.987513214418485 A 200.48977279047526 200.48977279047526 0 0 1 64.28455747053478,-12.466541094914476 L 64.2252847750237,-13.464782923113887 A 201.48977279047526 201.48977279047526 0 0 0 24.018736134675446,-6.953439040707552 Z M 83.6006333440517,-13.68190563059207 L 83.56374558287709,-12.682586215652321 A 200.48977279047526 200.48977279047526 0 0 1 123.70589263208461,-7.101720256980281 L 122.99456808054948,-4.187270500614019 L 130.62482948886174,-5.927704596126036 L 124.65432536746478,-10.987653265468628 L 123.94300081592965,-8.073203509102367 A 201.48977279047526 201.48977279047526 0 0 0 83.6006333440517,-13.68190563059207"/><text text-anchor="middle" pointer-events="none" font-size="8px" fill="#000000" x="73.91595027208193" y="-10.306417862929834" font-family="sans-serif">trek</text></g><g class="relationship" transform="translate(-159.9241617020241 -88.43652622406944) rotate(422.5949712537827)"><path class="outline" fill="#A5ABB6" stroke="none" d="M 24.018736134675446,6.953439040707552 L 24.277555179777966,5.987513214418485 A 206.2706696378144 206.2706696378144 0 0 0 52.282523005906405,11.448430886287838 L 52.15947201680187,12.440831235985684 A 207.2706696378144 207.2706696378144 0 0 1 24.018736134675446,6.953439040707552 Z M 98.6359197379118,12.95233696650513 L 98.53474002518901,11.957468801503694 A 206.2706696378144 206.2706696378144 0 0 0 126.65311230775617,7.114227640837536 L 125.9406196475198,4.2000632307348225 L 133.57157804136855,5.937438835303116 L 127.60310252140467,10.999780187641154 L 126.89060986116829,8.08561577753844 A 207.2706696378144 207.2706696378144 0 0 1 98.6359197379118,12.95233696650513"/><text text-anchor="middle" pointer-events="none" font-size="8px" fill="#000000" x="75.38881526667575" y="16.503494392616176" font-family="sans-serif">twowheeler</text></g><g class="relationship" transform="translate(-2.1543037042329707 -176.675156656566) rotate(510.7822823402236)"><path class="outline" fill="#A5ABB6" stroke="none" d="M 24.018736134675446,6.953439040707552 L 24.277555179777966,5.987513214418485 A 251.1533108227794 251.1533108227794 0 0 0 77.21038674996633,14.255134667053085 L 77.16232674840093,15.25397911753052 A 252.1533108227794 252.1533108227794 0 0 1 24.018736134675446,6.953439040707552 Z M 96.53101268088825,15.441100261543909 L 96.50225954893071,14.441513718315832 A 251.1533108227794 251.1533108227794 0 0 0 149.5849433524374,7.198109633294168 L 148.86461685671713,4.2858717069627055 L 156.50021959649752,6.002720797668811 L 150.5453786800644,11.081093535069451 L 149.82505218434414,8.168855608737989 A 252.1533108227794 252.1533108227794 0 0 1 96.53101268088825,15.441100261543909"/><text text-anchor="middle" pointer-events="none" font-size="8px" fill="#000000" x="86.84970257902725" y="18.03361152276983" transform="rotate(180 86.84970257902725 15.033611522769831)" font-family="sans-serif">trek</text></g><g class="relationship" transform="translate(-46.564326779131704 -51.84240857439277) rotate(289.58333062689064)"><path class="outline" fill="#A5ABB6" stroke="none" d="M 25 0.5 L 51.74265974667615 0.5 L 51.74265974667615 -0.5 L 25 -0.5 Z M 73.75437849667615 0.5 L 100.4970382433523 0.5 L 100.4970382433523 3.5 L 107.4970382433523 0 L 100.4970382433523 -3.5 L 100.4970382433523 -0.5 L 73.75437849667615 -0.5 Z"/><text text-anchor="middle" pointer-events="none" font-size="8px" fill="#000000" x="62.74851912167615" y="3" font-family="sans-serif">road</text></g><g class="relationship" transform="translate(-46.564326779131704 -51.84240857439277) rotate(289.58333062689064)"><path class="outline" fill="#A5ABB6" stroke="none" d="M 21.40063509461097,-12.933012701892217 L 21.90063509461097,-12.06698729810778 A 85.68437998621623 85.68437998621623 0 0 1 53.00405605566125,-22.7386023124442 L 52.86705595092867,-23.729173345385945 A 86.68437998621623 86.68437998621623 0 0 0 21.40063509461097,-12.933012701892217 Z M 72.26821954796402,-24.21924592601742 L 72.18140581679998,-23.22302136494629 A 85.68437998621623 85.68437998621623 0 0 1 103.78394536611071,-14.135356289209657 L 102.41702923911049,-11.464861896452637 L 110.24291830371047,-11.390967725001948 L 105.60650020211102,-17.69601547955235 L 104.2395840751108,-15.02552108679533 A 86.68437998621623 86.68437998621623 0 0 0 72.26821954796402,-24.21924592601742"/><text text-anchor="middle" pointer-events="none" font-size="8px" fill="#000000" x="62.56650546209922" y="-21.019035020611327" font-family="sans-serif">trek</text></g><g class="relationship" transform="translate(-2.1543037042329707 -176.675156656566) rotate(415.61684728538125)"><path class="outline" fill="#A5ABB6" stroke="none" d="M 25 0.5 L 75.11802454895574 0.5 L 75.11802454895574 -0.5 L 25 -0.5 Z M 94.45396204895574 0.5 L 144.5719865979115 0.5 L 144.5719865979115 3.5 L 151.5719865979115 0 L 144.5719865979115 -3.5 L 144.5719865979115 -0.5 L 94.45396204895574 -0.5 Z"/><text text-anchor="middle" pointer-events="none" font-size="8px" fill="#000000" x="84.78599329895574" y="3" font-family="sans-serif">trek</text></g><g class="relationship" transform="translate(-159.9241617020241 -88.43652622406944) rotate(469.9363873807804)"><path class="outline" fill="#A5ABB6" stroke="none" d="M 24.018736134675446,-6.953439040707552 L 24.277555179777966,-5.987513214418485 A 236.27700998251225 236.27700998251225 0 0 1 59.917960884339536,-12.657027071450926 L 59.8099834539468,-13.651180417029849 A 237.27700998251225 237.27700998251225 0 0 0 24.018736134675446,-6.953439040707552 Z M 106.2959124889904,-14.11926043436003 L 106.20797574700515,-13.123134373357203 A 236.27700998251225 236.27700998251225 0 0 1 141.97545582901165,-7.172646791808903 L 141.25750730050186,-4.259821718034203 L 148.89170575590427,-5.982904404248455 L 142.9327205336914,-11.056413556841838 L 142.2147720051816,-8.143588483067138 A 237.27700998251225 237.27700998251225 0 0 0 106.2959124889904,-14.11926043436003"/><text text-anchor="middle" pointer-events="none" font-size="8px" fill="#000000" x="83.04649120309801" y="-11.526454541994838" transform="rotate(180 83.04649120309801 -14.526454541994838)" font-family="sans-serif">twowheeler</text></g><g class="relationship" transform="translate(-218.96946602815368 74.35123487877021) rotate(350.24316204543356)"><path class="outline" fill="#A5ABB6" stroke="none" d="M 21.40063509461097,12.933012701892217 L 21.90063509461097,12.06698729810778 A 86.84896965481916 86.84896965481916 0 0 0 53.57319327810102,22.903766487449246 L 53.43787875807128,23.89456918257534 A 87.84896965481916 87.84896965481916 0 0 1 21.40063509461097,12.933012701892217 Z M 72.83872941221279,24.380638480629926 L 72.75320069719523,23.384302774701723 A 86.84896965481916 86.84896965481916 0 0 0 104.92869097344712,14.14717386102265 L 103.56067574394592,11.47724233908191 L 111.38653372955903,11.40012691250998 L 106.7527112794487,17.707082556943632 L 105.38469604994751,15.037151035002895 A 87.84896965481916 87.84896965481916 0 0 1 72.83872941221279,24.380638480629926"/><text text-anchor="middle" pointer-events="none" font-size="8px" fill="#000000" x="63.137363623322734" y="27.17514119381643" font-family="sans-serif">trek</text></g><g class="relationship" transform="translate(-218.96946602815368 74.35123487877021) rotate(350.24316204543356)"><path class="outline" fill="#A5ABB6" stroke="none" d="M 25 0.5 L 52.31212216453261 0.5 L 52.31212216453261 -0.5 L 25 -0.5 Z M 74.32384091453261 0.5 L 101.63596307906522 0.5 L 101.63596307906522 3.5 L 108.63596307906522 0 L 101.63596307906522 -3.5 L 101.63596307906522 -0.5 L 74.32384091453261 -0.5 Z"/><text text-anchor="middle" pointer-events="none" font-size="8px" fill="#000000" x="63.31798153953261" y="3" font-family="sans-serif">road</text></g><g class="relationship" transform="translate(-218.96946602815368 74.35123487877021) rotate(350.24316204543356)"><path class="outline" fill="#A5ABB6" stroke="none" d="M 21.40063509461097,-12.933012701892217 L 21.90063509461097,-12.06698729810778 A 86.84896965481916 86.84896965481916 0 0 1 40.405485188870365,-20.0506605825248 L 40.11855449951166,-21.008611927585775 A 87.84896965481916 87.84896965481916 0 0 0 21.40063509461097,-12.933012701892217 Z M 86.28586192204075,-22.165288565738706 L 86.04726217428754,-21.194170570656695 A 86.84896965481916 86.84896965481916 0 0 1 104.92869097344712,-14.14717386102265 L 103.56067574394592,-11.47724233908191 L 111.38653372955903,-11.40012691250998 L 106.7527112794487,-17.707082556943632 L 105.38469604994751,-15.037151035002895 A 87.84896965481916 87.84896965481916 0 0 0 86.28586192204075,-22.165288565738706"/><text text-anchor="middle" pointer-events="none" font-size="8px" fill="#000000" x="63.13736362332273" y="-21.17514119381643" font-family="sans-serif">twowheeler</text></g><g class="relationship" transform="translate(-159.9241617020241 -88.43652622406944) rotate(469.9363873807804)"><path class="outline" fill="#A5ABB6" stroke="none" d="M 24.018736134675446,6.953439040707552 L 24.277555179777966,5.987513214418485 A 236.27700998251225 236.27700998251225 0 0 0 73.40912494431028,13.732442999701902 L 73.35824644225157,14.731147850009677 A 237.27700998251225 237.27700998251225 0 0 1 24.018736134675446,6.953439040707552 Z M 92.72864975941742,14.926193940484836 L 92.69789201985883,13.926667071682772 A 236.27700998251225 236.27700998251225 0 0 0 141.97545582901165,7.172646791808903 L 141.25750730050186,4.259821718034203 L 148.89170575590427,5.982904404248455 L 142.9327205336914,11.056413556841838 L 142.2147720051816,8.143588483067138 A 237.27700998251225 237.27700998251225 0 0 1 92.72864975941742,14.926193940484836"/><text text-anchor="middle" pointer-events="none" font-size="8px" fill="#000000" x="83.04649120309801" y="17.526454541994838" transform="rotate(180 83.04649120309801 14.526454541994838)" font-family="sans-serif">trek</text></g><g class="relationship" transform="translate(-218.96946602815368 74.35123487877021) rotate(389.91670353793137)"><path class="outline" fill="#A5ABB6" stroke="none" d="M 25 0.5 L 70.02924221038336 0.5 L 70.02924221038336 -0.5 L 25 -0.5 Z M 89.36517971038336 0.5 L 134.39442192076672 0.5 L 134.39442192076672 3.5 L 141.39442192076672 0 L 134.39442192076672 -3.5 L 134.39442192076672 -0.5 L 89.36517971038336 -0.5 Z"/><text text-anchor="middle" pointer-events="none" font-size="8px" fill="#000000" x="79.69721096038336" y="3" font-family="sans-serif">trek</text></g><g class="relationship" transform="translate(-74.74687002202866 157.33886315913614) rotate(328.2389499161851)"><path class="outline" fill="#A5ABB6" stroke="none" d="M 25 0.5 L 69.94071132309008 0.5 L 69.94071132309008 -0.5 L 25 -0.5 Z M 89.27664882309008 0.5 L 134.21736014618017 0.5 L 134.21736014618017 3.5 L 141.21736014618017 0 L 134.21736014618017 -3.5 L 134.21736014618017 -0.5 L 89.27664882309008 -0.5 Z"/><text text-anchor="middle" pointer-events="none" font-size="8px" fill="#000000" x="79.60868007309008" y="3" font-family="sans-serif">trek</text></g></g><g class="layer nodes"><g class="node" aria-label="graph-node183" transform="translate(-46.564326779131704,-51.84240857439277)"><circle class="outline" cx="0" cy="0" r="25" fill="#57C7E3" stroke="#23b3d7" stroke-width="2px"/><text class="caption" text-anchor="middle" pointer-events="none" x="0" y="5" font-size="10px" fill="#2A2C34" font-family="sans-serif"> Darjeeling</text></g><g class="node" aria-label="graph-node185" transform="translate(66.57956068103357,69.84571600635896)"><circle class="outline" cx="0" cy="0" r="25" fill="#F16667" stroke="#eb2728" stroke-width="2px"/><text class="caption" text-anchor="middle" pointer-events="none" x="0" y="5" font-size="10px" fill="#FFFFFF" font-family="sans-serif"> Sandakp…</text></g><g class="node" aria-label="graph-node188" transform="translate(97.56019879851871,-30.95390068557952)"><circle class="outline" cx="0" cy="0" r="25" fill="#D9C8AE" stroke="#c0a378" stroke-width="2px"/><text class="caption" text-anchor="middle" pointer-events="none" x="0" y="5" font-size="10px" fill="#2A2C34" font-family="sans-serif"> Tumbling</text></g><g class="node" aria-label="graph-node189" transform="translate(253.03148546230295,-26.550359086576105)"><circle class="outline" cx="0" cy="0" r="25" fill="#D9C8AE" stroke="#c0a378" stroke-width="2px"/><text class="caption" text-anchor="middle" pointer-events="none" x="0" y="5" font-size="10px" fill="#2A2C34" font-family="sans-serif"> Gairibus</text></g><g class="node" aria-label="graph-node184" transform="translate(143.06710349920886,-119.14864671180999)"><circle class="outline" cx="0" cy="0" r="25" fill="#D9C8AE" stroke="#c0a378" stroke-width="2px"/><text class="caption" text-anchor="middle" pointer-events="none" x="0" y="5" font-size="10px" fill="#2A2C34" font-family="sans-serif"> BhikeBh…</text></g><g class="node" aria-label="graph-node182" transform="translate(-2.1543037042329707,-176.675156656566)"><circle class="outline" cx="0" cy="0" r="25" fill="#57C7E3" stroke="#23b3d7" stroke-width="2px"/><text class="caption" text-anchor="middle" pointer-events="none" x="0" y="5" font-size="10px" fill="#2A2C34" font-family="sans-serif"> Rimbik</text></g><g class="node" aria-label="graph-node186" transform="translate(-159.9241617020241,-88.43652622406944)"><circle class="outline" cx="0" cy="0" r="25" fill="#D9C8AE" stroke="#c0a378" stroke-width="2px"/><text class="caption" text-anchor="middle" pointer-events="none" x="0" y="5" font-size="10px" fill="#2A2C34" font-family="sans-serif"> Sirikhola</text></g><g class="node" aria-label="graph-node187" transform="translate(-87.26643476008283,51.70433259896964)"><circle class="outline" cx="0" cy="0" r="25" fill="#D9C8AE" stroke="#c0a378" stroke-width="2px"/><text class="caption" text-anchor="middle" pointer-events="none" x="0" y="5" font-size="10px" fill="#2A2C34" font-family="sans-serif"> Gurdum</text></g><g class="node" aria-label="graph-node190" transform="translate(-218.96946602815368,74.35123487877021)"><circle class="outline" cx="0" cy="0" r="25" fill="#D9C8AE" stroke="#c0a378" stroke-width="2px"/><text class="caption" text-anchor="middle" pointer-events="none" x="0" y="5" font-size="10px" fill="#2A2C34" font-family="sans-serif"> Rammam</text></g><g class="node" aria-label="graph-node191" transform="translate(-74.74687002202866,157.33886315913614)"><circle class="outline" cx="0" cy="0" r="25" fill="#F16667" stroke="#eb2728" stroke-width="2px"/><text class="caption" text-anchor="middle" pointer-events="none" x="0" y="5" font-size="10px" fill="#FFFFFF" font-family="sans-serif"> Sabargr…</text></g></g></svg>