<svg xmlns="http://www.w3.org/2000/svg" width="225.61090087890625" height="208.80032348632812" viewBox="-152.8789520263672 -118.20917510986328 225.61090087890625 208.80032348632812"><title>Neo4j Graph Visualization</title><desc>Created using Neo4j (http://www.neo4j.com/)</desc><g class="layer relationships"><g class="relationship" transform="translate(-120.48684219199615 -85.15041105422706) rotate(444.9681370566077)"><path class="outline" fill="#A5ABB6" stroke="none" d="M 21.40063509461097,12.933012701892217 L 21.90063509461097,12.06698729810778 A 100.79942805682535 100.79942805682535 0 0 0 60.4079782038329,24.867557426787073 L 60.289997664176596,25.86057333414324 A 101.79942805682535 101.79942805682535 0 0 1 21.40063509461097,12.933012701892217 Z M 79.68683901142812,26.303217248464634 L 79.61427976400012,25.305853144632593 A 100.79942805682535 100.79942805682535 0 0 0 118.66546119909785,14.275200513275916 L 117.28553931948353,11.611403297615217 L 125.11097501557519,11.499348996785958 L 120.5053570385836,17.826930134156846 L 119.12543515896928,15.16313291849615 A 101.79942805682535 101.79942805682535 0 0 1 79.68683901142812,26.303217248464634"/><text text-anchor="middle" pointer-events="none" font-size="8px" fill="#000000" x="69.98925611930609" y="29.045183355624317" font-family="sans-serif">trek</text></g><g class="relationship" transform="translate(-107.5663851052578 61.59115524148598) rotate(358.3340488970433)"><path class="outline" fill="#A5ABB6" stroke="none" d="M 25 0.5 L 62.209657207245385 0.5 L 62.209657207245385 -0.5 L 25 -0.5 Z M 81.54559470724539 0.5 L 118.75525191449077 0.5 L 118.75525191449077 3.5 L 125.75525191449077 0 L 118.75525191449077 -3.5 L 118.75525191449077 -0.5 L 81.54559470724539 -0.5 Z"/><text text-anchor="middle" pointer-events="none" font-size="8px" fill="#000000" x="71.87762595724539" y="3" font-family="sans-serif">trek</text></g><g class="relationship" transform="translate(43.125144560494576 57.208363118050734) rotate(270.23745414164534)"><path class="outline" fill="#A5ABB6" stroke="none" d="M 25 0.5 L 60.04142824941056 0.5 L 60.04142824941056 -0.5 L 25 -0.5 Z M 79.37736574941056 0.5 L 114.41879399882112 0.5 L 114.41879399882112 3.5 L 121.41879399882112 0 L 114.41879399882112 -3.5 L 114.41879399882112 -0.5 L 79.37736574941056 -0.5 Z"/><text text-anchor="middle" pointer-events="none" font-size="8px" fill="#000000" x="69.70939699941056" y="3" font-family="sans-serif">trek</text></g><g class="relationship" transform="translate(-120.48684219199615 -85.15041105422706) rotate(444.9681370566077)"><path class="outline" fill="#A5ABB6" stroke="none" d="M 25 0.5 L 59.14878319804049 0.5 L 59.14878319804049 -0.5 L 25 -0.5 Z M 81.16050194804049 0.5 L 115.30928514608098 0.5 L 115.30928514608098 3.5 L 122.30928514608098 0 L 115.30928514608098 -3.5 L 115.30928514608098 -0.5 L 81.16050194804049 -0.5 Z"/><text text-anchor="middle" pointer-events="none" font-size="8px" fill="#000000" x="70.15464257304049" y="3" font-family="sans-serif">road</text></g><g class="relationship" transform="translate(-120.48684219199615 -85.15041105422706) rotate(444.9681370566077)"><path class="outline" fill="#A5ABB6" stroke="none" d="M 21.40063509461097,-12.933012701892217 L 21.90063509461097,-12.06698729810778 A 100.79942805682535 100.79942805682535 0 0 1 39.87643111516903,-20.214325564138278 L 39.55476343676141,-21.16117819505179 A 101.79942805682535 101.79942805682535 0 0 0 21.40063509461097,-12.933012701892217 Z M 100.61486048273369,-22.55459477672133 L 100.33672030159333,-21.59405428323072 A 100.79942805682535 100.79942805682535 0 0 1 118.66546119909785,-14.275200513275916 L 117.28553931948353,-11.611403297615217 L 125.11097501557519,-11.499348996785958 L 120.5053570385836,-17.826930134156846 L 119.12543515896928,-15.16313291849615 A 101.79942805682535 101.79942805682535 0 0 0 100.61486048273369,-22.55459477672133"/><text text-anchor="middle" pointer-events="none" font-size="8px" fill="#000000" x="69.98925611930608" y="-23.045183355624317" font-family="sans-serif">PublicTransport</text></g></g><g class="layer nodes"><g class="node" aria-label="graph-node183" transform="translate(-120.48684219199615,-85.15041105422706)"><circle class="outline" cx="0" cy="0" r="25" fill="#57C7E3" stroke="#23b3d7" stroke-width="2px"/><text class="caption" text-anchor="middle" pointer-events="none" x="0" y="5" font-size="10px" fill="#2A2C34" font-family="sans-serif"> Darjeeling</text></g><g class="node" aria-label="graph-node185" transform="translate(43.73195451785264,-89.20917346054654)"><circle class="outline" cx="0" cy="0" r="25" fill="#F16667" stroke="#eb2728" stroke-width="2px"/><text class="caption" text-anchor="middle" pointer-events="none" x="0" y="5" font-size="10px" fill="#FFFFFF" font-family="sans-serif"> Sandakp…</text></g><g class="node" aria-label="graph-node182" transform="translate(-107.5663851052578,61.59115524148598)"><circle class="outline" cx="0" cy="0" r="25" fill="#57C7E3" stroke="#23b3d7" stroke-width="2px"/><text class="caption" text-anchor="middle" pointer-events="none" x="0" y="5" font-size="10px" fill="#2A2C34" font-family="sans-serif"> Rimbik</text></g><g class="node" aria-label="graph-node184" transform="translate(43.125144560494576,57.208363118050734)"><circle class="outline" cx="0" cy="0" r="25" fill="#D9C8AE" stroke="#c0a378" stroke-width="2px"/><text class="caption" text-anchor="middle" pointer-events="none" x="0" y="5" font-size="10px" fill="#2A2C34" font-family="sans-serif"> BhikeBh…</text></g></g></svg>