<svg xmlns="http://www.w3.org/2000/svg" width="252.80079650878906" height="219.26895141601562" viewBox="-114.87010192871094 -124.91796875 252.80079650878906 219.26895141601562"><title>Neo4j Graph Visualization</title><desc>Created using Neo4j (http://www.neo4j.com/)</desc><g class="layer relationships"><g class="relationship" transform="translate(105.05980953511502 -85.99134274483896) rotate(536.5993473135343)"><path class="outline" fill="#A5ABB6" stroke="none" d="M 21.40063509461097,12.933012701892217 L 21.90063509461097,12.06698729810778 A 145.37933905179483 145.37933905179483 0 0 0 82.39152678820109,31.031421860791212 L 82.30761680544927,32.027895199518625 A 146.37933905179483 146.37933905179483 0 0 1 21.40063509461097,12.933012701892217 Z M 101.69257908135377,32.37172408138973 L 101.64405943024144,31.372901853235007 A 145.37933905179483 145.37933905179483 0 0 0 162.76943105234545,14.565561188286559 L 161.36250912912334,11.915925231790462 L 169.18640193804004,11.724349360184302 L 164.64532694997496,18.098409130281354 L 163.23840502675284,15.448773173785256 A 146.37933905179483 146.37933905179483 0 0 1 101.69257908135377,32.37172408138973"/><text text-anchor="middle" pointer-events="none" font-size="8px" fill="#000000" x="92.00326620003229" y="35.0211843459946" transform="rotate(180 92.00326620003229 32.0211843459946)" font-family="sans-serif">trek</text></g><g class="relationship" transform="translate(-85.87010050286764 -74.6458333044438) rotate(449.1249056497162)"><path class="outline" fill="#A5ABB6" stroke="none" d="M 25 0.5 L 56.83860169537493 0.5 L 56.83860169537493 -0.5 L 25 -0.5 Z M 76.17453919537493 0.5 L 108.01314089074987 0.5 L 108.01314089074987 3.5 L 115.01314089074987 0 L 108.01314089074987 -3.5 L 108.01314089074987 -0.5 L 76.17453919537493 -0.5 Z"/><text text-anchor="middle" pointer-events="none" font-size="8px" fill="#000000" x="66.50657044537493" y="3" font-family="sans-serif">trek</text></g><g class="relationship" transform="translate(-83.73172406331463 65.35097726028205) rotate(356.30950090659155)"><path class="outline" fill="#A5ABB6" stroke="none" d="M 25 0.5 L 83.36341998852018 0.5 L 83.36341998852018 -0.5 L 25 -0.5 Z M 102.69935748852018 0.5 L 161.06277747704036 0.5 L 161.06277747704036 3.5 L 168.06277747704036 0 L 161.06277747704036 -3.5 L 161.06277747704036 -0.5 L 102.69935748852018 -0.5 Z"/><text text-anchor="middle" pointer-events="none" font-size="8px" fill="#000000" x="93.03138873852018" y="3" font-family="sans-serif">trek</text></g><g class="relationship" transform="translate(105.05980953511502 -85.99134274483896) rotate(536.5993473135343)"><path class="outline" fill="#A5ABB6" stroke="none" d="M 25 0.5 L 81.12749141275376 0.5 L 81.12749141275376 -0.5 L 25 -0.5 Z M 103.13921016275376 0.5 L 159.2667015755075 0.5 L 159.2667015755075 3.5 L 166.2667015755075 0 L 159.2667015755075 -3.5 L 159.2667015755075 -0.5 L 103.13921016275376 -0.5 Z"/><text text-anchor="middle" pointer-events="none" font-size="8px" fill="#000000" x="92.13335078775376" y="3" transform="rotate(180 92.13335078775376 0)" font-family="sans-serif">road</text></g><g class="relationship" transform="translate(105.05980953511502 -85.99134274483896) rotate(536.5993473135343)"><path class="outline" fill="#A5ABB6" stroke="none" d="M 21.40063509461097,-12.933012701892217 L 21.90063509461097,-12.06698729810778 A 145.37933905179483 145.37933905179483 0 0 1 61.54586340590472,-27.738855899072703 L 61.31856534945372,-28.712681136748145 A 146.37933905179483 146.37933905179483 0 0 0 21.40063509461097,-12.933012701892217 Z M 122.785994666206,-29.8029219735714 L 122.59337397104272,-28.821648684525584 A 145.37933905179483 145.37933905179483 0 0 1 162.76943105234545,-14.565561188286559 L 161.36250912912334,-11.915925231790462 L 169.18640193804004,-11.724349360184302 L 164.64532694997496,-18.098409130281354 L 163.23840502675284,-15.448773173785256 A 146.37933905179483 146.37933905179483 0 0 0 122.785994666206,-29.8029219735714"/><text text-anchor="middle" pointer-events="none" font-size="8px" fill="#000000" x="92.00326620003227" y="-29.021184345994598" transform="rotate(180 92.00326620003227 -32.0211843459946)" font-family="sans-serif">PublicTransport</text></g></g><g class="layer nodes"><g class="node" aria-label="graph-node183" transform="translate(105.05980953511502,-85.99134274483896)"><circle class="outline" cx="0" cy="0" r="25" fill="#57C7E3" stroke="#23b3d7" stroke-width="2px"/><text class="caption" text-anchor="middle" pointer-events="none" x="0" y="5" font-size="10px" fill="#2A2C34" font-family="sans-serif"> Darjeeling</text></g><g class="node" aria-label="graph-node185" transform="translate(108.93070018142575,52.92413810911936)"><circle class="outline" cx="0" cy="0" r="25" fill="#F16667" stroke="#eb2728" stroke-width="2px"/><text class="caption" text-anchor="middle" pointer-events="none" x="0" y="5" font-size="10px" fill="#FFFFFF" font-family="sans-serif"> Sandakp…</text></g><g class="node" aria-label="graph-node182" transform="translate(-85.87010050286764,-74.6458333044438)"><circle class="outline" cx="0" cy="0" r="25" fill="#57C7E3" stroke="#23b3d7" stroke-width="2px"/><text class="caption" text-anchor="middle" pointer-events="none" x="0" y="5" font-size="10px" fill="#2A2C34" font-family="sans-serif"> Rimbik</text></g><g class="node" aria-label="graph-node184" transform="translate(-83.73172406331463,65.35097726028205)"><circle class="outline" cx="0" cy="0" r="25" fill="#D9C8AE" stroke="#c0a378" stroke-width="2px"/><text class="caption" text-anchor="middle" pointer-events="none" x="0" y="5" font-size="10px" fill="#2A2C34" font-family="sans-serif"> BhikeBh…</text></g></g></svg>