<svg xmlns="http://www.w3.org/2000/svg" width="741.0938720703125" height="688.0169677734375" viewBox="-351.4552001953125 -383.6469421386719 741.0938720703125 688.0169677734375"><title>Neo4j Graph Visualization</title><desc>Created using Neo4j (http://www.neo4j.com/)</desc><g class="layer relationships"><g class="relationship" transform="translate(127.67113845187532 95.2419048436727) rotate(189.72136602909035)"><path class="outline" fill="#A5ABB6" stroke="none" d="M 25 0.5 L 40.09598544524579 0.5 L 40.09598544524579 -0.5 L 25 -0.5 Z M 74.54129794524579 0.5 L 89.63728339049158 0.5 L 89.63728339049158 3.5 L 96.63728339049158 0 L 89.63728339049158 -3.5 L 89.63728339049158 -0.5 L 74.54129794524579 -0.5 Z"/><text text-anchor="middle" pointer-events="none" font-size="8px" fill="#000000" x="57.31864169524579" y="3" transform="rotate(180 57.31864169524579 0)" font-family="sans-serif">ORIGIN</text></g><g class="relationship" transform="translate(127.67113845187532 95.2419048436727) rotate(224.35485854511347)"><path class="outline" fill="#A5ABB6" stroke="none" d="M 25 0.5 L 51.63412833263219 0.5 L 51.63412833263219 -0.5 L 25 -0.5 Z M 110.82162833263219 0.5 L 137.45575666526437 0.5 L 137.45575666526437 3.5 L 144.45575666526437 0 L 137.45575666526437 -3.5 L 137.45575666526437 -0.5 L 110.82162833263219 -0.5 Z"/><text text-anchor="middle" pointer-events="none" font-size="8px" fill="#000000" x="81.22787833263219" y="3" transform="rotate(180 81.22787833263219 0)" font-family="sans-serif">DESTINATION</text></g><g class="relationship" transform="translate(168.58905101818812 185.33447125273315) rotate(214.52690307588927)"><path class="outline" fill="#A5ABB6" stroke="none" d="M 25 0.5 L 76.87191435806518 0.5 L 76.87191435806518 -0.5 L 25 -0.5 Z M 111.31722685806518 0.5 L 163.18914121613037 0.5 L 163.18914121613037 3.5 L 170.18914121613037 0 L 163.18914121613037 -3.5 L 163.18914121613037 -0.5 L 111.31722685806518 -0.5 Z"/><text text-anchor="middle" pointer-events="none" font-size="8px" fill="#000000" x="94.09457060806518" y="3" transform="rotate(180 94.09457060806518 0)" font-family="sans-serif">ORIGIN</text></g><g class="relationship" transform="translate(168.58905101818812 185.33447125273315) rotate(401.87371878781335)"><path class="outline" fill="#A5ABB6" stroke="none" d="M 25 0.5 L 32.326111409402 0.5 L 32.326111409402 -0.5 L 25 -0.5 Z M 91.513611409402 0.5 L 98.839722818804 0.5 L 98.839722818804 3.5 L 105.839722818804 0 L 98.839722818804 -3.5 L 98.839722818804 -0.5 L 91.513611409402 -0.5 Z"/><text text-anchor="middle" pointer-events="none" font-size="8px" fill="#000000" x="61.919861409402" y="3" font-family="sans-serif">DESTINATION</text></g><g class="relationship" transform="translate(125.57961154137448 -2.8124313897094493) rotate(506.65399099405784)"><path class="outline" fill="#A5ABB6" stroke="none" d="M 25 0.5 L 49.78481178573456 0.5 L 49.78481178573456 -0.5 L 25 -0.5 Z M 84.23012428573456 0.5 L 109.01493607146912 0.5 L 109.01493607146912 3.5 L 116.01493607146912 0 L 109.01493607146912 -3.5 L 109.01493607146912 -0.5 L 84.23012428573456 -0.5 Z"/><text text-anchor="middle" pointer-events="none" font-size="8px" fill="#000000" x="67.00746803573456" y="3" transform="rotate(180 67.00746803573456 0)" font-family="sans-serif">ORIGIN</text></g><g class="relationship" transform="translate(125.57961154137448 -2.8124313897094493) rotate(189.72741230248823)"><path class="outline" fill="#A5ABB6" stroke="none" d="M 25 0.5 L 27.311387623088272 0.5 L 27.311387623088272 -0.5 L 25 -0.5 Z M 86.49888762308828 0.5 L 88.81027524617654 0.5 L 88.81027524617654 3.5 L 95.81027524617654 0 L 88.81027524617654 -3.5 L 88.81027524617654 -0.5 L 86.49888762308828 -0.5 Z"/><text text-anchor="middle" pointer-events="none" font-size="8px" fill="#000000" x="56.90513762308827" y="3" transform="rotate(180 56.90513762308827 0)" font-family="sans-serif">DESTINATION</text></g><g class="relationship" transform="translate(223.66166244145674 1.1339218958293205) rotate(521.1817501797942)"><path class="outline" fill="#A5ABB6" stroke="none" d="M 25 0.5 L 93.31355360917486 0.5 L 93.31355360917486 -0.5 L 25 -0.5 Z M 127.75886610917486 0.5 L 196.07241971834972 0.5 L 196.07241971834972 3.5 L 203.07241971834972 0 L 196.07241971834972 -3.5 L 196.07241971834972 -0.5 L 127.75886610917486 -0.5 Z"/><text text-anchor="middle" pointer-events="none" font-size="8px" fill="#000000" x="110.53620985917486" y="3" transform="rotate(180 110.53620985917486 0)" font-family="sans-serif">ORIGIN</text></g><g class="relationship" transform="translate(223.66166244145674 1.1339218958293205) rotate(323.7611526459073)"><path class="outline" fill="#A5ABB6" stroke="none" d="M 25 0.5 L 51.8206441592059 0.5 L 51.8206441592059 -0.5 L 25 -0.5 Z M 111.0081441592059 0.5 L 137.8287883184118 0.5 L 137.8287883184118 3.5 L 144.8287883184118 0 L 137.8287883184118 -3.5 L 137.8287883184118 -0.5 L 111.0081441592059 -0.5 Z"/><text text-anchor="middle" pointer-events="none" font-size="8px" fill="#000000" x="81.4143941592059" y="3" font-family="sans-serif">DESTINATION</text></g><g class="relationship" transform="translate(80.7832096991601 -90.78013236080692) rotate(473.80467482329)"><path class="outline" fill="#A5ABB6" stroke="none" d="M 25 0.5 L 69.71230983306502 0.5 L 69.71230983306502 -0.5 L 25 -0.5 Z M 104.15762233306502 0.5 L 148.86993216613004 0.5 L 148.86993216613004 3.5 L 155.86993216613004 0 L 148.86993216613004 -3.5 L 148.86993216613004 -0.5 L 104.15762233306502 -0.5 Z"/><text text-anchor="middle" pointer-events="none" font-size="8px" fill="#000000" x="86.93496608306502" y="3" transform="rotate(180 86.93496608306502 0)" font-family="sans-serif">ORIGIN</text></g><g class="relationship" transform="translate(80.7832096991601 -90.78013236080692) rotate(497.7132302745256)"><path class="outline" fill="#A5ABB6" stroke="none" d="M 25 0.5 L 25.03364692145842 0.5 L 25.03364692145842 -0.5 L 25 -0.5 Z M 68.36958442145843 0.5 L 68.40323134291684 0.5 L 68.40323134291684 3.5 L 75.40323134291684 0 L 68.40323134291684 -3.5 L 68.40323134291684 -0.5 L 68.36958442145843 -0.5 Z"/><text text-anchor="middle" pointer-events="none" font-size="8px" fill="#000000" x="46.70161567145842" y="3" transform="rotate(180 46.70161567145842 0)" font-family="sans-serif">DESTIN…</text></g><g class="relationship" transform="translate(177.97989766201118 -86.52981218704943) rotate(496.54977577637817)"><path class="outline" fill="#A5ABB6" stroke="none" d="M 25 0.5 L 96.49906554475002 0.5 L 96.49906554475002 -0.5 L 25 -0.5 Z M 130.94437804475 0.5 L 202.44344358950005 0.5 L 202.44344358950005 3.5 L 209.44344358950005 0 L 202.44344358950005 -3.5 L 202.44344358950005 -0.5 L 130.94437804475 -0.5 Z"/><text text-anchor="middle" pointer-events="none" font-size="8px" fill="#000000" x="113.72172179475002" y="3" transform="rotate(180 113.72172179475002 0)" font-family="sans-serif">ORIGIN</text></g><g class="relationship" transform="translate(177.97989766201118 -86.52981218704943) rotate(230.4265903612154)"><path class="outline" fill="#A5ABB6" stroke="none" d="M 25 0.5 L 62.81371368624043 0.5 L 62.81371368624043 -0.5 L 25 -0.5 Z M 122.00121368624043 0.5 L 159.81492737248087 0.5 L 159.81492737248087 3.5 L 166.81492737248087 0 L 159.81492737248087 -3.5 L 159.81492737248087 -0.5 L 122.00121368624043 -0.5 Z"/><text text-anchor="middle" pointer-events="none" font-size="8px" fill="#000000" x="92.40746368624043" y="3" transform="rotate(180 92.40746368624043 0)" font-family="sans-serif">DESTINATION</text></g><g class="relationship" transform="translate(-11.636705066536797 -120.24866121316234) rotate(444.31208282312264)"><path class="outline" fill="#A5ABB6" stroke="none" d="M 25 0.5 L 77.23527336009738 0.5 L 77.23527336009738 -0.5 L 25 -0.5 Z M 111.68058586009738 0.5 L 163.91585922019476 0.5 L 163.91585922019476 3.5 L 170.91585922019476 0 L 163.91585922019476 -3.5 L 163.91585922019476 -0.5 L 111.68058586009738 -0.5 Z"/><text text-anchor="middle" pointer-events="none" font-size="8px" fill="#000000" x="94.45792961009738" y="3" font-family="sans-serif">ORIGIN</text></g><g class="relationship" transform="translate(-11.636705066536797 -120.24866121316234) rotate(439.40832368941386)"><path class="outline" fill="#A5ABB6" stroke="none" d="M 25 0.5 L 27.07357950820169 0.5 L 27.07357950820169 -0.5 L 25 -0.5 Z M 64.63217325820169 0.5 L 66.70575276640338 0.5 L 66.70575276640338 3.5 L 73.70575276640338 0 L 66.70575276640338 -3.5 L 66.70575276640338 -0.5 L 64.63217325820169 -0.5 Z"/><text text-anchor="middle" pointer-events="none" font-size="8px" fill="#000000" x="45.85287638320169" y="3" font-family="sans-serif">DESTI…</text></g><g class="relationship" transform="translate(225.81952524554646 105.30797853261207) rotate(187.99020418585098)"><path class="outline" fill="#A5ABB6" stroke="none" d="M 25 0.5 L 89.3656113602618 0.5 L 89.3656113602618 -0.5 L 25 -0.5 Z M 123.8109238602618 0.5 L 188.1765352205236 0.5 L 188.1765352205236 3.5 L 195.1765352205236 0 L 188.1765352205236 -3.5 L 188.1765352205236 -0.5 L 123.8109238602618 -0.5 Z"/><text text-anchor="middle" pointer-events="none" font-size="8px" fill="#000000" x="106.5882676102618" y="3" transform="rotate(180 106.5882676102618 0)" font-family="sans-serif">ORIGIN</text></g><g class="relationship" transform="translate(225.81952524554646 105.30797853261207) rotate(436.4950381064017)"><path class="outline" fill="#A5ABB6" stroke="none" d="M 25 0.5 L 52.96625487524827 0.5 L 52.96625487524827 -0.5 L 25 -0.5 Z M 112.15375487524827 0.5 L 140.12000975049654 0.5 L 140.12000975049654 3.5 L 147.12000975049654 0 L 140.12000975049654 -3.5 L 140.12000975049654 -0.5 L 112.15375487524827 -0.5 Z"/><text text-anchor="middle" pointer-events="none" font-size="8px" fill="#000000" x="82.56000487524827" y="3" font-family="sans-serif">DESTINATION</text></g><g class="relationship" transform="translate(132.3082696507966 -173.91615003192896) rotate(476.6053014504113)"><path class="outline" fill="#A5ABB6" stroke="none" d="M 25 0.5 L 118.30832178524884 0.5 L 118.30832178524884 -0.5 L 25 -0.5 Z M 152.75363428524884 0.5 L 246.06195607049767 0.5 L 246.06195607049767 3.5 L 253.06195607049767 0 L 246.06195607049767 -3.5 L 246.06195607049767 -0.5 L 152.75363428524884 -0.5 Z"/><text text-anchor="middle" pointer-events="none" font-size="8px" fill="#000000" x="135.53097803524884" y="3" transform="rotate(180 135.53097803524884 0)" font-family="sans-serif">ORIGIN</text></g><g class="relationship" transform="translate(132.3082696507966 -173.91615003192896) rotate(246.5768675431783)"><path class="outline" fill="#A5ABB6" stroke="none" d="M 25 0.5 L 65.3870308497293 0.5 L 65.3870308497293 -0.5 L 25 -0.5 Z M 124.5745308497293 0.5 L 164.9615616994586 0.5 L 164.9615616994586 3.5 L 171.9615616994586 0 L 164.9615616994586 -3.5 L 164.9615616994586 -0.5 L 124.5745308497293 -0.5 Z"/><text text-anchor="middle" pointer-events="none" font-size="8px" fill="#000000" x="94.9807808497293" y="3" transform="rotate(180 94.9807808497293 0)" font-family="sans-serif">DESTINATION</text></g><g class="relationship" transform="translate(-164.3525793842959 -44.242568460276345) rotate(394.644747332316)"><path class="outline" fill="#A5ABB6" stroke="none" d="M 25 0.5 L 83.89300976626473 0.5 L 83.89300976626473 -0.5 L 25 -0.5 Z M 118.33832226626473 0.5 L 177.23133203252945 0.5 L 177.23133203252945 3.5 L 184.23133203252945 0 L 177.23133203252945 -3.5 L 177.23133203252945 -0.5 L 118.33832226626473 -0.5 Z"/><text text-anchor="middle" pointer-events="none" font-size="8px" fill="#000000" x="101.11566601626473" y="3" font-family="sans-serif">ORIGIN</text></g><g class="relationship" transform="translate(-164.3525793842959 -44.242568460276345) rotate(496.9458600128991)"><path class="outline" fill="#A5ABB6" stroke="none" d="M 25 0.5 L 75.09064548650221 0.5 L 75.09064548650221 -0.5 L 25 -0.5 Z M 134.2781454865022 0.5 L 184.36879097300442 0.5 L 184.36879097300442 3.5 L 191.36879097300442 0 L 184.36879097300442 -3.5 L 184.36879097300442 -0.5 L 134.2781454865022 -0.5 Z"/><text text-anchor="middle" pointer-events="none" font-size="8px" fill="#000000" x="104.68439548650221" y="3" transform="rotate(180 104.68439548650221 0)" font-family="sans-serif">DESTINATION</text></g><g class="relationship" transform="translate(-110.32474700480762 -126.16078216434983) rotate(419.5449863481678)"><path class="outline" fill="#A5ABB6" stroke="none" d="M 25 0.5 L 95.78372657509739 0.5 L 95.78372657509739 -0.5 L 25 -0.5 Z M 130.22903907509738 0.5 L 201.01276565019478 0.5 L 201.01276565019478 3.5 L 208.01276565019478 0 L 201.01276565019478 -3.5 L 201.01276565019478 -0.5 L 130.22903907509738 -0.5 Z"/><text text-anchor="middle" pointer-events="none" font-size="8px" fill="#000000" x="113.00638282509739" y="3" font-family="sans-serif">ORIGIN</text></g><g class="relationship" transform="translate(-110.32474700480762 -126.16078216434983) rotate(401.3822650051427)"><path class="outline" fill="#A5ABB6" stroke="none" d="M 25 0.5 L 44.76081069078231 0.5 L 44.76081069078231 -0.5 L 25 -0.5 Z M 103.94831069078231 0.5 L 123.70912138156461 0.5 L 123.70912138156461 3.5 L 130.70912138156461 0 L 123.70912138156461 -3.5 L 123.70912138156461 -0.5 L 103.94831069078231 -0.5 Z"/><text text-anchor="middle" pointer-events="none" font-size="8px" fill="#000000" x="74.35456069078231" y="3" font-family="sans-serif">DESTINATION</text></g><g class="relationship" transform="translate(-53.92563287911154 -208.47577896221506) rotate(437.7070969878562)"><path class="outline" fill="#A5ABB6" stroke="none" d="M 25 0.5 L 124.18907857580302 0.5 L 124.18907857580302 -0.5 L 25 -0.5 Z M 158.63439107580302 0.5 L 257.82346965160605 0.5 L 257.82346965160605 3.5 L 264.82346965160605 0 L 257.82346965160605 -3.5 L 257.82346965160605 -0.5 L 158.63439107580302 -0.5 Z"/><text text-anchor="middle" pointer-events="none" font-size="8px" fill="#000000" x="141.41173482580302" y="3" font-family="sans-serif">ORIGIN</text></g><g class="relationship" transform="translate(-53.92563287911154 -208.47577896221506) rotate(306.4434982830555)"><path class="outline" fill="#A5ABB6" stroke="none" d="M 25 0.5 L 57.75864743265467 0.5 L 57.75864743265467 -0.5 L 25 -0.5 Z M 116.94614743265467 0.5 L 149.70479486530934 0.5 L 149.70479486530934 3.5 L 156.70479486530934 0 L 149.70479486530934 -3.5 L 149.70479486530934 -0.5 L 116.94614743265467 -0.5 Z"/><text text-anchor="middle" pointer-events="none" font-size="8px" fill="#000000" x="87.35239743265467" y="3" font-family="sans-serif">DESTINATION</text></g><g class="relationship" transform="translate(-252.5874190452549 -3.4956316008648147) rotate(376.71698071721704)"><path class="outline" fill="#A5ABB6" stroke="none" d="M 25 0.5 L 115.20601620508745 0.5 L 115.20601620508745 -0.5 L 25 -0.5 Z M 149.65132870508745 0.5 L 239.8573449101749 0.5 L 239.8573449101749 3.5 L 246.8573449101749 0 L 239.8573449101749 -3.5 L 239.8573449101749 -0.5 L 149.65132870508745 -0.5 Z"/><text text-anchor="middle" pointer-events="none" font-size="8px" fill="#000000" x="132.42867245508745" y="3" font-family="sans-serif">ORIGIN</text></g><g class="relationship" transform="translate(-252.5874190452549 -3.4956316008648147) rotate(483.1517380260257)"><path class="outline" fill="#A5ABB6" stroke="none" d="M 25 0.5 L 30.787317077906252 0.5 L 30.787317077906252 -0.5 L 25 -0.5 Z M 89.97481707790625 0.5 L 95.7621341558125 0.5 L 95.7621341558125 3.5 L 102.7621341558125 0 L 95.7621341558125 -3.5 L 95.7621341558125 -0.5 L 89.97481707790625 -0.5 Z"/><text text-anchor="middle" pointer-events="none" font-size="8px" fill="#000000" x="60.38106707790625" y="3" transform="rotate(180 60.38106707790625 0)" font-family="sans-serif">DESTINATION</text></g><g class="relationship" transform="translate(-84.29456186212937 13.879945285194657) rotate(393.4478306484008)"><path class="outline" fill="#A5ABB6" stroke="none" d="M 25 0.5 L 34.45254745483281 0.5 L 34.45254745483281 -0.5 L 25 -0.5 Z M 68.89785995483281 0.5 L 78.35040740966562 0.5 L 78.35040740966562 3.5 L 85.35040740966562 0 L 78.35040740966562 -3.5 L 78.35040740966562 -0.5 L 68.89785995483281 -0.5 Z"/><text text-anchor="middle" pointer-events="none" font-size="8px" fill="#000000" x="51.67520370483281" y="3" font-family="sans-serif">ORIGIN</text></g><g class="relationship" transform="translate(-84.29456186212937 13.879945285194657) rotate(433.70887019663024)"><path class="outline" fill="#A5ABB6" stroke="none" d="M 25 0.5 L 58.27137382781051 0.5 L 58.27137382781051 -0.5 L 25 -0.5 Z M 117.4588738278105 0.5 L 150.730247655621 0.5 L 150.730247655621 3.5 L 157.730247655621 0 L 150.730247655621 -3.5 L 150.730247655621 -0.5 L 117.4588738278105 -0.5 Z"/><text text-anchor="middle" pointer-events="none" font-size="8px" fill="#000000" x="87.8651238278105" y="3" font-family="sans-serif">DESTINATION</text></g><g class="relationship" transform="translate(122.8448861127762 273.73746499516375) rotate(239.96728906836302)"><path class="outline" fill="#A5ABB6" stroke="none" d="M 25 0.5 L 94.22808226914577 0.5 L 94.22808226914577 -0.5 L 25 -0.5 Z M 128.67339476914577 0.5 L 197.90147703829155 0.5 L 197.90147703829155 3.5 L 204.90147703829155 0 L 197.90147703829155 -3.5 L 197.90147703829155 -0.5 L 128.67339476914577 -0.5 Z"/><text text-anchor="middle" pointer-events="none" font-size="8px" fill="#000000" x="111.45073851914577" y="3" transform="rotate(180 111.45073851914577 0)" font-family="sans-serif">ORIGIN</text></g><g class="relationship" transform="translate(122.8448861127762 273.73746499516375) rotate(359.57234120493627)"><path class="outline" fill="#A5ABB6" stroke="none" d="M 25 0.5 L 38.4931197514303 0.5 L 38.4931197514303 -0.5 L 25 -0.5 Z M 97.6806197514303 0.5 L 111.1737395028606 0.5 L 111.1737395028606 3.5 L 118.1737395028606 0 L 111.1737395028606 -3.5 L 111.1737395028606 -0.5 L 97.6806197514303 -0.5 Z"/><text text-anchor="middle" pointer-events="none" font-size="8px" fill="#000000" x="68.0868697514303" y="3" font-family="sans-serif">DESTINATION</text></g><g class="relationship" transform="translate(-174.04831587041292 52.25175802843988) rotate(367.0388238612634)"><path class="outline" fill="#A5ABB6" stroke="none" d="M 25 0.5 L 70.88214408145265 0.5 L 70.88214408145265 -0.5 L 25 -0.5 Z M 105.32745658145265 0.5 L 151.2096006629053 0.5 L 151.2096006629053 3.5 L 158.2096006629053 0 L 151.2096006629053 -3.5 L 151.2096006629053 -0.5 L 105.32745658145265 -0.5 Z"/><text text-anchor="middle" pointer-events="none" font-size="8px" fill="#000000" x="88.10480033145265" y="3" font-family="sans-serif">ORIGIN</text></g><g class="relationship" transform="translate(-174.04831587041292 52.25175802843988) rotate(337.3138304653321)"><path class="outline" fill="#A5ABB6" stroke="none" d="M 25 0.5 L 64.75388906126544 0.5 L 64.75388906126544 -0.5 L 25 -0.5 Z M 123.94138906126544 0.5 L 163.69527812253088 0.5 L 163.69527812253088 3.5 L 170.69527812253088 0 L 163.69527812253088 -3.5 L 163.69527812253088 -0.5 L 123.94138906126544 -0.5 Z"/><text text-anchor="middle" pointer-events="none" font-size="8px" fill="#000000" x="94.34763906126544" y="3" font-family="sans-serif">DESTINATION</text></g><g class="relationship" transform="translate(-130.34965790121475 214.35145134887293) rotate(314.6867519137039)"><path class="outline" fill="#A5ABB6" stroke="none" d="M 25 0.5 L 77.48851936062749 0.5 L 77.48851936062749 -0.5 L 25 -0.5 Z M 111.93383186062749 0.5 L 164.42235122125498 0.5 L 164.42235122125498 3.5 L 171.42235122125498 0 L 164.42235122125498 -3.5 L 164.42235122125498 -0.5 L 111.93383186062749 -0.5 Z"/><text text-anchor="middle" pointer-events="none" font-size="8px" fill="#000000" x="94.71117561062749" y="3" font-family="sans-serif">ORIGIN</text></g><g class="relationship" transform="translate(-130.34965790121475 214.35145134887293) rotate(209.99311403962474)"><path class="outline" fill="#A5ABB6" stroke="none" d="M 25 0.5 L 77.81073575008567 0.5 L 77.81073575008567 -0.5 L 25 -0.5 Z M 136.99823575008566 0.5 L 189.80897150017134 0.5 L 189.80897150017134 3.5 L 196.80897150017134 0 L 189.80897150017134 -3.5 L 189.80897150017134 -0.5 L 136.99823575008566 -0.5 Z"/><text text-anchor="middle" pointer-events="none" font-size="8px" fill="#000000" x="107.40448575008567" y="3" transform="rotate(180 107.40448575008567 0)" font-family="sans-serif">DESTINATION</text></g><g class="relationship" transform="translate(-202.13718922578002 148.09649587888737) rotate(340.7287518100636)"><path class="outline" fill="#A5ABB6" stroke="none" d="M 25 0.5 L 90.4664824917745 0.5 L 90.4664824917745 -0.5 L 25 -0.5 Z M 124.9117949917745 0.5 L 190.378277483549 0.5 L 190.378277483549 3.5 L 197.378277483549 0 L 190.378277483549 -3.5 L 190.378277483549 -0.5 L 124.9117949917745 -0.5 Z"/><text text-anchor="middle" pointer-events="none" font-size="8px" fill="#000000" x="107.6891387417745" y="3" font-family="sans-serif">ORIGIN</text></g><g class="relationship" transform="translate(-202.13718922578002 148.09649587888737) rotate(200.35002534135998)"><path class="outline" fill="#A5ABB6" stroke="none" d="M 25 0.5 L 31.06998706018203 0.5 L 31.06998706018203 -0.5 L 25 -0.5 Z M 90.25748706018203 0.5 L 96.32747412036406 0.5 L 96.32747412036406 3.5 L 103.32747412036406 0 L 96.32747412036406 -3.5 L 96.32747412036406 -0.5 L 90.25748706018203 -0.5 Z"/><text text-anchor="middle" pointer-events="none" font-size="8px" fill="#000000" x="60.66373706018203" y="3" transform="rotate(180 60.66373706018203 0)" font-family="sans-serif">DESTINATION</text></g><g class="relationship" transform="translate(-101.39709376500903 119.21982752419669) rotate(337.81679437279024)"><path class="outline" fill="#A5ABB6" stroke="none" d="M 25 0.5 L 38.229717480236296 0.5 L 38.229717480236296 -0.5 L 25 -0.5 Z M 72.6750299802363 0.5 L 85.90474746047259 0.5 L 85.90474746047259 3.5 L 92.90474746047259 0 L 85.90474746047259 -3.5 L 85.90474746047259 -0.5 L 72.6750299802363 -0.5 Z"/><text text-anchor="middle" pointer-events="none" font-size="8px" fill="#000000" x="55.452373730236296" y="3" font-family="sans-serif">ORIGIN</text></g><g class="relationship" transform="translate(-101.39709376500903 119.21982752419669) rotate(307.14435247052086)"><path class="outline" fill="#A5ABB6" stroke="none" d="M 25 0.5 L 56.25607150809533 0.5 L 56.25607150809533 -0.5 L 25 -0.5 Z M 115.44357150809533 0.5 L 146.69964301619066 0.5 L 146.69964301619066 3.5 L 153.69964301619066 0 L 146.69964301619066 -3.5 L 146.69964301619066 -0.5 L 115.44357150809533 -0.5 Z"/><text text-anchor="middle" pointer-events="none" font-size="8px" fill="#000000" x="85.84982150809533" y="3" font-family="sans-serif">DESTINATION</text></g><g class="relationship" transform="translate(70.7066794535507 192.12168388621873) rotate(241.81265067656318)"><path class="outline" fill="#A5ABB6" stroke="none" d="M 25 0.5 L 45.886172991605434 0.5 L 45.886172991605434 -0.5 L 25 -0.5 Z M 80.33148549160543 0.5 L 101.21765848321087 0.5 L 101.21765848321087 3.5 L 108.21765848321087 0 L 101.21765848321087 -3.5 L 101.21765848321087 -0.5 L 80.33148549160543 -0.5 Z"/><text text-anchor="middle" pointer-events="none" font-size="8px" fill="#000000" x="63.108829241605434" y="3" transform="rotate(180 63.108829241605434 0)" font-family="sans-serif">ORIGIN</text></g><g class="relationship" transform="translate(70.7066794535507 192.12168388621873) rotate(382.4117855828155)"><path class="outline" fill="#A5ABB6" stroke="none" d="M 25 0.5 L 72.53891458047931 0.5 L 72.53891458047931 -0.5 L 25 -0.5 Z M 131.72641458047931 0.5 L 179.26532916095863 0.5 L 179.26532916095863 3.5 L 186.26532916095863 0 L 179.26532916095863 -3.5 L 179.26532916095863 -0.5 L 131.72641458047931 -0.5 Z"/><text text-anchor="middle" pointer-events="none" font-size="8px" fill="#000000" x="102.13266458047931" y="3" font-family="sans-serif">DESTINATION</text></g><g class="relationship" transform="translate(16.705800666085835 275.3700677601083) rotate(267.45327223798944)"><path class="outline" fill="#A5ABB6" stroke="none" d="M 25 0.5 L 79.71027124543399 0.5 L 79.71027124543399 -0.5 L 25 -0.5 Z M 114.15558374543399 0.5 L 168.86585499086797 0.5 L 168.86585499086797 3.5 L 175.86585499086797 0 L 168.86585499086797 -3.5 L 168.86585499086797 -0.5 L 114.15558374543399 -0.5 Z"/><text text-anchor="middle" pointer-events="none" font-size="8px" fill="#000000" x="96.93292749543399" y="3" transform="rotate(180 96.93292749543399 0)" font-family="sans-serif">ORIGIN</text></g><g class="relationship" transform="translate(16.705800666085835 275.3700677601083) rotate(239.98340727407395)"><path class="outline" fill="#A5ABB6" stroke="none" d="M 25 0.5 L 27.43698568702147 0.5 L 27.43698568702147 -0.5 L 25 -0.5 Z M 64.99557943702146 0.5 L 67.43256512404294 0.5 L 67.43256512404294 3.5 L 74.43256512404294 0 L 67.43256512404294 -3.5 L 67.43256512404294 -0.5 L 64.99557943702146 -0.5 Z"/><text text-anchor="middle" pointer-events="none" font-size="8px" fill="#000000" x="46.21628256202147" y="3" transform="rotate(180 46.21628256202147 0)" font-family="sans-serif">DESTI…</text></g></g><g class="layer nodes"><g class="node" aria-label="graph-node197" transform="translate(7.780497167292622,74.70260488018147)"><circle class="outline" cx="0" cy="0" r="25" fill="#8DCC93" stroke="#5db665" stroke-width="2px"/><text class="caption" text-anchor="middle" pointer-events="none" x="0" y="5" font-size="10px" fill="#2A2C34" font-family="sans-serif"> LAX</text></g><g class="node" aria-label="graph-node232" transform="translate(6.506256420214616,-23.224650897815117)"><circle class="outline" cx="0" cy="0" r="25" fill="#8DCC93" stroke="#5db665" stroke-width="2px"/><text class="caption" text-anchor="middle" pointer-events="none" x="0" y="5" font-size="10px" fill="#2A2C34" font-family="sans-serif"> ABQ</text></g><g class="node" aria-label="graph-node205" transform="translate(266.0146373791029,272.66881838794336)"><circle class="outline" cx="0" cy="0" r="25" fill="#8DCC93" stroke="#5db665" stroke-width="2px"/><text class="caption" text-anchor="middle" pointer-events="none" x="0" y="5" font-size="10px" fill="#2A2C34" font-family="sans-serif"> SMF</text></g><g class="node" aria-label="graph-node194" transform="translate(360.6387169004536,-99.26081847156713)"><circle class="outline" cx="0" cy="0" r="25" fill="#8DCC93" stroke="#5db665" stroke-width="2px"/><text class="caption" text-anchor="middle" pointer-events="none" x="0" y="5" font-size="10px" fill="#2A2C34" font-family="sans-serif"> IAH</text></g><g class="node" aria-label="graph-node217" transform="translate(55.78106505022898,-234.3824809868643)"><circle class="outline" cx="0" cy="0" r="25" fill="#8DCC93" stroke="#5db665" stroke-width="2px"/><text class="caption" text-anchor="middle" pointer-events="none" x="0" y="5" font-size="10px" fill="#2A2C34" font-family="sans-serif"> LAS</text></g><g class="node" aria-label="graph-node234" transform="translate(54.01242670344533,-354.6469381236466)"><circle class="outline" cx="0" cy="0" r="25" fill="#8DCC93" stroke="#5db665" stroke-width="2px"/><text class="caption" text-anchor="middle" pointer-events="none" x="0" y="5" font-size="10px" fill="#2A2C34" font-family="sans-serif"> TUS</text></g><g class="node" aria-label="graph-node233" transform="translate(-322.4551894187518,103.47005255571011)"><circle class="outline" cx="0" cy="0" r="25" fill="#8DCC93" stroke="#5db665" stroke-width="2px"/><text class="caption" text-anchor="middle" pointer-events="none" x="0" y="5" font-size="10px" fill="#2A2C34" font-family="sans-serif"> FAT</text></g><g class="node" aria-label="graph-node193" transform="translate(-33.03541739518068,189.27334173101605)"><circle class="outline" cx="0" cy="0" r="25" fill="#8DCC93" stroke="#5db665" stroke-width="2px"/><text class="caption" text-anchor="middle" pointer-events="none" x="0" y="5" font-size="10px" fill="#2A2C34" font-family="sans-serif"> EWR</text></g><g class="node" aria-label="graph-node1111" transform="translate(127.67113845187532,95.2419048436727)"><circle class="outline" cx="0" cy="0" r="25" fill="#ECB5C9" stroke="#da7298" stroke-width="2px"/><text class="caption" text-anchor="middle" pointer-events="none" x="0" y="0" font-size="10px" fill="#2A2C34" font-family="sans-serif"> 11/2/2015</text><text class="caption" text-anchor="middle" pointer-events="none" x="0" y="10" font-size="10px" fill="#2A2C34" font-family="sans-serif"> 04:43:…</text></g><g class="node" aria-label="graph-node1187" transform="translate(168.58905101818812,185.33447125273315)"><circle class="outline" cx="0" cy="0" r="25" fill="#ECB5C9" stroke="#da7298" stroke-width="2px"/><text class="caption" text-anchor="middle" pointer-events="none" x="0" y="0" font-size="10px" fill="#2A2C34" font-family="sans-serif"> 11/2/2015</text><text class="caption" text-anchor="middle" pointer-events="none" x="0" y="10" font-size="10px" fill="#2A2C34" font-family="sans-serif"> 11:49:…</text></g><g class="node" aria-label="graph-node1119" transform="translate(125.57961154137448,-2.8124313897094493)"><circle class="outline" cx="0" cy="0" r="25" fill="#ECB5C9" stroke="#da7298" stroke-width="2px"/><text class="caption" text-anchor="middle" pointer-events="none" x="0" y="0" font-size="10px" fill="#2A2C34" font-family="sans-serif"> 11/1/2015</text><text class="caption" text-anchor="middle" pointer-events="none" x="0" y="10" font-size="10px" fill="#2A2C34" font-family="sans-serif"> 05:43:…</text></g><g class="node" aria-label="graph-node295" transform="translate(223.66166244145674,1.1339218958293205)"><circle class="outline" cx="0" cy="0" r="25" fill="#ECB5C9" stroke="#da7298" stroke-width="2px"/><text class="caption" text-anchor="middle" pointer-events="none" x="0" y="5" font-size="10px" fill="#2A2C34" font-family="sans-serif"> 11/30/20…</text></g><g class="node" aria-label="graph-node1115" transform="translate(80.7832096991601,-90.78013236080692)"><circle class="outline" cx="0" cy="0" r="25" fill="#ECB5C9" stroke="#da7298" stroke-width="2px"/><text class="caption" text-anchor="middle" pointer-events="none" x="0" y="0" font-size="10px" fill="#2A2C34" font-family="sans-serif"> 11/4/2015</text><text class="caption" text-anchor="middle" pointer-events="none" x="0" y="10" font-size="10px" fill="#2A2C34" font-family="sans-serif"> 15:09:…</text></g><g class="node" aria-label="graph-node851" transform="translate(177.97989766201118,-86.52981218704943)"><circle class="outline" cx="0" cy="0" r="25" fill="#ECB5C9" stroke="#da7298" stroke-width="2px"/><text class="caption" text-anchor="middle" pointer-events="none" x="0" y="5" font-size="10px" fill="#2A2C34" font-family="sans-serif"> 11/29/20…</text></g><g class="node" aria-label="graph-node1167" transform="translate(-11.636705066536797,-120.24866121316234)"><circle class="outline" cx="0" cy="0" r="25" fill="#ECB5C9" stroke="#da7298" stroke-width="2px"/><text class="caption" text-anchor="middle" pointer-events="none" x="0" y="0" font-size="10px" fill="#2A2C34" font-family="sans-serif"> 11/2/2015</text><text class="caption" text-anchor="middle" pointer-events="none" x="0" y="10" font-size="10px" fill="#2A2C34" font-family="sans-serif"> 15:15:…</text></g><g class="node" aria-label="graph-node1199" transform="translate(225.81952524554646,105.30797853261207)"><circle class="outline" cx="0" cy="0" r="25" fill="#ECB5C9" stroke="#da7298" stroke-width="2px"/><text class="caption" text-anchor="middle" pointer-events="none" x="0" y="0" font-size="10px" fill="#2A2C34" font-family="sans-serif"> 11/3/2015</text><text class="caption" text-anchor="middle" pointer-events="none" x="0" y="10" font-size="10px" fill="#2A2C34" font-family="sans-serif"> 13:44:…</text></g><g class="node" aria-label="graph-node1171" transform="translate(132.3082696507966,-173.91615003192896)"><circle class="outline" cx="0" cy="0" r="25" fill="#ECB5C9" stroke="#da7298" stroke-width="2px"/><text class="caption" text-anchor="middle" pointer-events="none" x="0" y="0" font-size="10px" fill="#2A2C34" font-family="sans-serif"> 11/1/2015</text><text class="caption" text-anchor="middle" pointer-events="none" x="0" y="10" font-size="10px" fill="#2A2C34" font-family="sans-serif"> 05:51:…</text></g><g class="node" aria-label="graph-node1155" transform="translate(-164.3525793842959,-44.242568460276345)"><circle class="outline" cx="0" cy="0" r="25" fill="#ECB5C9" stroke="#da7298" stroke-width="2px"/><text class="caption" text-anchor="middle" pointer-events="none" x="0" y="0" font-size="10px" fill="#2A2C34" font-family="sans-serif"> 11/4/2015</text><text class="caption" text-anchor="middle" pointer-events="none" x="0" y="10" font-size="10px" fill="#2A2C34" font-family="sans-serif"> 15:13:…</text></g><g class="node" aria-label="graph-node1159" transform="translate(-110.32474700480762,-126.16078216434983)"><circle class="outline" cx="0" cy="0" r="25" fill="#ECB5C9" stroke="#da7298" stroke-width="2px"/><text class="caption" text-anchor="middle" pointer-events="none" x="0" y="0" font-size="10px" fill="#2A2C34" font-family="sans-serif"> 11/3/2015</text><text class="caption" text-anchor="middle" pointer-events="none" x="0" y="10" font-size="10px" fill="#2A2C34" font-family="sans-serif"> 23:26:…</text></g><g class="node" aria-label="graph-node1175" transform="translate(-53.92563287911154,-208.47577896221506)"><circle class="outline" cx="0" cy="0" r="25" fill="#ECB5C9" stroke="#da7298" stroke-width="2px"/><text class="caption" text-anchor="middle" pointer-events="none" x="0" y="0" font-size="10px" fill="#2A2C34" font-family="sans-serif"> 11/2/2015</text><text class="caption" text-anchor="middle" pointer-events="none" x="0" y="10" font-size="10px" fill="#2A2C34" font-family="sans-serif"> 09:52:…</text></g><g class="node" aria-label="graph-node1143" transform="translate(-252.5874190452549,-3.4956316008648147)"><circle class="outline" cx="0" cy="0" r="25" fill="#ECB5C9" stroke="#da7298" stroke-width="2px"/><text class="caption" text-anchor="middle" pointer-events="none" x="0" y="0" font-size="10px" fill="#2A2C34" font-family="sans-serif"> 11/3/2015</text><text class="caption" text-anchor="middle" pointer-events="none" x="0" y="10" font-size="10px" fill="#2A2C34" font-family="sans-serif"> 11:45:…</text></g><g class="node" aria-label="graph-node735" transform="translate(-84.29456186212937,13.879945285194657)"><circle class="outline" cx="0" cy="0" r="25" fill="#ECB5C9" stroke="#da7298" stroke-width="2px"/><text class="caption" text-anchor="middle" pointer-events="none" x="0" y="5" font-size="10px" fill="#2A2C34" font-family="sans-serif"> 11/29/20…</text></g><g class="node" aria-label="graph-node1195" transform="translate(122.8448861127762,273.73746499516375)"><circle class="outline" cx="0" cy="0" r="25" fill="#ECB5C9" stroke="#da7298" stroke-width="2px"/><text class="caption" text-anchor="middle" pointer-events="none" x="0" y="0" font-size="10px" fill="#2A2C34" font-family="sans-serif"> 11/4/2015</text><text class="caption" text-anchor="middle" pointer-events="none" x="0" y="10" font-size="10px" fill="#2A2C34" font-family="sans-serif"> 05:06:…</text></g><g class="node" aria-label="graph-node1123" transform="translate(-174.04831587041292,52.25175802843988)"><circle class="outline" cx="0" cy="0" r="25" fill="#ECB5C9" stroke="#da7298" stroke-width="2px"/><text class="caption" text-anchor="middle" pointer-events="none" x="0" y="0" font-size="10px" fill="#2A2C34" font-family="sans-serif"> 11/3/2015</text><text class="caption" text-anchor="middle" pointer-events="none" x="0" y="10" font-size="10px" fill="#2A2C34" font-family="sans-serif"> 21:46:…</text></g><g class="node" aria-label="graph-node1147" transform="translate(-130.34965790121475,214.35145134887293)"><circle class="outline" cx="0" cy="0" r="25" fill="#ECB5C9" stroke="#da7298" stroke-width="2px"/><text class="caption" text-anchor="middle" pointer-events="none" x="0" y="0" font-size="10px" fill="#2A2C34" font-family="sans-serif"> 11/2/2015</text><text class="caption" text-anchor="middle" pointer-events="none" x="0" y="10" font-size="10px" fill="#2A2C34" font-family="sans-serif"> 09:18:…</text></g><g class="node" aria-label="graph-node1151" transform="translate(-202.13718922578002,148.09649587888737)"><circle class="outline" cx="0" cy="0" r="25" fill="#ECB5C9" stroke="#da7298" stroke-width="2px"/><text class="caption" text-anchor="middle" pointer-events="none" x="0" y="0" font-size="10px" fill="#2A2C34" font-family="sans-serif"> 11/1/2015</text><text class="caption" text-anchor="middle" pointer-events="none" x="0" y="10" font-size="10px" fill="#2A2C34" font-family="sans-serif"> 02:27:…</text></g><g class="node" aria-label="graph-node1163" transform="translate(-101.39709376500903,119.21982752419669)"><circle class="outline" cx="0" cy="0" r="25" fill="#ECB5C9" stroke="#da7298" stroke-width="2px"/><text class="caption" text-anchor="middle" pointer-events="none" x="0" y="0" font-size="10px" fill="#2A2C34" font-family="sans-serif"> 11/1/2015</text><text class="caption" text-anchor="middle" pointer-events="none" x="0" y="10" font-size="10px" fill="#2A2C34" font-family="sans-serif"> 17:17:…</text></g><g class="node" aria-label="graph-node1191" transform="translate(70.7066794535507,192.12168388621873)"><circle class="outline" cx="0" cy="0" r="25" fill="#ECB5C9" stroke="#da7298" stroke-width="2px"/><text class="caption" text-anchor="middle" pointer-events="none" x="0" y="0" font-size="10px" fill="#2A2C34" font-family="sans-serif"> 11/1/2015</text><text class="caption" text-anchor="middle" pointer-events="none" x="0" y="10" font-size="10px" fill="#2A2C34" font-family="sans-serif"> 12:26:…</text></g><g class="node" aria-label="graph-node327" transform="translate(16.705800666085835,275.3700677601083)"><circle class="outline" cx="0" cy="0" r="25" fill="#ECB5C9" stroke="#da7298" stroke-width="2px"/><text class="caption" text-anchor="middle" pointer-events="none" x="0" y="5" font-size="10px" fill="#2A2C34" font-family="sans-serif"> 11/30/20…</text></g></g></svg>