<svg xmlns="http://www.w3.org/2000/svg" width="511.74676513671875" height="511.53271484375" viewBox="-242.6976318359375 -246.5802001953125 511.74676513671875 511.53271484375"><title>Neo4j Graph Visualization</title><desc>Created using Neo4j (http://www.neo4j.com/)</desc><g class="layer relationships"><g class="relationship" transform="translate(240.0491420143623 -10.470799016604346) rotate(475.2138532464996)"><path class="outline" fill="#A5ABB6" stroke="none" d="M 25 0.5 L 50.84312185752465 0.5 L 50.84312185752465 -0.5 L 25 -0.5 Z M 85.28843435752465 0.5 L 111.1315562150493 0.5 L 111.1315562150493 3.5 L 118.1315562150493 0 L 111.1315562150493 -3.5 L 111.1315562150493 -0.5 L 85.28843435752465 -0.5 Z"/><text text-anchor="middle" pointer-events="none" font-size="8px" fill="#000000" x="68.06577810752465" y="3" transform="rotate(180 68.06577810752465 0)" font-family="sans-serif">ORIGIN</text></g><g class="relationship" transform="translate(240.0491420143623 -10.470799016604346) rotate(239.19628342625225)"><path class="outline" fill="#A5ABB6" stroke="none" d="M 25 0.5 L 39.415501194098596 0.5 L 39.415501194098596 -0.5 L 25 -0.5 Z M 98.6030011940986 0.5 L 113.01850238819719 0.5 L 113.01850238819719 3.5 L 120.01850238819719 0 L 113.01850238819719 -3.5 L 113.01850238819719 -0.5 L 98.6030011940986 -0.5 Z"/><text text-anchor="middle" pointer-events="none" font-size="8px" fill="#000000" x="69.0092511940986" y="3" transform="rotate(180 69.0092511940986 0)" font-family="sans-serif">DESTINATION</text></g><g class="relationship" transform="translate(45.72978631047195 -217.58019612237965) rotate(394.5120618749598)"><path class="outline" fill="#A5ABB6" stroke="none" d="M 25 0.5 L 52.12599456241402 0.5 L 52.12599456241402 -0.5 L 25 -0.5 Z M 86.57130706241402 0.5 L 113.69730162482804 0.5 L 113.69730162482804 3.5 L 120.69730162482804 0 L 113.69730162482804 -3.5 L 113.69730162482804 -0.5 L 86.57130706241402 -0.5 Z"/><text text-anchor="middle" pointer-events="none" font-size="8px" fill="#000000" x="69.34865081241402" y="3" font-family="sans-serif">ORIGIN</text></g><g class="relationship" transform="translate(45.72978631047195 -217.58019612237965) rotate(535.0167978403985)"><path class="outline" fill="#A5ABB6" stroke="none" d="M 25 0.5 L 39.19816031835275 0.5 L 39.19816031835275 -0.5 L 25 -0.5 Z M 98.38566031835275 0.5 L 112.5838206367055 0.5 L 112.5838206367055 3.5 L 119.5838206367055 0 L 112.5838206367055 -3.5 L 112.5838206367055 -0.5 L 98.38566031835275 -0.5 Z"/><text text-anchor="middle" pointer-events="none" font-size="8px" fill="#000000" x="68.79191031835275" y="3" transform="rotate(180 68.79191031835275 0)" font-family="sans-serif">DESTINATION</text></g><g class="relationship" transform="translate(-194.91921771991298 -96.71714635611117) rotate(311.7342996520834)"><path class="outline" fill="#A5ABB6" stroke="none" d="M 25 0.5 L 39.47271286391128 0.5 L 39.47271286391128 -0.5 L 25 -0.5 Z M 98.66021286391128 0.5 L 113.13292572782257 0.5 L 113.13292572782257 3.5 L 120.13292572782257 0 L 113.13292572782257 -3.5 L 113.13292572782257 -0.5 L 98.66021286391128 -0.5 Z"/><text text-anchor="middle" pointer-events="none" font-size="8px" fill="#000000" x="69.06646286391128" y="3" font-family="sans-serif">DESTINATION</text></g><g class="relationship" transform="translate(-194.91921771991298 -96.71714635611117) rotate(457.4436975424858)"><path class="outline" fill="#A5ABB6" stroke="none" d="M 25 0.5 L 51.751864263660664 0.5 L 51.751864263660664 -0.5 L 25 -0.5 Z M 86.19717676366066 0.5 L 112.94904102732133 0.5 L 112.94904102732133 3.5 L 119.94904102732133 0 L 112.94904102732133 -3.5 L 112.94904102732133 -0.5 L 86.19717676366066 -0.5 Z"/><text text-anchor="middle" pointer-events="none" font-size="8px" fill="#000000" x="68.97452051366066" y="3" transform="rotate(180 68.97452051366066 0)" font-family="sans-serif">ORIGIN</text></g><g class="relationship" transform="translate(-139.32720437966634 172.1892372990082) rotate(239.2848913102642)"><path class="outline" fill="#A5ABB6" stroke="none" d="M 25 0.5 L 52.079667190333794 0.5 L 52.079667190333794 -0.5 L 25 -0.5 Z M 86.5249796903338 0.5 L 113.60464688066759 0.5 L 113.60464688066759 3.5 L 120.60464688066759 0 L 113.60464688066759 -3.5 L 113.60464688066759 -0.5 L 86.5249796903338 -0.5 Z"/><text text-anchor="middle" pointer-events="none" font-size="8px" fill="#000000" x="69.3023234403338" y="3" transform="rotate(180 69.3023234403338 0)" font-family="sans-serif">ORIGIN</text></g><g class="relationship" transform="translate(-139.32720437966634 172.1892372990082) rotate(386.53284751186595)"><path class="outline" fill="#A5ABB6" stroke="none" d="M 25 0.5 L 38.275985249420955 0.5 L 38.275985249420955 -0.5 L 25 -0.5 Z M 97.46348524942096 0.5 L 110.73947049884191 0.5 L 110.73947049884191 3.5 L 117.73947049884191 0 L 110.73947049884191 -3.5 L 110.73947049884191 -0.5 L 97.46348524942096 -0.5 Z"/><text text-anchor="middle" pointer-events="none" font-size="8px" fill="#000000" x="67.86973524942096" y="3" font-family="sans-serif">DESTINATION</text></g></g><g class="layer nodes"><g class="node" aria-label="graph-node197" transform="translate(179.07537781369135,119.02376636643709)"><circle class="outline" cx="0" cy="0" r="25" fill="#8DCC93" stroke="#5db665" stroke-width="2px"/><text class="caption" text-anchor="middle" pointer-events="none" x="0" y="5" font-size="10px" fill="#2A2C34" font-family="sans-serif"> LAX</text></g><g class="node" aria-label="graph-node262" transform="translate(-11.621281787383046,235.95250080663857)"><circle class="outline" cx="0" cy="0" r="25" fill="#8DCC93" stroke="#5db665" stroke-width="2px"/><text class="caption" text-anchor="middle" pointer-events="none" x="0" y="5" font-size="10px" fill="#2A2C34" font-family="sans-serif"> DAY</text></g><g class="node" aria-label="graph-node851" transform="translate(240.0491420143623,-10.470799016604346)"><circle class="outline" cx="0" cy="0" r="25" fill="#ECB5C9" stroke="#da7298" stroke-width="2px"/><text class="caption" text-anchor="middle" pointer-events="none" x="0" y="5" font-size="10px" fill="#2A2C34" font-family="sans-serif"> 11/29/20…</text></g><g class="node" aria-label="graph-node217" transform="translate(165.7853726542524,-135.031059916074)"><circle class="outline" cx="0" cy="0" r="25" fill="#8DCC93" stroke="#5db665" stroke-width="2px"/><text class="caption" text-anchor="middle" pointer-events="none" x="0" y="5" font-size="10px" fill="#2A2C34" font-family="sans-serif"> LAS</text></g><g class="node" aria-label="graph-node835" transform="translate(45.72978631047195,-217.58019612237965)"><circle class="outline" cx="0" cy="0" r="25" fill="#ECB5C9" stroke="#da7298" stroke-width="2px"/><text class="caption" text-anchor="middle" pointer-events="none" x="0" y="5" font-size="10px" fill="#2A2C34" font-family="sans-serif"> 11/29/20…</text></g><g class="node" aria-label="graph-node209" transform="translate(-98.30753746972236,-205.02111382523296)"><circle class="outline" cx="0" cy="0" r="25" fill="#8DCC93" stroke="#5db665" stroke-width="2px"/><text class="caption" text-anchor="middle" pointer-events="none" x="0" y="5" font-size="10px" fill="#2A2C34" font-family="sans-serif"> DEN</text></g><g class="node" aria-label="graph-node815" transform="translate(-194.91921771991298,-96.71714635611117)"><circle class="outline" cx="0" cy="0" r="25" fill="#ECB5C9" stroke="#da7298" stroke-width="2px"/><text class="caption" text-anchor="middle" pointer-events="none" x="0" y="5" font-size="10px" fill="#2A2C34" font-family="sans-serif"> 11/29/20…</text></g><g class="node" aria-label="graph-node200" transform="translate(-213.6976374625064,47.0103577852711)"><circle class="outline" cx="0" cy="0" r="25" fill="#8DCC93" stroke="#5db665" stroke-width="2px"/><text class="caption" text-anchor="middle" pointer-events="none" x="0" y="5" font-size="10px" fill="#2A2C34" font-family="sans-serif"> MSP</text></g><g class="node" aria-label="graph-node1283" transform="translate(-139.32720437966634,172.1892372990082)"><circle class="outline" cx="0" cy="0" r="25" fill="#ECB5C9" stroke="#da7298" stroke-width="2px"/><text class="caption" text-anchor="middle" pointer-events="none" x="0" y="5" font-size="10px" fill="#2A2C34" font-family="sans-serif"> 11/23/20…</text></g></g></svg>